<?xml version="1.0" encoding="utf-8"?>
<!-- Generator: Adobe Illustrator 18.1.0, SVG Export Plug-In . SVG Version: 6.00 Build 0)  -->
<svg version="1.1" id="Layer_1" xmlns="http://www.w3.org/2000/svg" xmlns:xlink="http://www.w3.org/1999/xlink" x="0px" y="0px"
	 viewBox="8.5 44.7 100.1 67.7" enable-background="new 8.5 44.7 100.1 67.7" xml:space="preserve">
<path fill="#BC8420" stroke="#BC8420" stroke-width="3" stroke-miterlimit="10" d="M97,111h-77c-5.6,0-10.1-4.5-10.1-10.1V56.3
	c0-5.6,4.5-10.1,10.1-10.1h76.9c5.6,0,10.1,4.5,10.1,10.1V101C107.1,106.4,102.7,111,97,111z M20.1,50.2c-3.4,0-6.1,2.7-6.1,6v44.6
	c0,3.4,2.7,6,6.1,6h76.9c3.4,0,6-2.7,6-6V56.3c0-3.4-2.7-6-6-6L20.1,50.2L20.1,50.2z"/>
<path fill="#BC8420" stroke="#BC8420" stroke-width="3" stroke-miterlimit="10" d="M58.2,79.8c-1.9,0-3.9-0.4-5.7-1.4L23.3,61.4
	c-0.8-0.4-1.1-1.4-0.5-2.1c0.5-0.8,1.7-0.9,2.5-0.3l29.2,17c2.3,1.3,5,1.3,7.3,0l29.2-17c0.8-0.4,1.9-0.3,2.5,0.3
	c0.5,0.8,0.4,1.7-0.5,2.1l-29.2,17C62.2,79.3,60.2,79.8,58.2,79.8z"/>
<path fill="#BC8420" stroke="#BC8420" stroke-width="3" stroke-miterlimit="10" d="M23.3,98.9c-0.4,0-0.8-0.2-1-0.5
	c-0.5-0.5-0.4-1.5,0.2-1.9l16-13.4c0.5-0.5,1.5-0.4,1.9,0.2c0.5,0.5,0.4,1.5-0.2,1.9L24.1,98.7C23.9,98.8,23.6,98.9,23.3,98.9z"/>
<path fill="#BC8420" stroke="#BC8420" stroke-width="3" stroke-miterlimit="10" d="M93.3,98.9c-0.3,0-0.6-0.1-0.9-0.3l-16-13.5
	c-0.5-0.5-0.6-1.2-0.2-1.9c0.5-0.5,1.2-0.6,1.9-0.2l16,13.4c0.5,0.5,0.6,1.2,0.2,1.9C94.1,98.8,93.7,98.9,93.3,98.9z"/>
</svg>
