<?xml version="1.0" encoding="utf-8"?>
<!-- Generator: Adobe Illustrator 18.1.0, SVG Export Plug-In . SVG Version: 6.00 Build 0)  -->
<svg version="1.1" id="Layer_1" xmlns="http://www.w3.org/2000/svg" xmlns:xlink="http://www.w3.org/1999/xlink" x="0px" y="0px"
	 viewBox="0 0 500 500" enable-background="new 0 0 500 500" xml:space="preserve">
<g>
	<path fill="none" stroke="#FFFFFF" stroke-width="10" stroke-miterlimit="10" d="M175.9,295.5c0,0,90.8,12.4,151.2,0
		c21.2-4.4,29.2,28.8,1.6,36.8c-27.2,7.6-83.2,23.6-120,32.8c-24.8,6.4-21.2,30.8,2.4,30.8c32.8,0,70.8-10,70.8-10"/>
</g>
<g>
	<path fill="#FFFFFF" d="M175.9,281.9l42.4-8.8l88.4-104.8l-40.4-34.4l-88.8,104.8L175.9,281.9z M200.3,229.5l23.6,20l-11.6,13.6
		l-24.4,5.2l1.2-24.8L200.3,229.5z"/>
	<path fill="#FFFFFF" d="M314.3,159.1l18.8-22c5.2-6.4,4.4-15.6-1.6-20.8l-18-15.2c-6.4-5.2-15.6-4.4-20.8,1.6l-18.4,22L314.3,159.1
		z"/>
	
		<rect x="185.8" y="251.7" transform="matrix(0.9965 -8.327485e-02 8.327485e-02 0.9965 -21.0018 17.0902)" fill="#FFFFFF" width="17.2" height="17.2"/>
</g>
</svg>
