<?xml version="1.0" encoding="utf-8"?>
<!-- Generator: Adobe Illustrator 18.1.0, SVG Export Plug-In . SVG Version: 6.00 Build 0)  -->
<svg version="1.1" id="Layer_1" xmlns="http://www.w3.org/2000/svg" xmlns:xlink="http://www.w3.org/1999/xlink" x="0px" y="0px"
	 viewBox="65 6 380.1 489.8" enable-background="new 65 6 380.1 489.8" xml:space="preserve">
<g>
	<g>
		<path fill="#FFFFFF" d="M272.3,146V85.6H161c-18.9,0-34.2,15.3-34.2,34.2V382c0,18.9,15.3,34.2,34.2,34.2h188.2
			c18.9,0,34.2-15.3,34.2-34.2V196.6H323C295.1,196.6,272.3,173.9,272.3,146z M329.7,355.2H171.1c-7.1,0-12.9-5.8-12.9-12.9
			c0-7.1,5.8-12.9,12.9-12.9h158.6c7.1,0,12.9,5.8,12.9,12.9C342.5,349.4,336.8,355.2,329.7,355.2z M329.7,301.6H171.1
			c-7.1,0-12.9-5.8-12.9-12.9c0-7.1,5.8-12.9,12.9-12.9h158.6c7.1,0,12.9,5.8,12.9,12.9C342.5,295.8,336.8,301.6,329.7,301.6z
			 M342.5,233.8c0,7.1-5.8,12.9-12.9,12.9H171.1c-7.1,0-12.9-5.8-12.9-12.9c0-7.1,5.8-12.9,12.9-12.9h158.6
			C336.8,220.9,342.5,226.6,342.5,233.8z"/>
		<path fill="#FFFFFF" d="M323,180.2h60.4l-94.6-94.6V146C288.8,164.9,304.1,180.2,323,180.2z"/>
	</g>
</g>
</svg>
