<?xml version="1.0" encoding="utf-8"?>
<!-- Generator: Adobe Illustrator 18.1.0, SVG Export Plug-In . SVG Version: 6.00 Build 0)  -->
<svg version="1.1" id="Layer_1" xmlns="http://www.w3.org/2000/svg" xmlns:xlink="http://www.w3.org/1999/xlink" x="0px" y="0px"
	 viewBox="22 11.9 100.2 100" enable-background="new 22 11.9 100.2 100" xml:space="preserve">
<path fill="#BC8420" stroke="#BC8420" stroke-miterlimit="10" d="M96.1,111.9c-2.7,0-7.3-0.4-13.8-2.5C70.5,105.7,58.7,98,47.4,86.7
	C29.9,69.3,22.2,55.7,22,41.6c0-1.6,1.3-2.9,2.7-2.9l0,0c1.6,0,2.9,1.3,2.9,2.7c0.2,12.5,7.2,24.9,23.6,41.3
	c25.2,25.2,45.1,23.6,46.2,23.4c1.8-0.2,3.4-0.7,5.2-1.3c1.8-0.7,3.6-1.6,5-2.9c0.2-0.2,0.4-0.2,0.4-0.4l3.4-3.4
	c1.8-1.8,1.8-4.7,0.2-6.4L97.7,78.1c-1.8-1.6-4.5-1.6-6.4,0.2l-7.2,7.2c-0.9,0.9-2.3,1.1-3.4,0.5c-0.5-0.2-0.9-0.5-1.4-0.7
	c-4.7-2.5-10.9-6.1-17.5-12.7C54.9,65.8,51.5,59.5,49,54.9l-0.2-0.2c-0.2-0.4-0.4-0.7-0.5-1.1c-0.7-1.1-0.4-2.5,0.5-3.4L56,43
	c1.8-1.8,2-4.7,0.2-6.4l-14-14c-0.9-0.9-2-1.3-3-1.3c-1.3,0-2.3,0.5-3.2,1.4l-3.8,3.9c-0.7,0.9-1.3,1.8-1.8,2.9
	c-0.7,1.4-2.3,2-3.8,1.3c-1.4-0.7-2-2.3-1.3-3.8c0.7-1.4,1.6-2.7,2.5-3.9l0.2-0.2l3.9-4.1l0,0c2-2,4.5-3,7.2-3
	c2.7,0,5.2,0.9,7.2,2.9l14,14C64.2,36.6,64,43,60.1,47l-5.9,5.5c2.3,4.3,5.7,10,11.6,15.9s11.6,9.3,15.9,11.6l5.5-5.5
	c3.9-3.9,10.4-4.1,14.3-0.2l14,14c3.9,3.9,3.8,10.4-0.2,14.3l0,0l-3.9,3.9c-0.4,0.4-0.5,0.5-0.9,0.5c-1.8,1.3-3.8,2.3-5.7,3.2
	c-2.1,0.9-4.3,1.4-6.6,1.6l0,0C97.8,111.9,97.1,111.9,96.1,111.9z M122.2,63.8c0-28.6-23.3-51.9-51.9-51.9c-1.6,0-2.9,1.3-2.9,2.9
	c0,1.6,1.3,2.9,2.9,2.9c25.6,0,46.2,20.8,46.2,46.2c0,1.6,1.3,2.9,2.9,2.9C120.9,66.7,122.2,65.4,122.2,63.8z M103.9,61.7
	c0-17.4-14.1-31.5-31.5-31.5c-1.6,0-2.9,1.3-2.9,2.9c0,1.6,1.3,2.9,2.9,2.9c14.3,0,25.9,11.6,25.9,25.9c0,1.6,1.3,2.9,2.9,2.9
	C102.7,64.5,103.9,63.3,103.9,61.7z"/>
</svg>
