<?xml version="1.0" encoding="utf-8"?>
<!-- Generator: Adobe Illustrator 18.1.0, SVG Export Plug-In . SVG Version: 6.00 Build 0)  -->
<svg version="1.1" id="Layer_1" xmlns="http://www.w3.org/2000/svg" xmlns:xlink="http://www.w3.org/1999/xlink" x="0px" y="0px"
	 viewBox="-28.9 39.6 12.3 22.8" enable-background="new -28.9 39.6 12.3 22.8" xml:space="preserve">
<g>
	<path fill="#AAAAAA" d="M-16.6,62.4v-1.7c-2.3-0.4-3.8-1.1-3.8-7.2v-5.8c0-5.8,1-6.2,3.3-6.6v-1.5h-9.6c-0.7,0-1.3,0.2-1.8,0.6
		c-0.3,0.3-0.5,0.8-0.5,1.3c0,0.5,0.2,0.9,0.5,1.2c0.3,0.3,0.7,0.4,1.1,0.4c0.6,0,1.2-0.5,1.3-1.2c0-0.4-0.1-0.6-0.2-0.8
		c-0.2-0.2-0.4-0.3-0.6-0.3c-0.3,0-0.6,0.1-0.7,0.3c-0.1,0.2-0.2,0.4-0.1,0.6c0.1,0.1,0.2,0.2,0.4,0.2c0.1-0.1,0.2-0.2,0.2-0.4
		c0,0,0-0.1,0-0.1c0,0,0.1-0.1,0.3-0.1c0.1,0,0.2,0.1,0.2,0.1c0.1,0.1,0.1,0.2,0.1,0.4c-0.1,0.4-0.4,0.7-0.8,0.7
		c-0.2,0-0.5-0.1-0.6-0.2c-0.1-0.1-0.3-0.4-0.3-0.8c0-0.3,0.1-0.7,0.4-0.9c0.3-0.3,0.8-0.4,1.4-0.4c0,0,3.4,0,4.3,0v0.6h-3
		c-0.2,0-0.3,0.1-0.3,0.3s0.2,0.3,0.3,0.3h3v0.5h-2.8l0,0c-0.2,0-0.3,0.1-0.3,0.3c0,0.2,0.1,0.3,0.3,0.3h2.8v17.1h-4.8
		c-0.2,0-0.3,0.1-0.3,0.3c0,0.2,0.1,0.3,0.3,0.3h4.8V61h-5.7c-0.4,0-0.7,0.3-0.7,0.7l0,0.7L-16.6,62.4L-16.6,62.4z"/>
	<path fill="#AAAAAA" d="M-24.5,58.5v-15c0-0.2-0.1-0.3-0.3-0.3c-0.2,0-0.3,0.1-0.3,0.3v15c0,0.2,0.1,0.3,0.3,0.3
		S-24.5,58.7-24.5,58.5z"/>
	<path fill="#AAAAAA" d="M-23.1,58.5V43.7c0-0.2-0.2-0.4-0.4-0.4c-0.2,0-0.4,0.2-0.4,0.4v14.9c0,0.2,0.2,0.4,0.4,0.4
		C-23.3,58.9-23.1,58.7-23.1,58.5z"/>
</g>
</svg>
