<?xml version="1.0" standalone="no"?>
<!DOCTYPE svg PUBLIC "-//W3C//DTD SVG 1.1//EN" "http://www.w3.org/Graphics/SVG/1.1/DTD/svg11.dtd" >
<svg>
<metadata>
Created by FontForge 20120731 at Wed Nov 26 19:39:34 2014
 By Orthosie Webhosting
Copyright (c) 1992 Adobe Systems Incorporated.  All Rights Reserved.Myriad is a trademark of Adobe Systems Incorporated.
</metadata>
<defs>
<font id="MyriadSetPro-BoldItalic" horiz-adv-x="596" >
  <font-face 
    font-family="Myriad Set Pro"
    font-weight="700"
    font-style="italic"
    font-stretch="normal"
    units-per-em="1000"
    panose-1="2 0 4 0 0 0 0 0 0 0"
    ascent="800"
    descent="-200"
    x-height="506"
    cap-height="700"
    bbox="-104 -243 1016 740"
    underline-thickness="50"
    underline-position="-75"
    unicode-range="U+001D-FE48"
  />
<missing-glyph 
d="M48 0v700h500v-700h-500zM72 24h452v652h-452v-652z" />
    <glyph glyph-name="uniFB00" unicode="ff" 
d="M48 0v700h500v-700h-500zM72 24h452v652h-452v-652z" />
    <glyph glyph-name="uniFB01" unicode="fi" horiz-adv-x="563" 
d="M491 -20h-158l86 405h-124l-86 -405h-158l86 405h-66l26 121h66l1 5q10 51 35.5 93t64.5 72t89 47t108 17q91 0 147 -44l-65 -123q-59 40 -111 40q-90 0 -112 -106v-1h283z" />
    <glyph glyph-name="uniFB02" unicode="fl" horiz-adv-x="563" 
d="M491 -20h-158l135 634q-5 3 -41 3q-84 0 -107 -108v-3h104l-26 -121h-103l-86 -405h-158l86 405h-66l26 121h66v1q11 51 37 94t65.5 73.5t91.5 48t113 17.5q99 0 173 -44z" />
    <glyph glyph-name="uniFB03" unicode="ffi" 
d="M48 0v700h500v-700h-500zM72 24h452v652h-452v-652z" />
    <glyph glyph-name="uniFB04" unicode="ffl" 
d="M48 0v700h500v-700h-500zM72 24h452v652h-452v-652z" />
    <glyph glyph-name=".notdef" 
d="M48 0v700h500v-700h-500zM72 24h452v652h-452v-652z" />
    <glyph glyph-name=".null" horiz-adv-x="0" 
 />
    <glyph glyph-name=".null" horiz-adv-x="0" 
 />
    <glyph glyph-name="nonmarkingreturn" horiz-adv-x="236" 
 />
    <glyph glyph-name="space" unicode=" " horiz-adv-x="236" 
 />
    <glyph glyph-name="exclam" unicode="!" horiz-adv-x="266" 
d="M352 694l-127 -512h-132l91 512h168zM227 60q-8 -38 -40 -64.5t-75 -26.5t-61.5 27.5t-10.5 63.5q8 37 39 64.5t73 27.5q43 0 63 -27.5t12 -64.5z" />
    <glyph glyph-name="quotedbl" unicode="&#x22;" 
d="M48 0v700h500v-700h-500zM72 24h452v652h-452v-652z" />
    <glyph glyph-name="numbersign" unicode="#" 
d="M48 0v700h500v-700h-500zM72 24h452v652h-452v-652z" />
    <glyph glyph-name="dollar" unicode="$" 
d="M48 0v700h500v-700h-500zM72 24h452v652h-452v-652z" />
    <glyph glyph-name="percent" unicode="%" 
d="M48 0v700h500v-700h-500zM72 24h452v652h-452v-652z" />
    <glyph glyph-name="ampersand" unicode="&#x26;" 
d="M48 0v700h500v-700h-500zM72 24h452v652h-452v-652z" />
    <glyph glyph-name="quotesingle" unicode="'" 
d="M48 0v700h500v-700h-500zM72 24h452v652h-452v-652z" />
    <glyph glyph-name="parenleft" unicode="(" 
d="M48 0v700h500v-700h-500zM72 24h452v652h-452v-652z" />
    <glyph glyph-name="parenright" unicode=")" 
d="M48 0v700h500v-700h-500zM72 24h452v652h-452v-652z" />
    <glyph glyph-name="asterisk" unicode="*" 
d="M48 0v700h500v-700h-500zM72 24h452v652h-452v-652z" />
    <glyph glyph-name="plus" unicode="+" 
d="M48 0v700h500v-700h-500zM72 24h452v652h-452v-652z" />
    <glyph glyph-name="comma" unicode="," horiz-adv-x="256" 
d="M260 164q-97 -189 -186 -298l-127 -11q85 148 139 294z" />
    <glyph glyph-name="hyphen" unicode="-" horiz-adv-x="334" 
d="M349 210h-299l24 116h299z" />
    <glyph glyph-name="period" unicode="." horiz-adv-x="248" 
d="M227 61q-8 -37 -39.5 -64.5t-75.5 -27.5q-43 0 -62 28t-11 64q8 37 40 65t74 28q43 0 62.5 -27.5t11.5 -65.5z" />
    <glyph glyph-name="slash" unicode="/" horiz-adv-x="368" 
d="M520 705l-432 -765h-130l432 765h130z" />
    <glyph glyph-name="zero" unicode="0" horiz-adv-x="544" 
d="M579 330q-30 -143 -97 -234q-91 -127 -234 -127q-135 0 -171 128q-28 91 1 226q29 138 99 232q94 126 232 126q137 0 173 -125q26 -89 -3 -226zM420 327q48 230 -43 230q-48 0 -92 -85q-31 -63 -50 -150q-18 -87 -13 -148q8 -81 57 -81q91 0 141 234z" />
    <glyph glyph-name="one" unicode="1" horiz-adv-x="544" 
d="M358 -20h-154l117 551h30l-156 -73l-4 124l190 88h123z" />
    <glyph glyph-name="two" unicode="2" horiz-adv-x="544" 
d="M487 -20h-473l20 93l95 76q150 121 206 178q67 70 80 129q21 96 -73 96q-58 0 -161 -69l-24 118q114 80 234 80q112 0 162 -67q42 -58 23 -146q-18 -87 -97 -174q-60 -69 -185 -166l-56 -43l5 25h271z" />
    <glyph glyph-name="three" unicode="3" horiz-adv-x="544" 
d="M520 185q-19 -92 -102 -152q-88 -64 -212 -64q-116 0 -188 57l64 123q77 -53 147 -53q56 0 93 30q30 24 37 63q11 49 -23 75q-29 24 -85 24h-76l26 119h75q43 0 78 19q39 22 47 60q7 32 -9 50t-57 18q-60 0 -155 -57l-13 122q101 62 217 62q104 0 153 -55q44 -49 28 -122
q-26 -122 -153 -166l6 27q48 -9 82.5 -59t19.5 -121z" />
    <glyph glyph-name="four" unicode="4" horiz-adv-x="544" 
d="M554 150h-85l-36 -170h-152l36 170h-292l20 96l370 424h164l-84 -397h85zM402 540l34 -12q-12 -18 -67 -89l-146 -166h120l36 171q11 48 23 96z" />
    <glyph glyph-name="five" unicode="5" horiz-adv-x="544" 
d="M527 213q-22 -103 -114 -173.5t-214 -70.5q-109 0 -182 50l63 125q74 -49 143 -49q49 0 90.5 29t51.5 80q23 113 -134 113q-41 0 -117 -10l125 363h368l-27 -130h-247l-35 -100q-9 -1 17 -1q94 0 155 -43q83 -62 57 -183z" />
    <glyph glyph-name="six" unicode="6" horiz-adv-x="544" 
d="M560 220q-22 -101 -102 -173q-86 -78 -198 -78q-122 0 -173 84t-23 214q40 191 182 306q107 87 256 103q40 4 91 4l-28 -128q-51 2 -84 -3q-88 -11 -151 -66q-58 -49 -78 -100h-38q69 67 176 67q97 0 144 -64t26 -166zM398 214q12 56 -7.5 86t-60.5 30q-60 0 -101 -58
q-10 -14 -13 -32q-13 -67 5 -109q18 -40 66 -40q37 0 67 33q33 34 44 90z" />
    <glyph glyph-name="seven" unicode="7" horiz-adv-x="544" 
d="M621 577l-408 -597h-166l391 560h-295l27 130h470z" />
    <glyph glyph-name="eight" unicode="8" horiz-adv-x="544" 
d="M547 181q-21 -99 -111 -159q-83 -53 -186 -53q-98 0 -156 49q-68 55 -49 148q28 129 162 184l-4 -20q-90 48 -67 155q19 90 104 145q76 51 171 51q88 0 141 -45q57 -51 39 -137q-23 -110 -135 -160l4 20q115 -50 87 -178zM438 488q8 37 -8 57t-48 20t-57 -19t-33 -55
q-13 -64 65 -89q67 21 81 86zM386 171q17 80 -77 110q-32 -10 -60 -34q-32 -29 -40 -68q-9 -43 11.5 -68t58.5 -25t68.5 22.5t38.5 62.5z" />
    <glyph glyph-name="nine" unicode="9" horiz-adv-x="544" 
d="M591 385q-36 -167 -141 -275q-114 -120 -285 -136q-52 -5 -104 -3l27 130q48 -6 90 -1q70 7 126 48q72 53 99 123h40q-66 -61 -169 -61q-97 0 -144 62.5t-27 157.5q22 101 104 173q90 78 201 78q118 0 166 -88q44 -79 17 -208zM435 404q15 69 0 111q-14 45 -60 45
q-38 0 -68 -34q-34 -35 -45 -90q-11 -50 7.5 -78.5t56.5 -28.5q61 0 98 47q7 9 11 28z" />
    <glyph glyph-name="colon" unicode=":" 
d="M48 0v700h500v-700h-500zM72 24h452v652h-452v-652z" />
    <glyph glyph-name="semicolon" unicode=";" 
d="M48 0v700h500v-700h-500zM72 24h452v652h-452v-652z" />
    <glyph glyph-name="less" unicode="&#x3c;" 
d="M48 0v700h500v-700h-500zM72 24h452v652h-452v-652z" />
    <glyph glyph-name="equal" unicode="=" horiz-adv-x="621" 
d="M648 313h-566l23 110h566zM605 114h-566l24 110h566z" />
    <glyph glyph-name="greater" unicode="&#x3e;" 
d="M48 0v700h500v-700h-500zM72 24h452v652h-452v-652z" />
    <glyph glyph-name="question" unicode="?" horiz-adv-x="437" 
d="M510 536q-11 -51 -50 -101q-23 -30 -78 -82q-66 -62 -77 -129l-8 -44h-144l4 43q13 94 103 182q78 74 87 116q12 56 -50 57q-48 0 -121 -47l-16 122q89 53 187 53q97 0 140 -53q38 -47 23 -117zM289 60q-8 -38 -39.5 -64.5t-74.5 -26.5q-42 0 -61.5 27.5t-11.5 63.5
q8 38 39.5 65t73.5 27q43 0 62.5 -27t11.5 -65z" />
    <glyph glyph-name="at" unicode="@" horiz-adv-x="763" 
d="M809 399q-25 -116 -98 -188.5t-163 -72.5q-102 0 -84 84h38q-69 -84 -170 -84q-59 0 -86.5 41t-14.5 105q22 102 107 177q93 80 207 80q72 0 129 -32l-76 -196q-12 -29 -16 -49q-7 -32 2 -32q24 -1 55 35q41 48 58 126q21 101 -23 161q-43 61 -143 61q-110 0 -203 -81
q-101 -87 -131 -227q-24 -116 28 -184q48 -63 148 -63q78 0 173 46l11 -88q-109 -50 -218 -50q-138 0 -210 91q-76 94 -45 242q35 165 164 281q137 123 311 123q141 0 209.5 -87t40.5 -219zM526 441q3 -1 -15 -1q-47 0 -93 -43.5t-59 -105.5q-11 -51 24 -51q23 0 56 32.5
t50 75.5z" />
    <glyph glyph-name="A" unicode="A" horiz-adv-x="647" 
d="M619 -20h-166l-21 198h-180l-102 -198h-164l382 714h172zM426 301l-17 151q-3 28 -6 112h39q-12 -27 -53 -111l-80 -152h117z" />
    <glyph glyph-name="B" unicode="B" horiz-adv-x="580" 
d="M581 193q-19 -90 -99 -149q-93 -70 -274 -70q-80 0 -164 11l148 695q94 19 197 19q133 0 193.5 -50.5t41.5 -138.5q-11 -53 -54 -98t-91 -61l5 25q44 -12 77 -57q36 -53 20 -126zM463 499q17 79 -90 79q-42 0 -46 -1l-35 -163h42q53 0 87 23t42 62zM419 196q11 51 -22 76
q-30 23 -91 23h-39l-43 -199q-2 0 41 0q60 0 98 22q44 25 56 78z" />
    <glyph glyph-name="C" unicode="C" horiz-adv-x="599" 
d="M711 664l-62 -127q-72 37 -137 37q-97 0 -165 -58q-77 -64 -102 -181q-24 -113 19.5 -173.5t143.5 -60.5q72 0 159 37l2 -128q-89 -39 -207 -39q-164 0 -239 95q-78 99 -43 264q36 169 164 273q126 101 292 101q109 0 175 -40z" />
    <glyph glyph-name="D" unicode="D" horiz-adv-x="687" 
d="M726 353q-40 -190 -177 -288q-128 -91 -325 -91q-94 0 -180 11l148 696q113 18 215 18q188 0 267 -83q88 -93 52 -263zM561 350q24 111 -20 167.5t-152 56.5q-48 0 -63 -3l-100 -471q-3 0 48 0q112 0 186.5 62.5t100.5 187.5z" />
    <glyph glyph-name="E" unicode="E" horiz-adv-x="521" 
d="M481 -20h-438l152 714h424l-28 -129h-266l-32 -150h251l-27 -129h-251l-38 -177h280z" />
    <glyph glyph-name="F" unicode="F" horiz-adv-x="516" 
d="M589 565h-264l-35 -163h245l-27 -128h-245l-62 -294h-158l152 714h422z" />
    <glyph glyph-name="G" unicode="G" horiz-adv-x="669" 
d="M618 17q-128 -44 -242 -44q-174 0 -252 95q-79 97 -44 263q35 165 164.5 267.5t304.5 102.5q112 0 188 -41l-62 -129q-77 39 -156 39q-101 0 -173 -58q-76 -62 -100 -175t23 -177q43 -58 140 -58q61 0 74 5l32 152h-123l27 125h277z" />
    <glyph glyph-name="H" unicode="H" horiz-adv-x="677" 
d="M601 -20h-158l64 304h-242l-64 -304h-158l152 714h158l-59 -275h242l59 275h158z" />
    <glyph glyph-name="I" unicode="I" horiz-adv-x="277" 
d="M201 -20h-158l152 714h158z" />
    <glyph glyph-name="J" unicode="J" horiz-adv-x="401" 
d="M385 229q-56 -260 -293 -260q-63 0 -118 25l47 127q55 -21 88 -21q45 0 69 23q33 31 50 111l98 460h158z" />
    <glyph glyph-name="K" unicode="K" horiz-adv-x="598" 
d="M601 -20h-183l-122 298l-41 -39l-55 -259h-157l152 714h157l-68 -316h-37q26 30 58 63l244 253h193l-315 -308z" />
    <glyph glyph-name="L" unicode="L" horiz-adv-x="501" 
d="M476 -20h-433l152 714h158l-124 -583h275z" />
    <glyph glyph-name="M" unicode="M" horiz-adv-x="830" 
d="M771 -20h-155l49 301q31 192 47 265h42q-50 -104 -126 -240l-178 -320h-120l-34 315q-14 137 -15 245h43q-32 -133 -68 -270l-80 -296h-151l199 714h182l36 -307q13 -109 14 -217h-38q52 113 110 217l172 307h182z" />
    <glyph glyph-name="N" unicode="N" horiz-adv-x="681" 
d="M606 -20h-152l-124 325q-48 128 -67 211l40 13q-15 -100 -52 -273l-58 -276h-150l152 714h161l123 -319q43 -111 64 -203l-41 -19q11 103 47 270l58 271h151z" />
    <glyph glyph-name="O" unicode="O" horiz-adv-x="707" 
d="M745 344q-34 -159 -137 -261q-116 -114 -279 -114q-154 0 -221 112q-60 100 -27 251q32 154 138 258q119 115 276 115q155 0 222 -111q60 -99 28 -250zM579 340q20 95 -7 163q-30 75 -108 75q-81 0 -142 -76q-57 -68 -78 -167q-20 -96 7 -164q30 -75 109 -75q81 0 143 76
q55 68 76 168z" />
    <glyph glyph-name="P" unicode="P" horiz-adv-x="565" 
d="M630 478q-22 -100 -95 -161q-96 -81 -244 -81q-43 0 -37 -1l-54 -255h-157l149 701q103 18 205 18q139 0 198 -61q56 -60 35 -160zM472 473q10 51 -15 76.5t-83 25.5q-42 0 -48 -1l-45 -213h38q61 0 101 29t52 83z" />
    <glyph glyph-name="Q" unicode="Q" horiz-adv-x="713" 
d="M683 -2l-73 -128q-139 40 -262 91q-20 7 -32 8q-133 7 -199 100q-71 99 -37 262q35 164 150 269t267 105q150 0 218 -107q63 -99 30 -254q-26 -125 -97 -213q-70 -87 -150 -115l5 23q64 -19 180 -41zM580 340q21 96 -7 164q-29 74 -107 74q-81 0 -142 -76
q-58 -69 -79 -168q-20 -96 7 -164q30 -74 109 -74q81 0 143 76q55 68 76 168z" />
    <glyph glyph-name="R" unicode="R" horiz-adv-x="586" 
d="M561 -20h-166q-15 45 -16 177q1 63 -17 84.5t-60 21.5h-42l-60 -283h-157l149 701q100 18 204 18q148 0 203 -59q53 -55 34 -148q-15 -68 -67 -119q-47 -48 -95 -64l5 24q60 -25 64 -143q3 -84 4 -116q3 -51 17 -94zM472 481q20 95 -92 96q-48 0 -54 -1l-41 -193h51
q53 0 90 26.5t46 71.5z" />
    <glyph glyph-name="S" unicode="S" horiz-adv-x="524" 
d="M524 189q-20 -93 -98 -153q-88 -66 -217 -66q-118 0 -192 54l65 132q83 -56 160 -56q51 0 82 21.5t39 59.5q8 34 -10.5 57.5t-73.5 45.5q-177 71 -147 211q20 91 102 150t196 59q99 0 171 -43l-66 -130q-71 44 -136 44q-46 0 -74 -21q-25 -19 -31 -48q-7 -32 13 -52
q19 -22 80 -48q85 -37 119 -89t18 -128z" />
    <glyph glyph-name="T" unicode="T" horiz-adv-x="529" 
d="M644 563h-193l-124 -583h-159l124 583h-192l28 131h544z" />
    <glyph glyph-name="U" unicode="U" horiz-adv-x="671" 
d="M660 283q-33 -156 -127 -236q-91 -78 -223 -78q-271 0 -204 312l88 413h158l-90 -419q-19 -93 7 -140q21 -38 73 -38q121 0 158 178l90 419h158z" />
    <glyph glyph-name="V" unicode="V" horiz-adv-x="607" 
d="M754 694l-396 -714h-160l-76 714h170l27 -332q15 -159 15 -232h-40q34 79 116 232l177 332h167z" />
    <glyph glyph-name="W" unicode="W" horiz-adv-x="878" 
d="M1016 694l-345 -714h-155l-5 345q-2 127 4 199h43q-25 -70 -86 -200l-162 -344h-156l-21 714h166l1 -336q0 -112 -4 -217h-42q24 64 95 219l153 334h154l3 -338q2 -131 -5 -213h-43q32 85 84 200l8 18l151 333h162z" />
    <glyph glyph-name="X" unicode="X" horiz-adv-x="611" 
d="M587 -20h-180l-51 153q-15 44 -38 116h32q-2 -5 -84 -116l-109 -153h-179l287 362l-127 352h178l51 -158q19 -62 29 -101h-33q28 41 72 101l119 158h178l-282 -349z" />
    <glyph glyph-name="Y" unicode="Y" horiz-adv-x="589" 
d="M735 694l-322 -413l-64 -301h-158l63 298l-133 416h178l49 -190q22 -82 30 -124h-34q23 41 81 124l132 190h178z" />
    <glyph glyph-name="Z" unicode="Z" horiz-adv-x="573" 
d="M539 -20h-541l18 86l437 498h-301l28 130h506l-20 -90l-432 -494h332z" />
    <glyph glyph-name="bracketleft" unicode="[" 
d="M48 0v700h500v-700h-500zM72 24h452v652h-452v-652z" />
    <glyph glyph-name="backslash" unicode="\" horiz-adv-x="373" 
d="M356 -60h-130l-105 765h131z" />
    <glyph glyph-name="bracketright" unicode="]" 
d="M48 0v700h500v-700h-500zM72 24h452v652h-452v-652z" />
    <glyph glyph-name="asciicircum" unicode="^" 
d="M48 0v700h500v-700h-500zM72 24h452v652h-452v-652z" />
    <glyph glyph-name="underscore" unicode="_" 
d="M48 0v700h500v-700h-500zM72 24h452v652h-452v-652z" />
    <glyph glyph-name="grave" unicode="`" 
d="M48 0v700h500v-700h-500zM72 24h452v652h-452v-652z" />
    <glyph glyph-name="a" unicode="a" horiz-adv-x="518" 
d="M456 -20h-147l4 56h33q-65 -67 -171 -67q-81 0 -120 52q-33 45 -19 111q21 99 115 151t212 51l-2 -11q16 76 -60 76q-63 0 -153 -51l-11 114q100 54 207 54q216 0 169 -221l-38 -179q-16 -72 -19 -136zM330 167l12 55q-129 3 -146 -78q-7 -31 4.5 -43.5t32.5 -12.5
q26 0 53.5 17.5t38.5 45.5q4 7 5 16z" />
    <glyph glyph-name="b" unicode="b" horiz-adv-x="593" 
d="M610 250q-27 -129 -117 -208q-84 -73 -183 -73q-120 0 -150 86h37l-22 -75h-141q22 80 37 151l127 598h158l-63 -294h-39q66 81 189 81q101 0 146.5 -74.5t20.5 -191.5zM449 246q14 66 -6 106q-19 39 -65 39q-30 0 -60 -21t-47 -58q-7 -15 -10 -30l-18 -85
q-9 -44 11.5 -73t58.5 -29q47 0 84 38.5t52 112.5z" />
    <glyph glyph-name="c" unicode="c" horiz-adv-x="467" 
d="M546 483l-59 -124q-58 32 -104 32q-58 0 -102 -40.5t-58 -107.5q-15 -70 13.5 -108.5t83.5 -38.5q44 0 125 31l-4 -122q-80 -35 -168 -35q-123 0 -180 74t-31 194q25 120 119.5 199t226.5 79q75 0 138 -33z" />
    <glyph glyph-name="d" unicode="d" horiz-adv-x="590" 
d="M522 -20h-146l11 78h38q-65 -89 -192 -89q-101 0 -148.5 76t-23.5 192q27 124 111 202q85 77 187 77q114 0 139 -66h-39l59 279h158l-127 -598q-15 -71 -27 -151zM407 205l17 81q4 19 4 30q-1 34 -20.5 55t-50.5 21q-46 0 -83.5 -40.5t-52.5 -110.5q-14 -67 7 -107
q19 -38 64 -38q39 0 71 31q34 32 44 78z" />
    <glyph glyph-name="e" unicode="e" horiz-adv-x="526" 
d="M550 266q-7 -30 -23 -69h-319q-8 -44 23 -76q27 -28 82 -28q66 0 157 32l1 -115q-99 -39 -199 -39q-125 0 -180.5 73t-30.5 192q25 116 105 194q90 87 210 87t162 -89q32 -66 12 -162zM407 314q6 24 -7 54q-14 34 -57 34q-39 0 -72 -34q-30 -31 -37 -54h173z" />
    <glyph glyph-name="f" unicode="f" horiz-adv-x="332" 
d="M515 719l-43 -127q-47 21 -70 21q-60 0 -81 -102l-1 -5h109l-26 -121h-108l-86 -405h-158l86 405h-66l26 121h66v2q25 118 101 179q67 53 152 53q49 0 99 -21z" />
    <glyph glyph-name="g" unicode="g" horiz-adv-x="584" 
d="M628 506q-22 -80 -39 -158l-59 -278q-35 -164 -126 -233q-85 -65 -212 -65q-109 0 -181 50l65 125q73 -51 142 -51q118 0 146 134l6 27h39q-61 -74 -175 -74q-101 0 -148 74t-24 183q26 123 114 201q84 75 185 75q115 0 141 -77h-38l19 67h145zM401 208l18 86
q10 43 -8.5 71t-55.5 28q-41 0 -79.5 -38.5t-53.5 -110.5q-14 -65 7 -103q19 -37 64 -37q26 0 52 16.5t43 48.5q8 15 13 39z" />
    <glyph glyph-name="h" unicode="h" horiz-adv-x="581" 
d="M511 -20h-158l63 297q23 111 -50 111q-56 0 -91 -61q-7 -13 -12 -34l-66 -313h-158l159 749h158l-62 -292h-38q68 79 178 79q79 0 118 -50q49 -62 24 -177z" />
    <glyph glyph-name="i" unicode="i" horiz-adv-x="269" 
d="M347 631q-8 -36 -39 -60.5t-72 -24.5q-39 0 -58.5 25t-12.5 60q8 35 39 59.5t70 24.5t60 -24.5t13 -59.5zM197 -20h-158l112 526h158z" />
    <glyph glyph-name="j" unicode="j" horiz-adv-x="280" 
d="M360 631q-8 -36 -39 -60.5t-71 -24.5t-59.5 25t-12.5 60q8 35 39 59.5t71 24.5t60 -24.5t12 -59.5zM224 47q-32 -150 -113 -215q-75 -63 -215 -64l11 123q79 6 105 29q33 30 61 161l91 425h158z" />
    <glyph glyph-name="k" unicode="k" horiz-adv-x="528" 
d="M535 -20h-190l-91 203l-18 -17l-39 -186h-158l159 749h158l-94 -440h-38q18 22 43 46l169 171h191l-245 -221z" />
    <glyph glyph-name="l" unicode="l" horiz-adv-x="269" 
d="M197 -20h-158l159 749h158z" />
    <glyph glyph-name="m" unicode="m" horiz-adv-x="854" 
d="M785 -20h-156l62 293q24 115 -43 115q-30 0 -56.5 -26.5t-34.5 -65.5l-67 -316h-156l65 307q11 50 -1.5 75.5t-41.5 25.5q-30 0 -58.5 -29t-36.5 -69l-66 -310h-156l78 367q13 64 29 159h143l-11 -73h-37q68 83 182 83q117 0 132 -91h-32q26 30 69 56q58 35 123 35
q77 0 116 -52q44 -60 19 -176z" />
    <glyph glyph-name="n" unicode="n" horiz-adv-x="581" 
d="M511 -20h-158l63 299q23 109 -50 109q-35 0 -65 -28.5t-39 -70.5l-65 -309h-158l78 367q13 64 29 159h145l-11 -75h-37q21 28 68 54q58 31 120 31q80 0 121 -51q49 -60 25 -174z" />
    <glyph glyph-name="o" unicode="o" horiz-adv-x="572" 
d="M590 247q-26 -118 -111 -196q-92 -82 -216 -82q-120 0 -172.5 78t-28.5 192q25 119 113.5 198t212.5 79q119 0 175 -79q51 -75 27 -190zM427 244q13 63 -4 107q-18 46 -65 46q-49 0 -85 -46q-37 -44 -51 -109q-13 -63 5 -107q18 -46 65 -46q46 0 84 47q37 45 51 108z" />
    <glyph glyph-name="p" unicode="p" horiz-adv-x="593" 
d="M610 249q-28 -130 -116 -208q-84 -72 -185 -72q-112 0 -139 69h39l-54 -256h-158l115 544q17 78 34 180h144l-11 -77h-36q73 87 198 87q99 0 146.5 -75t22.5 -192zM449 245q14 66 -6 107q-19 38 -64 38q-30 0 -60.5 -21t-46.5 -59q-9 -18 -11 -29l-17 -81
q-10 -47 10 -76.5t59 -29.5q47 0 84 39.5t52 111.5z" />
    <glyph glyph-name="q" unicode="q" horiz-adv-x="589" 
d="M634 506q-27 -103 -39 -159l-120 -565h-158l56 267h39q-64 -80 -183 -80q-97 0 -145 75t-23 191q28 132 119 210q83 71 180 71q115 0 140 -77h-38l19 67h153zM406 200l18 88q10 44 -9.5 73.5t-57.5 29.5q-46 0 -83 -40t-52 -110q-14 -68 5 -107t65 -39q28 0 55.5 18
t45.5 54q9 16 13 33z" />
    <glyph glyph-name="r" unicode="r" horiz-adv-x="364" 
d="M428 366q-43 8 -58 8q-43 0 -73 -33q-31 -33 -42 -86l-58 -275h-158l76 353q18 84 32 173h144l-16 -93h-40q22 38 71 72q51 31 102 31q17 0 50 -6z" />
    <glyph glyph-name="s" unicode="s" horiz-adv-x="427" 
d="M420 140q-16 -76 -83.5 -123t-165.5 -47q-91 0 -160 45l61 123q70 -49 125 -49q58 0 67 41q4 20 -6.5 33t-47.5 28q-134 53 -112 158q15 71 80.5 119t155.5 48q80 0 142 -41l-61 -119q-61 42 -105 42q-23 0 -37.5 -10t-17.5 -27q-4 -17 7 -27q11 -13 52 -29
q130 -53 106 -165z" />
    <glyph glyph-name="t" unicode="t" horiz-adv-x="364" 
d="M420 385h-119l-46 -216q-15 -70 23 -70q25 0 75 12l-22 -121q-56 -20 -113 -20q-76 0 -109 46t-12 144l48 225h-71l26 121h71l17 83l166 47l-27 -130h119z" />
    <glyph glyph-name="u" unicode="u" horiz-adv-x="578" 
d="M510 -20h-144l9 74h37q-69 -85 -188 -85q-84 0 -123 53q-43 61 -18 178l65 306h158l-62 -288q-25 -120 46 -120q54 0 88 56q9 15 13 35l68 317h158l-78 -366q-15 -69 -29 -160z" />
    <glyph glyph-name="v" unicode="v" horiz-adv-x="523" 
d="M621 506l-312 -526h-142l-80 526h168l30 -272q7 -65 9 -108h-39q17 37 55 108l145 272h166z" />
    <glyph glyph-name="w" unicode="w" horiz-adv-x="765" 
d="M859 506l-277 -526h-138l-19 227q-8 79 -6 141h41q-25 -64 -67 -142l-120 -226h-139l-43 526h164l6 -247q2 -83 0 -140h-41q18 45 67 139l126 248h128l18 -243q7 -83 5 -144h-40q21 58 61 144l116 243h158z" />
    <glyph glyph-name="x" unicode="x" horiz-adv-x="515" 
d="M501 -20h-178l-46 111q-15 37 -25 72h31q-13 -17 -55 -69l-91 -114h-176l237 268l-119 258h177l45 -108q12 -29 25 -66h-30q22 31 52 67l87 107h176l-229 -254z" />
    <glyph glyph-name="y" unicode="y" horiz-adv-x="513" 
d="M615 506l-209 -362q-142 -244 -238 -316q-74 -56 -172 -71l-9 127q57 15 94 39q45 30 78 78q9 12 9 15q1 4 -1 17l-85 473h172l36 -286q5 -37 8 -81h-38q8 16 40 81l147 286h168z" />
    <glyph glyph-name="z" unicode="z" horiz-adv-x="459" 
d="M436 -20h-446l18 88l254 260q23 25 78 75l-5 -24h-241l27 127h422l-20 -92l-248 -256q-41 -42 -78 -75l5 24h261z" />
    <glyph glyph-name="braceleft" unicode="{" 
d="M48 0v700h500v-700h-500zM72 24h452v652h-452v-652z" />
    <glyph glyph-name="bar" unicode="|" 
d="M48 0v700h500v-700h-500zM72 24h452v652h-452v-652z" />
    <glyph glyph-name="braceright" unicode="}" 
d="M48 0v700h500v-700h-500zM72 24h452v652h-452v-652z" />
    <glyph glyph-name="asciitilde" unicode="~" 
d="M48 0v700h500v-700h-500zM72 24h452v652h-452v-652z" />
    <glyph glyph-name="uni00A0" unicode="&#xa0;" horiz-adv-x="236" 
 />
    <glyph glyph-name="exclamdown" unicode="&#xa1;" 
d="M48 0v700h500v-700h-500zM72 24h452v652h-452v-652z" />
    <glyph glyph-name="cent" unicode="&#xa2;" 
d="M48 0v700h500v-700h-500zM72 24h452v652h-452v-652z" />
    <glyph glyph-name="sterling" unicode="&#xa3;" 
d="M48 0v700h500v-700h-500zM72 24h452v652h-452v-652z" />
    <glyph glyph-name="currency" unicode="&#xa4;" 
d="M48 0v700h500v-700h-500zM72 24h452v652h-452v-652z" />
    <glyph glyph-name="yen" unicode="&#xa5;" 
d="M48 0v700h500v-700h-500zM72 24h452v652h-452v-652z" />
    <glyph glyph-name="brokenbar" unicode="&#xa6;" 
d="M48 0v700h500v-700h-500zM72 24h452v652h-452v-652z" />
    <glyph glyph-name="section" unicode="&#xa7;" 
d="M48 0v700h500v-700h-500zM72 24h452v652h-452v-652z" />
    <glyph glyph-name="dieresis" unicode="&#xa8;" 
d="M48 0v700h500v-700h-500zM72 24h452v652h-452v-652z" />
    <glyph glyph-name="copyright" unicode="&#xa9;" 
d="M48 0v700h500v-700h-500zM72 24h452v652h-452v-652z" />
    <glyph glyph-name="ordfeminine" unicode="&#xaa;" 
d="M48 0v700h500v-700h-500zM72 24h452v652h-452v-652z" />
    <glyph glyph-name="guillemotleft" unicode="&#xab;" 
d="M48 0v700h500v-700h-500zM72 24h452v652h-452v-652z" />
    <glyph glyph-name="logicalnot" unicode="&#xac;" 
d="M48 0v700h500v-700h-500zM72 24h452v652h-452v-652z" />
    <glyph glyph-name="uni00AD" unicode="&#xad;" 
d="M48 0v700h500v-700h-500zM72 24h452v652h-452v-652z" />
    <glyph glyph-name="registered" unicode="&#xae;" 
d="M48 0v700h500v-700h-500zM72 24h452v652h-452v-652z" />
    <glyph glyph-name="macron" unicode="&#xaf;" 
d="M48 0v700h500v-700h-500zM72 24h452v652h-452v-652z" />
    <glyph glyph-name="degree" unicode="&#xb0;" 
d="M48 0v700h500v-700h-500zM72 24h452v652h-452v-652z" />
    <glyph glyph-name="plusminus" unicode="&#xb1;" 
d="M48 0v700h500v-700h-500zM72 24h452v652h-452v-652z" />
    <glyph glyph-name="uni00B2" unicode="&#xb2;" 
d="M48 0v700h500v-700h-500zM72 24h452v652h-452v-652z" />
    <glyph glyph-name="uni00B3" unicode="&#xb3;" 
d="M48 0v700h500v-700h-500zM72 24h452v652h-452v-652z" />
    <glyph glyph-name="acute" unicode="&#xb4;" 
d="M48 0v700h500v-700h-500zM72 24h452v652h-452v-652z" />
    <glyph glyph-name="mu" unicode="&#xb5;" 
d="M48 0v700h500v-700h-500zM72 24h452v652h-452v-652z" />
    <glyph glyph-name="paragraph" unicode="&#xb6;" 
d="M48 0v700h500v-700h-500zM72 24h452v652h-452v-652z" />
    <glyph glyph-name="periodcentered" unicode="&#xb7;" 
d="M48 0v700h500v-700h-500zM72 24h452v652h-452v-652z" />
    <glyph glyph-name="cedilla" unicode="&#xb8;" 
d="M48 0v700h500v-700h-500zM72 24h452v652h-452v-652z" />
    <glyph glyph-name="uni00B9" unicode="&#xb9;" 
d="M48 0v700h500v-700h-500zM72 24h452v652h-452v-652z" />
    <glyph glyph-name="ordmasculine" unicode="&#xba;" 
d="M48 0v700h500v-700h-500zM72 24h452v652h-452v-652z" />
    <glyph glyph-name="guillemotright" unicode="&#xbb;" 
d="M48 0v700h500v-700h-500zM72 24h452v652h-452v-652z" />
    <glyph glyph-name="onequarter" unicode="&#xbc;" 
d="M48 0v700h500v-700h-500zM72 24h452v652h-452v-652z" />
    <glyph glyph-name="onehalf" unicode="&#xbd;" 
d="M48 0v700h500v-700h-500zM72 24h452v652h-452v-652z" />
    <glyph glyph-name="threequarters" unicode="&#xbe;" 
d="M48 0v700h500v-700h-500zM72 24h452v652h-452v-652z" />
    <glyph glyph-name="questiondown" unicode="&#xbf;" 
d="M48 0v700h500v-700h-500zM72 24h452v652h-452v-652z" />
    <glyph glyph-name="Agrave" unicode="&#xc0;" 
d="M48 0v700h500v-700h-500zM72 24h452v652h-452v-652z" />
    <glyph glyph-name="Aacute" unicode="&#xc1;" 
d="M48 0v700h500v-700h-500zM72 24h452v652h-452v-652z" />
    <glyph glyph-name="Acircumflex" unicode="&#xc2;" 
d="M48 0v700h500v-700h-500zM72 24h452v652h-452v-652z" />
    <glyph glyph-name="Atilde" unicode="&#xc3;" 
d="M48 0v700h500v-700h-500zM72 24h452v652h-452v-652z" />
    <glyph glyph-name="Adieresis" unicode="&#xc4;" 
d="M48 0v700h500v-700h-500zM72 24h452v652h-452v-652z" />
    <glyph glyph-name="Aring" unicode="&#xc5;" 
d="M48 0v700h500v-700h-500zM72 24h452v652h-452v-652z" />
    <glyph glyph-name="AE" unicode="&#xc6;" 
d="M48 0v700h500v-700h-500zM72 24h452v652h-452v-652z" />
    <glyph glyph-name="Ccedilla" unicode="&#xc7;" 
d="M48 0v700h500v-700h-500zM72 24h452v652h-452v-652z" />
    <glyph glyph-name="Egrave" unicode="&#xc8;" 
d="M48 0v700h500v-700h-500zM72 24h452v652h-452v-652z" />
    <glyph glyph-name="Eacute" unicode="&#xc9;" 
d="M48 0v700h500v-700h-500zM72 24h452v652h-452v-652z" />
    <glyph glyph-name="Ecircumflex" unicode="&#xca;" 
d="M48 0v700h500v-700h-500zM72 24h452v652h-452v-652z" />
    <glyph glyph-name="Edieresis" unicode="&#xcb;" 
d="M48 0v700h500v-700h-500zM72 24h452v652h-452v-652z" />
    <glyph glyph-name="Igrave" unicode="&#xcc;" 
d="M48 0v700h500v-700h-500zM72 24h452v652h-452v-652z" />
    <glyph glyph-name="Iacute" unicode="&#xcd;" 
d="M48 0v700h500v-700h-500zM72 24h452v652h-452v-652z" />
    <glyph glyph-name="Icircumflex" unicode="&#xce;" 
d="M48 0v700h500v-700h-500zM72 24h452v652h-452v-652z" />
    <glyph glyph-name="Idieresis" unicode="&#xcf;" 
d="M48 0v700h500v-700h-500zM72 24h452v652h-452v-652z" />
    <glyph glyph-name="Eth" unicode="&#xd0;" 
d="M48 0v700h500v-700h-500zM72 24h452v652h-452v-652z" />
    <glyph glyph-name="Ntilde" unicode="&#xd1;" 
d="M48 0v700h500v-700h-500zM72 24h452v652h-452v-652z" />
    <glyph glyph-name="Ograve" unicode="&#xd2;" 
d="M48 0v700h500v-700h-500zM72 24h452v652h-452v-652z" />
    <glyph glyph-name="Oacute" unicode="&#xd3;" 
d="M48 0v700h500v-700h-500zM72 24h452v652h-452v-652z" />
    <glyph glyph-name="Ocircumflex" unicode="&#xd4;" 
d="M48 0v700h500v-700h-500zM72 24h452v652h-452v-652z" />
    <glyph glyph-name="Otilde" unicode="&#xd5;" 
d="M48 0v700h500v-700h-500zM72 24h452v652h-452v-652z" />
    <glyph glyph-name="Odieresis" unicode="&#xd6;" 
d="M48 0v700h500v-700h-500zM72 24h452v652h-452v-652z" />
    <glyph glyph-name="multiply" unicode="&#xd7;" 
d="M48 0v700h500v-700h-500zM72 24h452v652h-452v-652z" />
    <glyph glyph-name="Oslash" unicode="&#xd8;" 
d="M48 0v700h500v-700h-500zM72 24h452v652h-452v-652z" />
    <glyph glyph-name="Ugrave" unicode="&#xd9;" 
d="M48 0v700h500v-700h-500zM72 24h452v652h-452v-652z" />
    <glyph glyph-name="Uacute" unicode="&#xda;" 
d="M48 0v700h500v-700h-500zM72 24h452v652h-452v-652z" />
    <glyph glyph-name="Ucircumflex" unicode="&#xdb;" 
d="M48 0v700h500v-700h-500zM72 24h452v652h-452v-652z" />
    <glyph glyph-name="Udieresis" unicode="&#xdc;" 
d="M48 0v700h500v-700h-500zM72 24h452v652h-452v-652z" />
    <glyph glyph-name="Yacute" unicode="&#xdd;" 
d="M48 0v700h500v-700h-500zM72 24h452v652h-452v-652z" />
    <glyph glyph-name="Thorn" unicode="&#xde;" 
d="M48 0v700h500v-700h-500zM72 24h452v652h-452v-652z" />
    <glyph glyph-name="germandbls" unicode="&#xdf;" 
d="M48 0v700h500v-700h-500zM72 24h452v652h-452v-652z" />
    <glyph glyph-name="agrave" unicode="&#xe0;" 
d="M48 0v700h500v-700h-500zM72 24h452v652h-452v-652z" />
    <glyph glyph-name="aacute" unicode="&#xe1;" 
d="M48 0v700h500v-700h-500zM72 24h452v652h-452v-652z" />
    <glyph glyph-name="acircumflex" unicode="&#xe2;" 
d="M48 0v700h500v-700h-500zM72 24h452v652h-452v-652z" />
    <glyph glyph-name="atilde" unicode="&#xe3;" 
d="M48 0v700h500v-700h-500zM72 24h452v652h-452v-652z" />
    <glyph glyph-name="adieresis" unicode="&#xe4;" 
d="M48 0v700h500v-700h-500zM72 24h452v652h-452v-652z" />
    <glyph glyph-name="aring" unicode="&#xe5;" 
d="M48 0v700h500v-700h-500zM72 24h452v652h-452v-652z" />
    <glyph glyph-name="ae" unicode="&#xe6;" 
d="M48 0v700h500v-700h-500zM72 24h452v652h-452v-652z" />
    <glyph glyph-name="ccedilla" unicode="&#xe7;" 
d="M48 0v700h500v-700h-500zM72 24h452v652h-452v-652z" />
    <glyph glyph-name="egrave" unicode="&#xe8;" 
d="M48 0v700h500v-700h-500zM72 24h452v652h-452v-652z" />
    <glyph glyph-name="eacute" unicode="&#xe9;" 
d="M48 0v700h500v-700h-500zM72 24h452v652h-452v-652z" />
    <glyph glyph-name="ecircumflex" unicode="&#xea;" 
d="M48 0v700h500v-700h-500zM72 24h452v652h-452v-652z" />
    <glyph glyph-name="edieresis" unicode="&#xeb;" 
d="M48 0v700h500v-700h-500zM72 24h452v652h-452v-652z" />
    <glyph glyph-name="igrave" unicode="&#xec;" 
d="M48 0v700h500v-700h-500zM72 24h452v652h-452v-652z" />
    <glyph glyph-name="iacute" unicode="&#xed;" 
d="M48 0v700h500v-700h-500zM72 24h452v652h-452v-652z" />
    <glyph glyph-name="icircumflex" unicode="&#xee;" 
d="M48 0v700h500v-700h-500zM72 24h452v652h-452v-652z" />
    <glyph glyph-name="idieresis" unicode="&#xef;" 
d="M48 0v700h500v-700h-500zM72 24h452v652h-452v-652z" />
    <glyph glyph-name="eth" unicode="&#xf0;" 
d="M48 0v700h500v-700h-500zM72 24h452v652h-452v-652z" />
    <glyph glyph-name="ntilde" unicode="&#xf1;" 
d="M48 0v700h500v-700h-500zM72 24h452v652h-452v-652z" />
    <glyph glyph-name="ograve" unicode="&#xf2;" 
d="M48 0v700h500v-700h-500zM72 24h452v652h-452v-652z" />
    <glyph glyph-name="oacute" unicode="&#xf3;" 
d="M48 0v700h500v-700h-500zM72 24h452v652h-452v-652z" />
    <glyph glyph-name="ocircumflex" unicode="&#xf4;" 
d="M48 0v700h500v-700h-500zM72 24h452v652h-452v-652z" />
    <glyph glyph-name="otilde" unicode="&#xf5;" 
d="M48 0v700h500v-700h-500zM72 24h452v652h-452v-652z" />
    <glyph glyph-name="odieresis" unicode="&#xf6;" 
d="M48 0v700h500v-700h-500zM72 24h452v652h-452v-652z" />
    <glyph glyph-name="divide" unicode="&#xf7;" 
d="M48 0v700h500v-700h-500zM72 24h452v652h-452v-652z" />
    <glyph glyph-name="oslash" unicode="&#xf8;" 
d="M48 0v700h500v-700h-500zM72 24h452v652h-452v-652z" />
    <glyph glyph-name="ugrave" unicode="&#xf9;" 
d="M48 0v700h500v-700h-500zM72 24h452v652h-452v-652z" />
    <glyph glyph-name="uacute" unicode="&#xfa;" 
d="M48 0v700h500v-700h-500zM72 24h452v652h-452v-652z" />
    <glyph glyph-name="ucircumflex" unicode="&#xfb;" 
d="M48 0v700h500v-700h-500zM72 24h452v652h-452v-652z" />
    <glyph glyph-name="udieresis" unicode="&#xfc;" 
d="M48 0v700h500v-700h-500zM72 24h452v652h-452v-652z" />
    <glyph glyph-name="yacute" unicode="&#xfd;" 
d="M48 0v700h500v-700h-500zM72 24h452v652h-452v-652z" />
    <glyph glyph-name="thorn" unicode="&#xfe;" 
d="M48 0v700h500v-700h-500zM72 24h452v652h-452v-652z" />
    <glyph glyph-name="ydieresis" unicode="&#xff;" 
d="M48 0v700h500v-700h-500zM72 24h452v652h-452v-652z" />
    <glyph glyph-name="Amacron" unicode="&#x100;" 
d="M48 0v700h500v-700h-500zM72 24h452v652h-452v-652z" />
    <glyph glyph-name="amacron" unicode="&#x101;" 
d="M48 0v700h500v-700h-500zM72 24h452v652h-452v-652z" />
    <glyph glyph-name="Abreve" unicode="&#x102;" 
d="M48 0v700h500v-700h-500zM72 24h452v652h-452v-652z" />
    <glyph glyph-name="abreve" unicode="&#x103;" 
d="M48 0v700h500v-700h-500zM72 24h452v652h-452v-652z" />
    <glyph glyph-name="Aogonek" unicode="&#x104;" 
d="M48 0v700h500v-700h-500zM72 24h452v652h-452v-652z" />
    <glyph glyph-name="aogonek" unicode="&#x105;" 
d="M48 0v700h500v-700h-500zM72 24h452v652h-452v-652z" />
    <glyph glyph-name="Cacute" unicode="&#x106;" 
d="M48 0v700h500v-700h-500zM72 24h452v652h-452v-652z" />
    <glyph glyph-name="cacute" unicode="&#x107;" 
d="M48 0v700h500v-700h-500zM72 24h452v652h-452v-652z" />
    <glyph glyph-name="Ccircumflex" unicode="&#x108;" 
d="M48 0v700h500v-700h-500zM72 24h452v652h-452v-652z" />
    <glyph glyph-name="ccircumflex" unicode="&#x109;" 
d="M48 0v700h500v-700h-500zM72 24h452v652h-452v-652z" />
    <glyph glyph-name="Cdotaccent" unicode="&#x10a;" 
d="M48 0v700h500v-700h-500zM72 24h452v652h-452v-652z" />
    <glyph glyph-name="cdotaccent" unicode="&#x10b;" 
d="M48 0v700h500v-700h-500zM72 24h452v652h-452v-652z" />
    <glyph glyph-name="Ccaron" unicode="&#x10c;" 
d="M48 0v700h500v-700h-500zM72 24h452v652h-452v-652z" />
    <glyph glyph-name="ccaron" unicode="&#x10d;" 
d="M48 0v700h500v-700h-500zM72 24h452v652h-452v-652z" />
    <glyph glyph-name="Dcaron" unicode="&#x10e;" 
d="M48 0v700h500v-700h-500zM72 24h452v652h-452v-652z" />
    <glyph glyph-name="dcaron" unicode="&#x10f;" 
d="M48 0v700h500v-700h-500zM72 24h452v652h-452v-652z" />
    <glyph glyph-name="Dcroat" unicode="&#x110;" 
d="M48 0v700h500v-700h-500zM72 24h452v652h-452v-652z" />
    <glyph glyph-name="dcroat" unicode="&#x111;" 
d="M48 0v700h500v-700h-500zM72 24h452v652h-452v-652z" />
    <glyph glyph-name="Emacron" unicode="&#x112;" 
d="M48 0v700h500v-700h-500zM72 24h452v652h-452v-652z" />
    <glyph glyph-name="emacron" unicode="&#x113;" 
d="M48 0v700h500v-700h-500zM72 24h452v652h-452v-652z" />
    <glyph glyph-name="Ebreve" unicode="&#x114;" 
d="M48 0v700h500v-700h-500zM72 24h452v652h-452v-652z" />
    <glyph glyph-name="ebreve" unicode="&#x115;" 
d="M48 0v700h500v-700h-500zM72 24h452v652h-452v-652z" />
    <glyph glyph-name="Edotaccent" unicode="&#x116;" 
d="M48 0v700h500v-700h-500zM72 24h452v652h-452v-652z" />
    <glyph glyph-name="edotaccent" unicode="&#x117;" 
d="M48 0v700h500v-700h-500zM72 24h452v652h-452v-652z" />
    <glyph glyph-name="Eogonek" unicode="&#x118;" 
d="M48 0v700h500v-700h-500zM72 24h452v652h-452v-652z" />
    <glyph glyph-name="eogonek" unicode="&#x119;" 
d="M48 0v700h500v-700h-500zM72 24h452v652h-452v-652z" />
    <glyph glyph-name="Ecaron" unicode="&#x11a;" 
d="M48 0v700h500v-700h-500zM72 24h452v652h-452v-652z" />
    <glyph glyph-name="ecaron" unicode="&#x11b;" 
d="M48 0v700h500v-700h-500zM72 24h452v652h-452v-652z" />
    <glyph glyph-name="Gcircumflex" unicode="&#x11c;" 
d="M48 0v700h500v-700h-500zM72 24h452v652h-452v-652z" />
    <glyph glyph-name="gcircumflex" unicode="&#x11d;" 
d="M48 0v700h500v-700h-500zM72 24h452v652h-452v-652z" />
    <glyph glyph-name="Gbreve" unicode="&#x11e;" 
d="M48 0v700h500v-700h-500zM72 24h452v652h-452v-652z" />
    <glyph glyph-name="gbreve" unicode="&#x11f;" 
d="M48 0v700h500v-700h-500zM72 24h452v652h-452v-652z" />
    <glyph glyph-name="Gdotaccent" unicode="&#x120;" 
d="M48 0v700h500v-700h-500zM72 24h452v652h-452v-652z" />
    <glyph glyph-name="gdotaccent" unicode="&#x121;" 
d="M48 0v700h500v-700h-500zM72 24h452v652h-452v-652z" />
    <glyph glyph-name="uni0122" unicode="&#x122;" 
d="M48 0v700h500v-700h-500zM72 24h452v652h-452v-652z" />
    <glyph glyph-name="uni0123" unicode="&#x123;" 
d="M48 0v700h500v-700h-500zM72 24h452v652h-452v-652z" />
    <glyph glyph-name="Hcircumflex" unicode="&#x124;" 
d="M48 0v700h500v-700h-500zM72 24h452v652h-452v-652z" />
    <glyph glyph-name="hcircumflex" unicode="&#x125;" 
d="M48 0v700h500v-700h-500zM72 24h452v652h-452v-652z" />
    <glyph glyph-name="Hbar" unicode="&#x126;" 
d="M48 0v700h500v-700h-500zM72 24h452v652h-452v-652z" />
    <glyph glyph-name="hbar" unicode="&#x127;" 
d="M48 0v700h500v-700h-500zM72 24h452v652h-452v-652z" />
    <glyph glyph-name="Itilde" unicode="&#x128;" 
d="M48 0v700h500v-700h-500zM72 24h452v652h-452v-652z" />
    <glyph glyph-name="itilde" unicode="&#x129;" 
d="M48 0v700h500v-700h-500zM72 24h452v652h-452v-652z" />
    <glyph glyph-name="Imacron" unicode="&#x12a;" 
d="M48 0v700h500v-700h-500zM72 24h452v652h-452v-652z" />
    <glyph glyph-name="imacron" unicode="&#x12b;" 
d="M48 0v700h500v-700h-500zM72 24h452v652h-452v-652z" />
    <glyph glyph-name="Ibreve" unicode="&#x12c;" 
d="M48 0v700h500v-700h-500zM72 24h452v652h-452v-652z" />
    <glyph glyph-name="ibreve" unicode="&#x12d;" 
d="M48 0v700h500v-700h-500zM72 24h452v652h-452v-652z" />
    <glyph glyph-name="Iogonek" unicode="&#x12e;" 
d="M48 0v700h500v-700h-500zM72 24h452v652h-452v-652z" />
    <glyph glyph-name="iogonek" unicode="&#x12f;" 
d="M48 0v700h500v-700h-500zM72 24h452v652h-452v-652z" />
    <glyph glyph-name="Idotaccent" unicode="&#x130;" 
d="M48 0v700h500v-700h-500zM72 24h452v652h-452v-652z" />
    <glyph glyph-name="dotlessi" unicode="&#x131;" 
d="M48 0v700h500v-700h-500zM72 24h452v652h-452v-652z" />
    <glyph glyph-name="IJ" unicode="&#x132;" 
d="M48 0v700h500v-700h-500zM72 24h452v652h-452v-652z" />
    <glyph glyph-name="ij" unicode="&#x133;" 
d="M48 0v700h500v-700h-500zM72 24h452v652h-452v-652z" />
    <glyph glyph-name="Jcircumflex" unicode="&#x134;" 
d="M48 0v700h500v-700h-500zM72 24h452v652h-452v-652z" />
    <glyph glyph-name="jcircumflex" unicode="&#x135;" 
d="M48 0v700h500v-700h-500zM72 24h452v652h-452v-652z" />
    <glyph glyph-name="uni0136" unicode="&#x136;" 
d="M48 0v700h500v-700h-500zM72 24h452v652h-452v-652z" />
    <glyph glyph-name="uni0137" unicode="&#x137;" 
d="M48 0v700h500v-700h-500zM72 24h452v652h-452v-652z" />
    <glyph glyph-name="kgreenlandic" unicode="&#x138;" 
d="M48 0v700h500v-700h-500zM72 24h452v652h-452v-652z" />
    <glyph glyph-name="Lacute" unicode="&#x139;" 
d="M48 0v700h500v-700h-500zM72 24h452v652h-452v-652z" />
    <glyph glyph-name="lacute" unicode="&#x13a;" 
d="M48 0v700h500v-700h-500zM72 24h452v652h-452v-652z" />
    <glyph glyph-name="uni013B" unicode="&#x13b;" 
d="M48 0v700h500v-700h-500zM72 24h452v652h-452v-652z" />
    <glyph glyph-name="uni013C" unicode="&#x13c;" 
d="M48 0v700h500v-700h-500zM72 24h452v652h-452v-652z" />
    <glyph glyph-name="Lcaron" unicode="&#x13d;" 
d="M48 0v700h500v-700h-500zM72 24h452v652h-452v-652z" />
    <glyph glyph-name="lcaron" unicode="&#x13e;" 
d="M48 0v700h500v-700h-500zM72 24h452v652h-452v-652z" />
    <glyph glyph-name="Ldot" unicode="&#x13f;" 
d="M48 0v700h500v-700h-500zM72 24h452v652h-452v-652z" />
    <glyph glyph-name="ldot" unicode="&#x140;" 
d="M48 0v700h500v-700h-500zM72 24h452v652h-452v-652z" />
    <glyph glyph-name="Lslash" unicode="&#x141;" 
d="M48 0v700h500v-700h-500zM72 24h452v652h-452v-652z" />
    <glyph glyph-name="lslash" unicode="&#x142;" 
d="M48 0v700h500v-700h-500zM72 24h452v652h-452v-652z" />
    <glyph glyph-name="Nacute" unicode="&#x143;" 
d="M48 0v700h500v-700h-500zM72 24h452v652h-452v-652z" />
    <glyph glyph-name="nacute" unicode="&#x144;" 
d="M48 0v700h500v-700h-500zM72 24h452v652h-452v-652z" />
    <glyph glyph-name="uni0145" unicode="&#x145;" 
d="M48 0v700h500v-700h-500zM72 24h452v652h-452v-652z" />
    <glyph glyph-name="uni0146" unicode="&#x146;" 
d="M48 0v700h500v-700h-500zM72 24h452v652h-452v-652z" />
    <glyph glyph-name="Ncaron" unicode="&#x147;" 
d="M48 0v700h500v-700h-500zM72 24h452v652h-452v-652z" />
    <glyph glyph-name="ncaron" unicode="&#x148;" 
d="M48 0v700h500v-700h-500zM72 24h452v652h-452v-652z" />
    <glyph glyph-name="napostrophe" unicode="&#x149;" 
d="M48 0v700h500v-700h-500zM72 24h452v652h-452v-652z" />
    <glyph glyph-name="Eng" unicode="&#x14a;" 
d="M48 0v700h500v-700h-500zM72 24h452v652h-452v-652z" />
    <glyph glyph-name="eng" unicode="&#x14b;" 
d="M48 0v700h500v-700h-500zM72 24h452v652h-452v-652z" />
    <glyph glyph-name="Omacron" unicode="&#x14c;" 
d="M48 0v700h500v-700h-500zM72 24h452v652h-452v-652z" />
    <glyph glyph-name="omacron" unicode="&#x14d;" 
d="M48 0v700h500v-700h-500zM72 24h452v652h-452v-652z" />
    <glyph glyph-name="Obreve" unicode="&#x14e;" 
d="M48 0v700h500v-700h-500zM72 24h452v652h-452v-652z" />
    <glyph glyph-name="obreve" unicode="&#x14f;" 
d="M48 0v700h500v-700h-500zM72 24h452v652h-452v-652z" />
    <glyph glyph-name="Ohungarumlaut" unicode="&#x150;" 
d="M48 0v700h500v-700h-500zM72 24h452v652h-452v-652z" />
    <glyph glyph-name="ohungarumlaut" unicode="&#x151;" 
d="M48 0v700h500v-700h-500zM72 24h452v652h-452v-652z" />
    <glyph glyph-name="OE" unicode="&#x152;" 
d="M48 0v700h500v-700h-500zM72 24h452v652h-452v-652z" />
    <glyph glyph-name="oe" unicode="&#x153;" 
d="M48 0v700h500v-700h-500zM72 24h452v652h-452v-652z" />
    <glyph glyph-name="Racute" unicode="&#x154;" 
d="M48 0v700h500v-700h-500zM72 24h452v652h-452v-652z" />
    <glyph glyph-name="racute" unicode="&#x155;" 
d="M48 0v700h500v-700h-500zM72 24h452v652h-452v-652z" />
    <glyph glyph-name="uni0156" unicode="&#x156;" 
d="M48 0v700h500v-700h-500zM72 24h452v652h-452v-652z" />
    <glyph glyph-name="uni0157" unicode="&#x157;" 
d="M48 0v700h500v-700h-500zM72 24h452v652h-452v-652z" />
    <glyph glyph-name="Rcaron" unicode="&#x158;" 
d="M48 0v700h500v-700h-500zM72 24h452v652h-452v-652z" />
    <glyph glyph-name="rcaron" unicode="&#x159;" 
d="M48 0v700h500v-700h-500zM72 24h452v652h-452v-652z" />
    <glyph glyph-name="Sacute" unicode="&#x15a;" 
d="M48 0v700h500v-700h-500zM72 24h452v652h-452v-652z" />
    <glyph glyph-name="sacute" unicode="&#x15b;" 
d="M48 0v700h500v-700h-500zM72 24h452v652h-452v-652z" />
    <glyph glyph-name="Scircumflex" unicode="&#x15c;" 
d="M48 0v700h500v-700h-500zM72 24h452v652h-452v-652z" />
    <glyph glyph-name="scircumflex" unicode="&#x15d;" 
d="M48 0v700h500v-700h-500zM72 24h452v652h-452v-652z" />
    <glyph glyph-name="Scedilla" unicode="&#x15e;" 
d="M48 0v700h500v-700h-500zM72 24h452v652h-452v-652z" />
    <glyph glyph-name="scedilla" unicode="&#x15f;" 
d="M48 0v700h500v-700h-500zM72 24h452v652h-452v-652z" />
    <glyph glyph-name="Scaron" unicode="&#x160;" 
d="M48 0v700h500v-700h-500zM72 24h452v652h-452v-652z" />
    <glyph glyph-name="scaron" unicode="&#x161;" 
d="M48 0v700h500v-700h-500zM72 24h452v652h-452v-652z" />
    <glyph glyph-name="uni0162" unicode="&#x162;" 
d="M48 0v700h500v-700h-500zM72 24h452v652h-452v-652z" />
    <glyph glyph-name="uni0163" unicode="&#x163;" 
d="M48 0v700h500v-700h-500zM72 24h452v652h-452v-652z" />
    <glyph glyph-name="Tcaron" unicode="&#x164;" 
d="M48 0v700h500v-700h-500zM72 24h452v652h-452v-652z" />
    <glyph glyph-name="tcaron" unicode="&#x165;" 
d="M48 0v700h500v-700h-500zM72 24h452v652h-452v-652z" />
    <glyph glyph-name="Tbar" unicode="&#x166;" 
d="M48 0v700h500v-700h-500zM72 24h452v652h-452v-652z" />
    <glyph glyph-name="tbar" unicode="&#x167;" 
d="M48 0v700h500v-700h-500zM72 24h452v652h-452v-652z" />
    <glyph glyph-name="Utilde" unicode="&#x168;" 
d="M48 0v700h500v-700h-500zM72 24h452v652h-452v-652z" />
    <glyph glyph-name="utilde" unicode="&#x169;" 
d="M48 0v700h500v-700h-500zM72 24h452v652h-452v-652z" />
    <glyph glyph-name="Umacron" unicode="&#x16a;" 
d="M48 0v700h500v-700h-500zM72 24h452v652h-452v-652z" />
    <glyph glyph-name="umacron" unicode="&#x16b;" 
d="M48 0v700h500v-700h-500zM72 24h452v652h-452v-652z" />
    <glyph glyph-name="Ubreve" unicode="&#x16c;" 
d="M48 0v700h500v-700h-500zM72 24h452v652h-452v-652z" />
    <glyph glyph-name="ubreve" unicode="&#x16d;" 
d="M48 0v700h500v-700h-500zM72 24h452v652h-452v-652z" />
    <glyph glyph-name="Uring" unicode="&#x16e;" 
d="M48 0v700h500v-700h-500zM72 24h452v652h-452v-652z" />
    <glyph glyph-name="uring" unicode="&#x16f;" 
d="M48 0v700h500v-700h-500zM72 24h452v652h-452v-652z" />
    <glyph glyph-name="Uhungarumlaut" unicode="&#x170;" 
d="M48 0v700h500v-700h-500zM72 24h452v652h-452v-652z" />
    <glyph glyph-name="uhungarumlaut" unicode="&#x171;" 
d="M48 0v700h500v-700h-500zM72 24h452v652h-452v-652z" />
    <glyph glyph-name="Uogonek" unicode="&#x172;" 
d="M48 0v700h500v-700h-500zM72 24h452v652h-452v-652z" />
    <glyph glyph-name="uogonek" unicode="&#x173;" 
d="M48 0v700h500v-700h-500zM72 24h452v652h-452v-652z" />
    <glyph glyph-name="Wcircumflex" unicode="&#x174;" 
d="M48 0v700h500v-700h-500zM72 24h452v652h-452v-652z" />
    <glyph glyph-name="wcircumflex" unicode="&#x175;" 
d="M48 0v700h500v-700h-500zM72 24h452v652h-452v-652z" />
    <glyph glyph-name="Ycircumflex" unicode="&#x176;" 
d="M48 0v700h500v-700h-500zM72 24h452v652h-452v-652z" />
    <glyph glyph-name="ycircumflex" unicode="&#x177;" 
d="M48 0v700h500v-700h-500zM72 24h452v652h-452v-652z" />
    <glyph glyph-name="Ydieresis" unicode="&#x178;" 
d="M48 0v700h500v-700h-500zM72 24h452v652h-452v-652z" />
    <glyph glyph-name="Zacute" unicode="&#x179;" 
d="M48 0v700h500v-700h-500zM72 24h452v652h-452v-652z" />
    <glyph glyph-name="zacute" unicode="&#x17a;" 
d="M48 0v700h500v-700h-500zM72 24h452v652h-452v-652z" />
    <glyph glyph-name="Zdotaccent" unicode="&#x17b;" 
d="M48 0v700h500v-700h-500zM72 24h452v652h-452v-652z" />
    <glyph glyph-name="zdotaccent" unicode="&#x17c;" 
d="M48 0v700h500v-700h-500zM72 24h452v652h-452v-652z" />
    <glyph glyph-name="Zcaron" unicode="&#x17d;" 
d="M48 0v700h500v-700h-500zM72 24h452v652h-452v-652z" />
    <glyph glyph-name="zcaron" unicode="&#x17e;" 
d="M48 0v700h500v-700h-500zM72 24h452v652h-452v-652z" />
    <glyph glyph-name="longs" unicode="&#x17f;" 
d="M48 0v700h500v-700h-500zM72 24h452v652h-452v-652z" />
    <glyph glyph-name="florin" unicode="&#x192;" 
d="M48 0v700h500v-700h-500zM72 24h452v652h-452v-652z" />
    <glyph glyph-name="Ohorn" unicode="&#x1a0;" 
d="M48 0v700h500v-700h-500zM72 24h452v652h-452v-652z" />
    <glyph glyph-name="ohorn" unicode="&#x1a1;" 
d="M48 0v700h500v-700h-500zM72 24h452v652h-452v-652z" />
    <glyph glyph-name="Uhorn" unicode="&#x1af;" 
d="M48 0v700h500v-700h-500zM72 24h452v652h-452v-652z" />
    <glyph glyph-name="uhorn" unicode="&#x1b0;" 
d="M48 0v700h500v-700h-500zM72 24h452v652h-452v-652z" />
    <glyph glyph-name="uni01C0" unicode="&#x1c0;" 
d="M48 0v700h500v-700h-500zM72 24h452v652h-452v-652z" />
    <glyph glyph-name="uni01C1" unicode="&#x1c1;" 
d="M48 0v700h500v-700h-500zM72 24h452v652h-452v-652z" />
    <glyph glyph-name="uni01C3" unicode="&#x1c3;" 
d="M48 0v700h500v-700h-500zM72 24h452v652h-452v-652z" />
    <glyph glyph-name="uni01C4" unicode="&#x1c4;" 
d="M48 0v700h500v-700h-500zM72 24h452v652h-452v-652z" />
    <glyph glyph-name="uni01C5" unicode="&#x1c5;" 
d="M48 0v700h500v-700h-500zM72 24h452v652h-452v-652z" />
    <glyph glyph-name="uni01C6" unicode="&#x1c6;" 
d="M48 0v700h500v-700h-500zM72 24h452v652h-452v-652z" />
    <glyph glyph-name="uni01C7" unicode="&#x1c7;" 
d="M48 0v700h500v-700h-500zM72 24h452v652h-452v-652z" />
    <glyph glyph-name="uni01C8" unicode="&#x1c8;" 
d="M48 0v700h500v-700h-500zM72 24h452v652h-452v-652z" />
    <glyph glyph-name="uni01C9" unicode="&#x1c9;" 
d="M48 0v700h500v-700h-500zM72 24h452v652h-452v-652z" />
    <glyph glyph-name="uni01CA" unicode="&#x1ca;" 
d="M48 0v700h500v-700h-500zM72 24h452v652h-452v-652z" />
    <glyph glyph-name="uni01CB" unicode="&#x1cb;" 
d="M48 0v700h500v-700h-500zM72 24h452v652h-452v-652z" />
    <glyph glyph-name="uni01CC" unicode="&#x1cc;" 
d="M48 0v700h500v-700h-500zM72 24h452v652h-452v-652z" />
    <glyph glyph-name="uni01CD" unicode="&#x1cd;" 
d="M48 0v700h500v-700h-500zM72 24h452v652h-452v-652z" />
    <glyph glyph-name="uni01CE" unicode="&#x1ce;" 
d="M48 0v700h500v-700h-500zM72 24h452v652h-452v-652z" />
    <glyph glyph-name="uni01CF" unicode="&#x1cf;" 
d="M48 0v700h500v-700h-500zM72 24h452v652h-452v-652z" />
    <glyph glyph-name="uni01D0" unicode="&#x1d0;" 
d="M48 0v700h500v-700h-500zM72 24h452v652h-452v-652z" />
    <glyph glyph-name="uni01D1" unicode="&#x1d1;" 
d="M48 0v700h500v-700h-500zM72 24h452v652h-452v-652z" />
    <glyph glyph-name="uni01D2" unicode="&#x1d2;" 
d="M48 0v700h500v-700h-500zM72 24h452v652h-452v-652z" />
    <glyph glyph-name="uni01D3" unicode="&#x1d3;" 
d="M48 0v700h500v-700h-500zM72 24h452v652h-452v-652z" />
    <glyph glyph-name="uni01D4" unicode="&#x1d4;" 
d="M48 0v700h500v-700h-500zM72 24h452v652h-452v-652z" />
    <glyph glyph-name="uni01D5" unicode="&#x1d5;" 
d="M48 0v700h500v-700h-500zM72 24h452v652h-452v-652z" />
    <glyph glyph-name="uni01D6" unicode="&#x1d6;" 
d="M48 0v700h500v-700h-500zM72 24h452v652h-452v-652z" />
    <glyph glyph-name="uni01D7" unicode="&#x1d7;" 
d="M48 0v700h500v-700h-500zM72 24h452v652h-452v-652z" />
    <glyph glyph-name="uni01D8" unicode="&#x1d8;" 
d="M48 0v700h500v-700h-500zM72 24h452v652h-452v-652z" />
    <glyph glyph-name="uni01D9" unicode="&#x1d9;" 
d="M48 0v700h500v-700h-500zM72 24h452v652h-452v-652z" />
    <glyph glyph-name="uni01DA" unicode="&#x1da;" 
d="M48 0v700h500v-700h-500zM72 24h452v652h-452v-652z" />
    <glyph glyph-name="uni01DB" unicode="&#x1db;" 
d="M48 0v700h500v-700h-500zM72 24h452v652h-452v-652z" />
    <glyph glyph-name="uni01DC" unicode="&#x1dc;" 
d="M48 0v700h500v-700h-500zM72 24h452v652h-452v-652z" />
    <glyph glyph-name="uni01DD" unicode="&#x1dd;" 
d="M48 0v700h500v-700h-500zM72 24h452v652h-452v-652z" />
    <glyph glyph-name="uni01DE" unicode="&#x1de;" 
d="M48 0v700h500v-700h-500zM72 24h452v652h-452v-652z" />
    <glyph glyph-name="uni01DF" unicode="&#x1df;" 
d="M48 0v700h500v-700h-500zM72 24h452v652h-452v-652z" />
    <glyph glyph-name="uni01E0" unicode="&#x1e0;" 
d="M48 0v700h500v-700h-500zM72 24h452v652h-452v-652z" />
    <glyph glyph-name="uni01E1" unicode="&#x1e1;" 
d="M48 0v700h500v-700h-500zM72 24h452v652h-452v-652z" />
    <glyph glyph-name="uni01E2" unicode="&#x1e2;" 
d="M48 0v700h500v-700h-500zM72 24h452v652h-452v-652z" />
    <glyph glyph-name="uni01E3" unicode="&#x1e3;" 
d="M48 0v700h500v-700h-500zM72 24h452v652h-452v-652z" />
    <glyph glyph-name="Gcaron" unicode="&#x1e6;" 
d="M48 0v700h500v-700h-500zM72 24h452v652h-452v-652z" />
    <glyph glyph-name="gcaron" unicode="&#x1e7;" 
d="M48 0v700h500v-700h-500zM72 24h452v652h-452v-652z" />
    <glyph glyph-name="uni01E8" unicode="&#x1e8;" 
d="M48 0v700h500v-700h-500zM72 24h452v652h-452v-652z" />
    <glyph glyph-name="uni01E9" unicode="&#x1e9;" 
d="M48 0v700h500v-700h-500zM72 24h452v652h-452v-652z" />
    <glyph glyph-name="uni01EA" unicode="&#x1ea;" 
d="M48 0v700h500v-700h-500zM72 24h452v652h-452v-652z" />
    <glyph glyph-name="uni01EB" unicode="&#x1eb;" 
d="M48 0v700h500v-700h-500zM72 24h452v652h-452v-652z" />
    <glyph glyph-name="uni01EC" unicode="&#x1ec;" 
d="M48 0v700h500v-700h-500zM72 24h452v652h-452v-652z" />
    <glyph glyph-name="uni01ED" unicode="&#x1ed;" 
d="M48 0v700h500v-700h-500zM72 24h452v652h-452v-652z" />
    <glyph glyph-name="uni01F0" unicode="&#x1f0;" 
d="M48 0v700h500v-700h-500zM72 24h452v652h-452v-652z" />
    <glyph glyph-name="uni01F1" unicode="&#x1f1;" 
d="M48 0v700h500v-700h-500zM72 24h452v652h-452v-652z" />
    <glyph glyph-name="uni01F2" unicode="&#x1f2;" 
d="M48 0v700h500v-700h-500zM72 24h452v652h-452v-652z" />
    <glyph glyph-name="uni01F3" unicode="&#x1f3;" 
d="M48 0v700h500v-700h-500zM72 24h452v652h-452v-652z" />
    <glyph glyph-name="uni01F4" unicode="&#x1f4;" 
d="M48 0v700h500v-700h-500zM72 24h452v652h-452v-652z" />
    <glyph glyph-name="uni01F5" unicode="&#x1f5;" 
d="M48 0v700h500v-700h-500zM72 24h452v652h-452v-652z" />
    <glyph glyph-name="uni01F8" unicode="&#x1f8;" 
d="M48 0v700h500v-700h-500zM72 24h452v652h-452v-652z" />
    <glyph glyph-name="uni01F9" unicode="&#x1f9;" 
d="M48 0v700h500v-700h-500zM72 24h452v652h-452v-652z" />
    <glyph glyph-name="Aringacute" unicode="&#x1fa;" 
d="M48 0v700h500v-700h-500zM72 24h452v652h-452v-652z" />
    <glyph glyph-name="aringacute" unicode="&#x1fb;" 
d="M48 0v700h500v-700h-500zM72 24h452v652h-452v-652z" />
    <glyph glyph-name="AEacute" unicode="&#x1fc;" 
d="M48 0v700h500v-700h-500zM72 24h452v652h-452v-652z" />
    <glyph glyph-name="aeacute" unicode="&#x1fd;" 
d="M48 0v700h500v-700h-500zM72 24h452v652h-452v-652z" />
    <glyph glyph-name="Oslashacute" unicode="&#x1fe;" 
d="M48 0v700h500v-700h-500zM72 24h452v652h-452v-652z" />
    <glyph glyph-name="oslashacute" unicode="&#x1ff;" 
d="M48 0v700h500v-700h-500zM72 24h452v652h-452v-652z" />
    <glyph glyph-name="uni0200" unicode="&#x200;" 
d="M48 0v700h500v-700h-500zM72 24h452v652h-452v-652z" />
    <glyph glyph-name="uni0201" unicode="&#x201;" 
d="M48 0v700h500v-700h-500zM72 24h452v652h-452v-652z" />
    <glyph glyph-name="uni0202" unicode="&#x202;" 
d="M48 0v700h500v-700h-500zM72 24h452v652h-452v-652z" />
    <glyph glyph-name="uni0203" unicode="&#x203;" 
d="M48 0v700h500v-700h-500zM72 24h452v652h-452v-652z" />
    <glyph glyph-name="uni0204" unicode="&#x204;" 
d="M48 0v700h500v-700h-500zM72 24h452v652h-452v-652z" />
    <glyph glyph-name="uni0205" unicode="&#x205;" 
d="M48 0v700h500v-700h-500zM72 24h452v652h-452v-652z" />
    <glyph glyph-name="uni0206" unicode="&#x206;" 
d="M48 0v700h500v-700h-500zM72 24h452v652h-452v-652z" />
    <glyph glyph-name="uni0207" unicode="&#x207;" 
d="M48 0v700h500v-700h-500zM72 24h452v652h-452v-652z" />
    <glyph glyph-name="uni0208" unicode="&#x208;" 
d="M48 0v700h500v-700h-500zM72 24h452v652h-452v-652z" />
    <glyph glyph-name="uni0209" unicode="&#x209;" 
d="M48 0v700h500v-700h-500zM72 24h452v652h-452v-652z" />
    <glyph glyph-name="uni020A" unicode="&#x20a;" 
d="M48 0v700h500v-700h-500zM72 24h452v652h-452v-652z" />
    <glyph glyph-name="uni020B" unicode="&#x20b;" 
d="M48 0v700h500v-700h-500zM72 24h452v652h-452v-652z" />
    <glyph glyph-name="uni020C" unicode="&#x20c;" 
d="M48 0v700h500v-700h-500zM72 24h452v652h-452v-652z" />
    <glyph glyph-name="uni020D" unicode="&#x20d;" 
d="M48 0v700h500v-700h-500zM72 24h452v652h-452v-652z" />
    <glyph glyph-name="uni020E" unicode="&#x20e;" 
d="M48 0v700h500v-700h-500zM72 24h452v652h-452v-652z" />
    <glyph glyph-name="uni020F" unicode="&#x20f;" 
d="M48 0v700h500v-700h-500zM72 24h452v652h-452v-652z" />
    <glyph glyph-name="uni0210" unicode="&#x210;" 
d="M48 0v700h500v-700h-500zM72 24h452v652h-452v-652z" />
    <glyph glyph-name="uni0211" unicode="&#x211;" 
d="M48 0v700h500v-700h-500zM72 24h452v652h-452v-652z" />
    <glyph glyph-name="uni0212" unicode="&#x212;" 
d="M48 0v700h500v-700h-500zM72 24h452v652h-452v-652z" />
    <glyph glyph-name="uni0213" unicode="&#x213;" 
d="M48 0v700h500v-700h-500zM72 24h452v652h-452v-652z" />
    <glyph glyph-name="uni0214" unicode="&#x214;" 
d="M48 0v700h500v-700h-500zM72 24h452v652h-452v-652z" />
    <glyph glyph-name="uni0215" unicode="&#x215;" 
d="M48 0v700h500v-700h-500zM72 24h452v652h-452v-652z" />
    <glyph glyph-name="uni0216" unicode="&#x216;" 
d="M48 0v700h500v-700h-500zM72 24h452v652h-452v-652z" />
    <glyph glyph-name="uni0217" unicode="&#x217;" 
d="M48 0v700h500v-700h-500zM72 24h452v652h-452v-652z" />
    <glyph glyph-name="uni0218" unicode="&#x218;" 
d="M48 0v700h500v-700h-500zM72 24h452v652h-452v-652z" />
    <glyph glyph-name="uni0219" unicode="&#x219;" 
d="M48 0v700h500v-700h-500zM72 24h452v652h-452v-652z" />
    <glyph glyph-name="uni021A" unicode="&#x21a;" 
d="M48 0v700h500v-700h-500zM72 24h452v652h-452v-652z" />
    <glyph glyph-name="uni021B" unicode="&#x21b;" 
d="M48 0v700h500v-700h-500zM72 24h452v652h-452v-652z" />
    <glyph glyph-name="uni021E" unicode="&#x21e;" 
d="M48 0v700h500v-700h-500zM72 24h452v652h-452v-652z" />
    <glyph glyph-name="uni021F" unicode="&#x21f;" 
d="M48 0v700h500v-700h-500zM72 24h452v652h-452v-652z" />
    <glyph glyph-name="uni0226" unicode="&#x226;" 
d="M48 0v700h500v-700h-500zM72 24h452v652h-452v-652z" />
    <glyph glyph-name="uni0227" unicode="&#x227;" 
d="M48 0v700h500v-700h-500zM72 24h452v652h-452v-652z" />
    <glyph glyph-name="uni0228" unicode="&#x228;" 
d="M48 0v700h500v-700h-500zM72 24h452v652h-452v-652z" />
    <glyph glyph-name="uni0229" unicode="&#x229;" 
d="M48 0v700h500v-700h-500zM72 24h452v652h-452v-652z" />
    <glyph glyph-name="uni022A" unicode="&#x22a;" 
d="M48 0v700h500v-700h-500zM72 24h452v652h-452v-652z" />
    <glyph glyph-name="uni022B" unicode="&#x22b;" 
d="M48 0v700h500v-700h-500zM72 24h452v652h-452v-652z" />
    <glyph glyph-name="uni022C" unicode="&#x22c;" 
d="M48 0v700h500v-700h-500zM72 24h452v652h-452v-652z" />
    <glyph glyph-name="uni022D" unicode="&#x22d;" 
d="M48 0v700h500v-700h-500zM72 24h452v652h-452v-652z" />
    <glyph glyph-name="uni022E" unicode="&#x22e;" 
d="M48 0v700h500v-700h-500zM72 24h452v652h-452v-652z" />
    <glyph glyph-name="uni022F" unicode="&#x22f;" 
d="M48 0v700h500v-700h-500zM72 24h452v652h-452v-652z" />
    <glyph glyph-name="uni0230" unicode="&#x230;" 
d="M48 0v700h500v-700h-500zM72 24h452v652h-452v-652z" />
    <glyph glyph-name="uni0231" unicode="&#x231;" 
d="M48 0v700h500v-700h-500zM72 24h452v652h-452v-652z" />
    <glyph glyph-name="uni0232" unicode="&#x232;" 
d="M48 0v700h500v-700h-500zM72 24h452v652h-452v-652z" />
    <glyph glyph-name="uni0233" unicode="&#x233;" 
d="M48 0v700h500v-700h-500zM72 24h452v652h-452v-652z" />
    <glyph glyph-name="uni02B9" unicode="&#x2b9;" 
d="M48 0v700h500v-700h-500zM72 24h452v652h-452v-652z" />
    <glyph glyph-name="uni02BA" unicode="&#x2ba;" 
d="M48 0v700h500v-700h-500zM72 24h452v652h-452v-652z" />
    <glyph glyph-name="uni02BB" unicode="&#x2bb;" 
d="M48 0v700h500v-700h-500zM72 24h452v652h-452v-652z" />
    <glyph glyph-name="uni02BC" unicode="&#x2bc;" 
d="M48 0v700h500v-700h-500zM72 24h452v652h-452v-652z" />
    <glyph glyph-name="uni02BD" unicode="&#x2bd;" 
d="M48 0v700h500v-700h-500zM72 24h452v652h-452v-652z" />
    <glyph glyph-name="circumflex" unicode="&#x2c6;" 
d="M48 0v700h500v-700h-500zM72 24h452v652h-452v-652z" />
    <glyph glyph-name="caron" unicode="&#x2c7;" 
d="M48 0v700h500v-700h-500zM72 24h452v652h-452v-652z" />
    <glyph glyph-name="uni02C9" unicode="&#x2c9;" 
d="M48 0v700h500v-700h-500zM72 24h452v652h-452v-652z" />
    <glyph glyph-name="breve" unicode="&#x2d8;" 
d="M48 0v700h500v-700h-500zM72 24h452v652h-452v-652z" />
    <glyph glyph-name="dotaccent" unicode="&#x2d9;" 
d="M48 0v700h500v-700h-500zM72 24h452v652h-452v-652z" />
    <glyph glyph-name="ring" unicode="&#x2da;" 
d="M48 0v700h500v-700h-500zM72 24h452v652h-452v-652z" />
    <glyph glyph-name="ogonek" unicode="&#x2db;" 
d="M48 0v700h500v-700h-500zM72 24h452v652h-452v-652z" />
    <glyph glyph-name="tilde" unicode="&#x2dc;" 
d="M48 0v700h500v-700h-500zM72 24h452v652h-452v-652z" />
    <glyph glyph-name="hungarumlaut" unicode="&#x2dd;" 
d="M48 0v700h500v-700h-500zM72 24h452v652h-452v-652z" />
    <glyph glyph-name="uni02EE" unicode="&#x2ee;" 
d="M48 0v700h500v-700h-500zM72 24h452v652h-452v-652z" />
    <glyph glyph-name="gravecomb" unicode="&#x300;" 
d="M48 0v700h500v-700h-500zM72 24h452v652h-452v-652z" />
    <glyph glyph-name="acutecomb" unicode="&#x301;" 
d="M48 0v700h500v-700h-500zM72 24h452v652h-452v-652z" />
    <glyph glyph-name="uni0302" unicode="&#x302;" 
d="M48 0v700h500v-700h-500zM72 24h452v652h-452v-652z" />
    <glyph glyph-name="tildecomb" unicode="&#x303;" 
d="M48 0v700h500v-700h-500zM72 24h452v652h-452v-652z" />
    <glyph glyph-name="uni0304" unicode="&#x304;" 
d="M48 0v700h500v-700h-500zM72 24h452v652h-452v-652z" />
    <glyph glyph-name="uni0306" unicode="&#x306;" 
d="M48 0v700h500v-700h-500zM72 24h452v652h-452v-652z" />
    <glyph glyph-name="uni0307" unicode="&#x307;" 
d="M48 0v700h500v-700h-500zM72 24h452v652h-452v-652z" />
    <glyph glyph-name="uni0308" unicode="&#x308;" 
d="M48 0v700h500v-700h-500zM72 24h452v652h-452v-652z" />
    <glyph glyph-name="hookabovecomb" unicode="&#x309;" 
d="M48 0v700h500v-700h-500zM72 24h452v652h-452v-652z" />
    <glyph glyph-name="uni030A" unicode="&#x30a;" 
d="M48 0v700h500v-700h-500zM72 24h452v652h-452v-652z" />
    <glyph glyph-name="uni030B" unicode="&#x30b;" 
d="M48 0v700h500v-700h-500zM72 24h452v652h-452v-652z" />
    <glyph glyph-name="uni030C" unicode="&#x30c;" 
d="M48 0v700h500v-700h-500zM72 24h452v652h-452v-652z" />
    <glyph glyph-name="uni030D" unicode="&#x30d;" 
d="M48 0v700h500v-700h-500zM72 24h452v652h-452v-652z" />
    <glyph glyph-name="uni030E" unicode="&#x30e;" 
d="M48 0v700h500v-700h-500zM72 24h452v652h-452v-652z" />
    <glyph glyph-name="uni030F" unicode="&#x30f;" 
d="M48 0v700h500v-700h-500zM72 24h452v652h-452v-652z" />
    <glyph glyph-name="uni0311" unicode="&#x311;" 
d="M48 0v700h500v-700h-500zM72 24h452v652h-452v-652z" />
    <glyph glyph-name="uni0312" unicode="&#x312;" 
d="M48 0v700h500v-700h-500zM72 24h452v652h-452v-652z" />
    <glyph glyph-name="uni0313" unicode="&#x313;" 
d="M48 0v700h500v-700h-500zM72 24h452v652h-452v-652z" />
    <glyph glyph-name="uni0314" unicode="&#x314;" 
d="M48 0v700h500v-700h-500zM72 24h452v652h-452v-652z" />
    <glyph glyph-name="uni0316" unicode="&#x316;" 
d="M48 0v700h500v-700h-500zM72 24h452v652h-452v-652z" />
    <glyph glyph-name="uni0317" unicode="&#x317;" 
d="M48 0v700h500v-700h-500zM72 24h452v652h-452v-652z" />
    <glyph glyph-name="uni031B" unicode="&#x31b;" 
d="M48 0v700h500v-700h-500zM72 24h452v652h-452v-652z" />
    <glyph glyph-name="dotbelowcomb" unicode="&#x323;" 
d="M48 0v700h500v-700h-500zM72 24h452v652h-452v-652z" />
    <glyph glyph-name="uni0324" unicode="&#x324;" 
d="M48 0v700h500v-700h-500zM72 24h452v652h-452v-652z" />
    <glyph glyph-name="uni0325" unicode="&#x325;" 
d="M48 0v700h500v-700h-500zM72 24h452v652h-452v-652z" />
    <glyph glyph-name="uni0326" unicode="&#x326;" 
d="M48 0v700h500v-700h-500zM72 24h452v652h-452v-652z" />
    <glyph glyph-name="uni0327" unicode="&#x327;" 
d="M48 0v700h500v-700h-500zM72 24h452v652h-452v-652z" />
    <glyph glyph-name="uni0328" unicode="&#x328;" 
d="M48 0v700h500v-700h-500zM72 24h452v652h-452v-652z" />
    <glyph glyph-name="uni0329" unicode="&#x329;" 
d="M48 0v700h500v-700h-500zM72 24h452v652h-452v-652z" />
    <glyph glyph-name="uni032C" unicode="&#x32c;" 
d="M48 0v700h500v-700h-500zM72 24h452v652h-452v-652z" />
    <glyph glyph-name="uni032D" unicode="&#x32d;" 
d="M48 0v700h500v-700h-500zM72 24h452v652h-452v-652z" />
    <glyph glyph-name="uni032E" unicode="&#x32e;" 
d="M48 0v700h500v-700h-500zM72 24h452v652h-452v-652z" />
    <glyph glyph-name="uni032F" unicode="&#x32f;" 
d="M48 0v700h500v-700h-500zM72 24h452v652h-452v-652z" />
    <glyph glyph-name="uni0330" unicode="&#x330;" 
d="M48 0v700h500v-700h-500zM72 24h452v652h-452v-652z" />
    <glyph glyph-name="uni0331" unicode="&#x331;" 
d="M48 0v700h500v-700h-500zM72 24h452v652h-452v-652z" />
    <glyph glyph-name="uni0340" unicode="&#x340;" 
d="M48 0v700h500v-700h-500zM72 24h452v652h-452v-652z" />
    <glyph glyph-name="uni0341" unicode="&#x341;" 
d="M48 0v700h500v-700h-500zM72 24h452v652h-452v-652z" />
    <glyph glyph-name="uni0342" unicode="&#x342;" 
d="M48 0v700h500v-700h-500zM72 24h452v652h-452v-652z" />
    <glyph glyph-name="uni0343" unicode="&#x343;" 
d="M48 0v700h500v-700h-500zM72 24h452v652h-452v-652z" />
    <glyph glyph-name="uni0344" unicode="&#x344;" 
d="M48 0v700h500v-700h-500zM72 24h452v652h-452v-652z" />
    <glyph glyph-name="uni0345" unicode="&#x345;" 
d="M48 0v700h500v-700h-500zM72 24h452v652h-452v-652z" />
    <glyph glyph-name="uni034F" unicode="&#x34f;" 
d="M48 0v700h500v-700h-500zM72 24h452v652h-452v-652z" />
    <glyph glyph-name="uni0351" unicode="&#x351;" 
d="M48 0v700h500v-700h-500zM72 24h452v652h-452v-652z" />
    <glyph glyph-name="uni0357" unicode="&#x357;" 
d="M48 0v700h500v-700h-500zM72 24h452v652h-452v-652z" />
    <glyph glyph-name="uni0374" unicode="&#x374;" 
d="M48 0v700h500v-700h-500zM72 24h452v652h-452v-652z" />
    <glyph glyph-name="uni037E" unicode="&#x37e;" 
d="M48 0v700h500v-700h-500zM72 24h452v652h-452v-652z" />
    <glyph glyph-name="tonos" unicode="&#x384;" 
d="M48 0v700h500v-700h-500zM72 24h452v652h-452v-652z" />
    <glyph glyph-name="dieresistonos" unicode="&#x385;" 
d="M48 0v700h500v-700h-500zM72 24h452v652h-452v-652z" />
    <glyph glyph-name="Alphatonos" unicode="&#x386;" 
d="M48 0v700h500v-700h-500zM72 24h452v652h-452v-652z" />
    <glyph glyph-name="anoteleia" unicode="&#x387;" 
d="M48 0v700h500v-700h-500zM72 24h452v652h-452v-652z" />
    <glyph glyph-name="Epsilontonos" unicode="&#x388;" 
d="M48 0v700h500v-700h-500zM72 24h452v652h-452v-652z" />
    <glyph glyph-name="Etatonos" unicode="&#x389;" 
d="M48 0v700h500v-700h-500zM72 24h452v652h-452v-652z" />
    <glyph glyph-name="Iotatonos" unicode="&#x38a;" 
d="M48 0v700h500v-700h-500zM72 24h452v652h-452v-652z" />
    <glyph glyph-name="Omicrontonos" unicode="&#x38c;" 
d="M48 0v700h500v-700h-500zM72 24h452v652h-452v-652z" />
    <glyph glyph-name="Upsilontonos" unicode="&#x38e;" 
d="M48 0v700h500v-700h-500zM72 24h452v652h-452v-652z" />
    <glyph glyph-name="Omegatonos" unicode="&#x38f;" 
d="M48 0v700h500v-700h-500zM72 24h452v652h-452v-652z" />
    <glyph glyph-name="iotadieresistonos" unicode="&#x390;" 
d="M48 0v700h500v-700h-500zM72 24h452v652h-452v-652z" />
    <glyph glyph-name="Alpha" unicode="&#x391;" 
d="M48 0v700h500v-700h-500zM72 24h452v652h-452v-652z" />
    <glyph glyph-name="Beta" unicode="&#x392;" 
d="M48 0v700h500v-700h-500zM72 24h452v652h-452v-652z" />
    <glyph glyph-name="Gamma" unicode="&#x393;" 
d="M48 0v700h500v-700h-500zM72 24h452v652h-452v-652z" />
    <glyph glyph-name="uni0394" unicode="&#x394;" 
d="M48 0v700h500v-700h-500zM72 24h452v652h-452v-652z" />
    <glyph glyph-name="Epsilon" unicode="&#x395;" 
d="M48 0v700h500v-700h-500zM72 24h452v652h-452v-652z" />
    <glyph glyph-name="Zeta" unicode="&#x396;" 
d="M48 0v700h500v-700h-500zM72 24h452v652h-452v-652z" />
    <glyph glyph-name="Eta" unicode="&#x397;" 
d="M48 0v700h500v-700h-500zM72 24h452v652h-452v-652z" />
    <glyph glyph-name="Theta" unicode="&#x398;" 
d="M48 0v700h500v-700h-500zM72 24h452v652h-452v-652z" />
    <glyph glyph-name="Iota" unicode="&#x399;" 
d="M48 0v700h500v-700h-500zM72 24h452v652h-452v-652z" />
    <glyph glyph-name="Kappa" unicode="&#x39a;" 
d="M48 0v700h500v-700h-500zM72 24h452v652h-452v-652z" />
    <glyph glyph-name="Lambda" unicode="&#x39b;" 
d="M48 0v700h500v-700h-500zM72 24h452v652h-452v-652z" />
    <glyph glyph-name="Mu" unicode="&#x39c;" 
d="M48 0v700h500v-700h-500zM72 24h452v652h-452v-652z" />
    <glyph glyph-name="Nu" unicode="&#x39d;" 
d="M48 0v700h500v-700h-500zM72 24h452v652h-452v-652z" />
    <glyph glyph-name="Xi" unicode="&#x39e;" 
d="M48 0v700h500v-700h-500zM72 24h452v652h-452v-652z" />
    <glyph glyph-name="Omicron" unicode="&#x39f;" 
d="M48 0v700h500v-700h-500zM72 24h452v652h-452v-652z" />
    <glyph glyph-name="Pi" unicode="&#x3a0;" 
d="M48 0v700h500v-700h-500zM72 24h452v652h-452v-652z" />
    <glyph glyph-name="Rho" unicode="&#x3a1;" 
d="M48 0v700h500v-700h-500zM72 24h452v652h-452v-652z" />
    <glyph glyph-name="Sigma" unicode="&#x3a3;" 
d="M48 0v700h500v-700h-500zM72 24h452v652h-452v-652z" />
    <glyph glyph-name="Tau" unicode="&#x3a4;" 
d="M48 0v700h500v-700h-500zM72 24h452v652h-452v-652z" />
    <glyph glyph-name="Upsilon" unicode="&#x3a5;" 
d="M48 0v700h500v-700h-500zM72 24h452v652h-452v-652z" />
    <glyph glyph-name="Phi" unicode="&#x3a6;" 
d="M48 0v700h500v-700h-500zM72 24h452v652h-452v-652z" />
    <glyph glyph-name="Chi" unicode="&#x3a7;" 
d="M48 0v700h500v-700h-500zM72 24h452v652h-452v-652z" />
    <glyph glyph-name="Psi" unicode="&#x3a8;" 
d="M48 0v700h500v-700h-500zM72 24h452v652h-452v-652z" />
    <glyph glyph-name="uni03A9" unicode="&#x3a9;" 
d="M48 0v700h500v-700h-500zM72 24h452v652h-452v-652z" />
    <glyph glyph-name="Iotadieresis" unicode="&#x3aa;" 
d="M48 0v700h500v-700h-500zM72 24h452v652h-452v-652z" />
    <glyph glyph-name="Upsilondieresis" unicode="&#x3ab;" 
d="M48 0v700h500v-700h-500zM72 24h452v652h-452v-652z" />
    <glyph glyph-name="alphatonos" unicode="&#x3ac;" 
d="M48 0v700h500v-700h-500zM72 24h452v652h-452v-652z" />
    <glyph glyph-name="epsilontonos" unicode="&#x3ad;" 
d="M48 0v700h500v-700h-500zM72 24h452v652h-452v-652z" />
    <glyph glyph-name="etatonos" unicode="&#x3ae;" 
d="M48 0v700h500v-700h-500zM72 24h452v652h-452v-652z" />
    <glyph glyph-name="iotatonos" unicode="&#x3af;" 
d="M48 0v700h500v-700h-500zM72 24h452v652h-452v-652z" />
    <glyph glyph-name="upsilondieresistonos" unicode="&#x3b0;" 
d="M48 0v700h500v-700h-500zM72 24h452v652h-452v-652z" />
    <glyph glyph-name="alpha" unicode="&#x3b1;" 
d="M48 0v700h500v-700h-500zM72 24h452v652h-452v-652z" />
    <glyph glyph-name="beta" unicode="&#x3b2;" 
d="M48 0v700h500v-700h-500zM72 24h452v652h-452v-652z" />
    <glyph glyph-name="gamma" unicode="&#x3b3;" 
d="M48 0v700h500v-700h-500zM72 24h452v652h-452v-652z" />
    <glyph glyph-name="delta" unicode="&#x3b4;" 
d="M48 0v700h500v-700h-500zM72 24h452v652h-452v-652z" />
    <glyph glyph-name="epsilon" unicode="&#x3b5;" 
d="M48 0v700h500v-700h-500zM72 24h452v652h-452v-652z" />
    <glyph glyph-name="zeta" unicode="&#x3b6;" 
d="M48 0v700h500v-700h-500zM72 24h452v652h-452v-652z" />
    <glyph glyph-name="eta" unicode="&#x3b7;" 
d="M48 0v700h500v-700h-500zM72 24h452v652h-452v-652z" />
    <glyph glyph-name="theta" unicode="&#x3b8;" 
d="M48 0v700h500v-700h-500zM72 24h452v652h-452v-652z" />
    <glyph glyph-name="iota" unicode="&#x3b9;" 
d="M48 0v700h500v-700h-500zM72 24h452v652h-452v-652z" />
    <glyph glyph-name="kappa" unicode="&#x3ba;" 
d="M48 0v700h500v-700h-500zM72 24h452v652h-452v-652z" />
    <glyph glyph-name="lambda" unicode="&#x3bb;" 
d="M48 0v700h500v-700h-500zM72 24h452v652h-452v-652z" />
    <glyph glyph-name="uni03BC" unicode="&#x3bc;" 
d="M48 0v700h500v-700h-500zM72 24h452v652h-452v-652z" />
    <glyph glyph-name="nu" unicode="&#x3bd;" 
d="M48 0v700h500v-700h-500zM72 24h452v652h-452v-652z" />
    <glyph glyph-name="xi" unicode="&#x3be;" 
d="M48 0v700h500v-700h-500zM72 24h452v652h-452v-652z" />
    <glyph glyph-name="omicron" unicode="&#x3bf;" 
d="M48 0v700h500v-700h-500zM72 24h452v652h-452v-652z" />
    <glyph glyph-name="pi" unicode="&#x3c0;" 
d="M48 0v700h500v-700h-500zM72 24h452v652h-452v-652z" />
    <glyph glyph-name="rho" unicode="&#x3c1;" 
d="M48 0v700h500v-700h-500zM72 24h452v652h-452v-652z" />
    <glyph glyph-name="sigma1" unicode="&#x3c2;" 
d="M48 0v700h500v-700h-500zM72 24h452v652h-452v-652z" />
    <glyph glyph-name="sigma" unicode="&#x3c3;" 
d="M48 0v700h500v-700h-500zM72 24h452v652h-452v-652z" />
    <glyph glyph-name="tau" unicode="&#x3c4;" 
d="M48 0v700h500v-700h-500zM72 24h452v652h-452v-652z" />
    <glyph glyph-name="upsilon" unicode="&#x3c5;" 
d="M48 0v700h500v-700h-500zM72 24h452v652h-452v-652z" />
    <glyph glyph-name="phi" unicode="&#x3c6;" 
d="M48 0v700h500v-700h-500zM72 24h452v652h-452v-652z" />
    <glyph glyph-name="chi" unicode="&#x3c7;" 
d="M48 0v700h500v-700h-500zM72 24h452v652h-452v-652z" />
    <glyph glyph-name="psi" unicode="&#x3c8;" 
d="M48 0v700h500v-700h-500zM72 24h452v652h-452v-652z" />
    <glyph glyph-name="omega" unicode="&#x3c9;" 
d="M48 0v700h500v-700h-500zM72 24h452v652h-452v-652z" />
    <glyph glyph-name="iotadieresis" unicode="&#x3ca;" 
d="M48 0v700h500v-700h-500zM72 24h452v652h-452v-652z" />
    <glyph glyph-name="upsilondieresis" unicode="&#x3cb;" 
d="M48 0v700h500v-700h-500zM72 24h452v652h-452v-652z" />
    <glyph glyph-name="omicrontonos" unicode="&#x3cc;" 
d="M48 0v700h500v-700h-500zM72 24h452v652h-452v-652z" />
    <glyph glyph-name="upsilontonos" unicode="&#x3cd;" 
d="M48 0v700h500v-700h-500zM72 24h452v652h-452v-652z" />
    <glyph glyph-name="omegatonos" unicode="&#x3ce;" 
d="M48 0v700h500v-700h-500zM72 24h452v652h-452v-652z" />
    <glyph glyph-name="uni0400" unicode="&#x400;" 
d="M48 0v700h500v-700h-500zM72 24h452v652h-452v-652z" />
    <glyph glyph-name="uni0401" unicode="&#x401;" 
d="M48 0v700h500v-700h-500zM72 24h452v652h-452v-652z" />
    <glyph glyph-name="uni0402" unicode="&#x402;" 
d="M48 0v700h500v-700h-500zM72 24h452v652h-452v-652z" />
    <glyph glyph-name="uni0403" unicode="&#x403;" 
d="M48 0v700h500v-700h-500zM72 24h452v652h-452v-652z" />
    <glyph glyph-name="uni0404" unicode="&#x404;" 
d="M48 0v700h500v-700h-500zM72 24h452v652h-452v-652z" />
    <glyph glyph-name="uni0405" unicode="&#x405;" 
d="M48 0v700h500v-700h-500zM72 24h452v652h-452v-652z" />
    <glyph glyph-name="uni0406" unicode="&#x406;" 
d="M48 0v700h500v-700h-500zM72 24h452v652h-452v-652z" />
    <glyph glyph-name="uni0407" unicode="&#x407;" 
d="M48 0v700h500v-700h-500zM72 24h452v652h-452v-652z" />
    <glyph glyph-name="uni0408" unicode="&#x408;" 
d="M48 0v700h500v-700h-500zM72 24h452v652h-452v-652z" />
    <glyph glyph-name="uni0409" unicode="&#x409;" 
d="M48 0v700h500v-700h-500zM72 24h452v652h-452v-652z" />
    <glyph glyph-name="uni040A" unicode="&#x40a;" 
d="M48 0v700h500v-700h-500zM72 24h452v652h-452v-652z" />
    <glyph glyph-name="uni040B" unicode="&#x40b;" 
d="M48 0v700h500v-700h-500zM72 24h452v652h-452v-652z" />
    <glyph glyph-name="uni040C" unicode="&#x40c;" 
d="M48 0v700h500v-700h-500zM72 24h452v652h-452v-652z" />
    <glyph glyph-name="uni040D" unicode="&#x40d;" 
d="M48 0v700h500v-700h-500zM72 24h452v652h-452v-652z" />
    <glyph glyph-name="uni040E" unicode="&#x40e;" 
d="M48 0v700h500v-700h-500zM72 24h452v652h-452v-652z" />
    <glyph glyph-name="uni040F" unicode="&#x40f;" 
d="M48 0v700h500v-700h-500zM72 24h452v652h-452v-652z" />
    <glyph glyph-name="uni0410" unicode="&#x410;" 
d="M48 0v700h500v-700h-500zM72 24h452v652h-452v-652z" />
    <glyph glyph-name="uni0411" unicode="&#x411;" 
d="M48 0v700h500v-700h-500zM72 24h452v652h-452v-652z" />
    <glyph glyph-name="uni0412" unicode="&#x412;" 
d="M48 0v700h500v-700h-500zM72 24h452v652h-452v-652z" />
    <glyph glyph-name="uni0413" unicode="&#x413;" 
d="M48 0v700h500v-700h-500zM72 24h452v652h-452v-652z" />
    <glyph glyph-name="uni0414" unicode="&#x414;" 
d="M48 0v700h500v-700h-500zM72 24h452v652h-452v-652z" />
    <glyph glyph-name="uni0415" unicode="&#x415;" 
d="M48 0v700h500v-700h-500zM72 24h452v652h-452v-652z" />
    <glyph glyph-name="uni0416" unicode="&#x416;" 
d="M48 0v700h500v-700h-500zM72 24h452v652h-452v-652z" />
    <glyph glyph-name="uni0417" unicode="&#x417;" 
d="M48 0v700h500v-700h-500zM72 24h452v652h-452v-652z" />
    <glyph glyph-name="uni0418" unicode="&#x418;" 
d="M48 0v700h500v-700h-500zM72 24h452v652h-452v-652z" />
    <glyph glyph-name="uni0419" unicode="&#x419;" 
d="M48 0v700h500v-700h-500zM72 24h452v652h-452v-652z" />
    <glyph glyph-name="uni041A" unicode="&#x41a;" 
d="M48 0v700h500v-700h-500zM72 24h452v652h-452v-652z" />
    <glyph glyph-name="uni041B" unicode="&#x41b;" 
d="M48 0v700h500v-700h-500zM72 24h452v652h-452v-652z" />
    <glyph glyph-name="uni041C" unicode="&#x41c;" 
d="M48 0v700h500v-700h-500zM72 24h452v652h-452v-652z" />
    <glyph glyph-name="uni041D" unicode="&#x41d;" 
d="M48 0v700h500v-700h-500zM72 24h452v652h-452v-652z" />
    <glyph glyph-name="uni041E" unicode="&#x41e;" 
d="M48 0v700h500v-700h-500zM72 24h452v652h-452v-652z" />
    <glyph glyph-name="uni041F" unicode="&#x41f;" 
d="M48 0v700h500v-700h-500zM72 24h452v652h-452v-652z" />
    <glyph glyph-name="uni0420" unicode="&#x420;" 
d="M48 0v700h500v-700h-500zM72 24h452v652h-452v-652z" />
    <glyph glyph-name="uni0421" unicode="&#x421;" 
d="M48 0v700h500v-700h-500zM72 24h452v652h-452v-652z" />
    <glyph glyph-name="uni0422" unicode="&#x422;" 
d="M48 0v700h500v-700h-500zM72 24h452v652h-452v-652z" />
    <glyph glyph-name="uni0423" unicode="&#x423;" 
d="M48 0v700h500v-700h-500zM72 24h452v652h-452v-652z" />
    <glyph glyph-name="uni0424" unicode="&#x424;" 
d="M48 0v700h500v-700h-500zM72 24h452v652h-452v-652z" />
    <glyph glyph-name="uni0425" unicode="&#x425;" 
d="M48 0v700h500v-700h-500zM72 24h452v652h-452v-652z" />
    <glyph glyph-name="uni0426" unicode="&#x426;" 
d="M48 0v700h500v-700h-500zM72 24h452v652h-452v-652z" />
    <glyph glyph-name="uni0427" unicode="&#x427;" 
d="M48 0v700h500v-700h-500zM72 24h452v652h-452v-652z" />
    <glyph glyph-name="uni0428" unicode="&#x428;" 
d="M48 0v700h500v-700h-500zM72 24h452v652h-452v-652z" />
    <glyph glyph-name="uni0429" unicode="&#x429;" 
d="M48 0v700h500v-700h-500zM72 24h452v652h-452v-652z" />
    <glyph glyph-name="uni042A" unicode="&#x42a;" 
d="M48 0v700h500v-700h-500zM72 24h452v652h-452v-652z" />
    <glyph glyph-name="uni042B" unicode="&#x42b;" 
d="M48 0v700h500v-700h-500zM72 24h452v652h-452v-652z" />
    <glyph glyph-name="uni042C" unicode="&#x42c;" 
d="M48 0v700h500v-700h-500zM72 24h452v652h-452v-652z" />
    <glyph glyph-name="uni042D" unicode="&#x42d;" 
d="M48 0v700h500v-700h-500zM72 24h452v652h-452v-652z" />
    <glyph glyph-name="uni042E" unicode="&#x42e;" 
d="M48 0v700h500v-700h-500zM72 24h452v652h-452v-652z" />
    <glyph glyph-name="uni042F" unicode="&#x42f;" 
d="M48 0v700h500v-700h-500zM72 24h452v652h-452v-652z" />
    <glyph glyph-name="uni0430" unicode="&#x430;" 
d="M48 0v700h500v-700h-500zM72 24h452v652h-452v-652z" />
    <glyph glyph-name="uni0431" unicode="&#x431;" 
d="M48 0v700h500v-700h-500zM72 24h452v652h-452v-652z" />
    <glyph glyph-name="uni0432" unicode="&#x432;" 
d="M48 0v700h500v-700h-500zM72 24h452v652h-452v-652z" />
    <glyph glyph-name="uni0433" unicode="&#x433;" 
d="M48 0v700h500v-700h-500zM72 24h452v652h-452v-652z" />
    <glyph glyph-name="uni0434" unicode="&#x434;" 
d="M48 0v700h500v-700h-500zM72 24h452v652h-452v-652z" />
    <glyph glyph-name="uni0435" unicode="&#x435;" 
d="M48 0v700h500v-700h-500zM72 24h452v652h-452v-652z" />
    <glyph glyph-name="uni0436" unicode="&#x436;" 
d="M48 0v700h500v-700h-500zM72 24h452v652h-452v-652z" />
    <glyph glyph-name="uni0437" unicode="&#x437;" 
d="M48 0v700h500v-700h-500zM72 24h452v652h-452v-652z" />
    <glyph glyph-name="uni0438" unicode="&#x438;" 
d="M48 0v700h500v-700h-500zM72 24h452v652h-452v-652z" />
    <glyph glyph-name="uni0439" unicode="&#x439;" 
d="M48 0v700h500v-700h-500zM72 24h452v652h-452v-652z" />
    <glyph glyph-name="uni043A" unicode="&#x43a;" 
d="M48 0v700h500v-700h-500zM72 24h452v652h-452v-652z" />
    <glyph glyph-name="uni043B" unicode="&#x43b;" 
d="M48 0v700h500v-700h-500zM72 24h452v652h-452v-652z" />
    <glyph glyph-name="uni043C" unicode="&#x43c;" 
d="M48 0v700h500v-700h-500zM72 24h452v652h-452v-652z" />
    <glyph glyph-name="uni043D" unicode="&#x43d;" 
d="M48 0v700h500v-700h-500zM72 24h452v652h-452v-652z" />
    <glyph glyph-name="uni043E" unicode="&#x43e;" 
d="M48 0v700h500v-700h-500zM72 24h452v652h-452v-652z" />
    <glyph glyph-name="uni043F" unicode="&#x43f;" 
d="M48 0v700h500v-700h-500zM72 24h452v652h-452v-652z" />
    <glyph glyph-name="uni0440" unicode="&#x440;" 
d="M48 0v700h500v-700h-500zM72 24h452v652h-452v-652z" />
    <glyph glyph-name="uni0441" unicode="&#x441;" 
d="M48 0v700h500v-700h-500zM72 24h452v652h-452v-652z" />
    <glyph glyph-name="uni0442" unicode="&#x442;" 
d="M48 0v700h500v-700h-500zM72 24h452v652h-452v-652z" />
    <glyph glyph-name="uni0443" unicode="&#x443;" 
d="M48 0v700h500v-700h-500zM72 24h452v652h-452v-652z" />
    <glyph glyph-name="uni0444" unicode="&#x444;" 
d="M48 0v700h500v-700h-500zM72 24h452v652h-452v-652z" />
    <glyph glyph-name="uni0445" unicode="&#x445;" 
d="M48 0v700h500v-700h-500zM72 24h452v652h-452v-652z" />
    <glyph glyph-name="uni0446" unicode="&#x446;" 
d="M48 0v700h500v-700h-500zM72 24h452v652h-452v-652z" />
    <glyph glyph-name="uni0447" unicode="&#x447;" 
d="M48 0v700h500v-700h-500zM72 24h452v652h-452v-652z" />
    <glyph glyph-name="uni0448" unicode="&#x448;" 
d="M48 0v700h500v-700h-500zM72 24h452v652h-452v-652z" />
    <glyph glyph-name="uni0449" unicode="&#x449;" 
d="M48 0v700h500v-700h-500zM72 24h452v652h-452v-652z" />
    <glyph glyph-name="uni044A" unicode="&#x44a;" 
d="M48 0v700h500v-700h-500zM72 24h452v652h-452v-652z" />
    <glyph glyph-name="uni044B" unicode="&#x44b;" 
d="M48 0v700h500v-700h-500zM72 24h452v652h-452v-652z" />
    <glyph glyph-name="uni044C" unicode="&#x44c;" 
d="M48 0v700h500v-700h-500zM72 24h452v652h-452v-652z" />
    <glyph glyph-name="uni044D" unicode="&#x44d;" 
d="M48 0v700h500v-700h-500zM72 24h452v652h-452v-652z" />
    <glyph glyph-name="uni044E" unicode="&#x44e;" 
d="M48 0v700h500v-700h-500zM72 24h452v652h-452v-652z" />
    <glyph glyph-name="uni044F" unicode="&#x44f;" 
d="M48 0v700h500v-700h-500zM72 24h452v652h-452v-652z" />
    <glyph glyph-name="uni0450" unicode="&#x450;" 
d="M48 0v700h500v-700h-500zM72 24h452v652h-452v-652z" />
    <glyph glyph-name="uni0451" unicode="&#x451;" 
d="M48 0v700h500v-700h-500zM72 24h452v652h-452v-652z" />
    <glyph glyph-name="uni0452" unicode="&#x452;" 
d="M48 0v700h500v-700h-500zM72 24h452v652h-452v-652z" />
    <glyph glyph-name="uni0453" unicode="&#x453;" 
d="M48 0v700h500v-700h-500zM72 24h452v652h-452v-652z" />
    <glyph glyph-name="uni0454" unicode="&#x454;" 
d="M48 0v700h500v-700h-500zM72 24h452v652h-452v-652z" />
    <glyph glyph-name="uni0455" unicode="&#x455;" 
d="M48 0v700h500v-700h-500zM72 24h452v652h-452v-652z" />
    <glyph glyph-name="uni0456" unicode="&#x456;" 
d="M48 0v700h500v-700h-500zM72 24h452v652h-452v-652z" />
    <glyph glyph-name="uni0457" unicode="&#x457;" 
d="M48 0v700h500v-700h-500zM72 24h452v652h-452v-652z" />
    <glyph glyph-name="uni0458" unicode="&#x458;" 
d="M48 0v700h500v-700h-500zM72 24h452v652h-452v-652z" />
    <glyph glyph-name="uni0459" unicode="&#x459;" 
d="M48 0v700h500v-700h-500zM72 24h452v652h-452v-652z" />
    <glyph glyph-name="uni045A" unicode="&#x45a;" 
d="M48 0v700h500v-700h-500zM72 24h452v652h-452v-652z" />
    <glyph glyph-name="uni045B" unicode="&#x45b;" 
d="M48 0v700h500v-700h-500zM72 24h452v652h-452v-652z" />
    <glyph glyph-name="uni045C" unicode="&#x45c;" 
d="M48 0v700h500v-700h-500zM72 24h452v652h-452v-652z" />
    <glyph glyph-name="uni045D" unicode="&#x45d;" 
d="M48 0v700h500v-700h-500zM72 24h452v652h-452v-652z" />
    <glyph glyph-name="uni045E" unicode="&#x45e;" 
d="M48 0v700h500v-700h-500zM72 24h452v652h-452v-652z" />
    <glyph glyph-name="uni045F" unicode="&#x45f;" 
d="M48 0v700h500v-700h-500zM72 24h452v652h-452v-652z" />
    <glyph glyph-name="uni0490" unicode="&#x490;" 
d="M48 0v700h500v-700h-500zM72 24h452v652h-452v-652z" />
    <glyph glyph-name="uni0491" unicode="&#x491;" 
d="M48 0v700h500v-700h-500zM72 24h452v652h-452v-652z" />
    <glyph glyph-name="uni04C0" unicode="&#x4c0;" 
d="M48 0v700h500v-700h-500zM72 24h452v652h-452v-652z" />
    <glyph glyph-name="uni04C1" unicode="&#x4c1;" 
d="M48 0v700h500v-700h-500zM72 24h452v652h-452v-652z" />
    <glyph glyph-name="uni04C2" unicode="&#x4c2;" 
d="M48 0v700h500v-700h-500zM72 24h452v652h-452v-652z" />
    <glyph glyph-name="uni04D0" unicode="&#x4d0;" 
d="M48 0v700h500v-700h-500zM72 24h452v652h-452v-652z" />
    <glyph glyph-name="uni04D1" unicode="&#x4d1;" 
d="M48 0v700h500v-700h-500zM72 24h452v652h-452v-652z" />
    <glyph glyph-name="uni04D2" unicode="&#x4d2;" 
d="M48 0v700h500v-700h-500zM72 24h452v652h-452v-652z" />
    <glyph glyph-name="uni04D3" unicode="&#x4d3;" 
d="M48 0v700h500v-700h-500zM72 24h452v652h-452v-652z" />
    <glyph glyph-name="uni04D4" unicode="&#x4d4;" 
d="M48 0v700h500v-700h-500zM72 24h452v652h-452v-652z" />
    <glyph glyph-name="uni04D5" unicode="&#x4d5;" 
d="M48 0v700h500v-700h-500zM72 24h452v652h-452v-652z" />
    <glyph glyph-name="uni04D6" unicode="&#x4d6;" 
d="M48 0v700h500v-700h-500zM72 24h452v652h-452v-652z" />
    <glyph glyph-name="uni04D7" unicode="&#x4d7;" 
d="M48 0v700h500v-700h-500zM72 24h452v652h-452v-652z" />
    <glyph glyph-name="uni04DC" unicode="&#x4dc;" 
d="M48 0v700h500v-700h-500zM72 24h452v652h-452v-652z" />
    <glyph glyph-name="uni04DD" unicode="&#x4dd;" 
d="M48 0v700h500v-700h-500zM72 24h452v652h-452v-652z" />
    <glyph glyph-name="uni04DE" unicode="&#x4de;" 
d="M48 0v700h500v-700h-500zM72 24h452v652h-452v-652z" />
    <glyph glyph-name="uni04DF" unicode="&#x4df;" 
d="M48 0v700h500v-700h-500zM72 24h452v652h-452v-652z" />
    <glyph glyph-name="uni04E2" unicode="&#x4e2;" 
d="M48 0v700h500v-700h-500zM72 24h452v652h-452v-652z" />
    <glyph glyph-name="uni04E3" unicode="&#x4e3;" 
d="M48 0v700h500v-700h-500zM72 24h452v652h-452v-652z" />
    <glyph glyph-name="uni04E4" unicode="&#x4e4;" 
d="M48 0v700h500v-700h-500zM72 24h452v652h-452v-652z" />
    <glyph glyph-name="uni04E5" unicode="&#x4e5;" 
d="M48 0v700h500v-700h-500zM72 24h452v652h-452v-652z" />
    <glyph glyph-name="uni04E6" unicode="&#x4e6;" 
d="M48 0v700h500v-700h-500zM72 24h452v652h-452v-652z" />
    <glyph glyph-name="uni04E7" unicode="&#x4e7;" 
d="M48 0v700h500v-700h-500zM72 24h452v652h-452v-652z" />
    <glyph glyph-name="uni04EC" unicode="&#x4ec;" 
d="M48 0v700h500v-700h-500zM72 24h452v652h-452v-652z" />
    <glyph glyph-name="uni04ED" unicode="&#x4ed;" 
d="M48 0v700h500v-700h-500zM72 24h452v652h-452v-652z" />
    <glyph glyph-name="uni04EE" unicode="&#x4ee;" 
d="M48 0v700h500v-700h-500zM72 24h452v652h-452v-652z" />
    <glyph glyph-name="uni04EF" unicode="&#x4ef;" 
d="M48 0v700h500v-700h-500zM72 24h452v652h-452v-652z" />
    <glyph glyph-name="uni04F0" unicode="&#x4f0;" 
d="M48 0v700h500v-700h-500zM72 24h452v652h-452v-652z" />
    <glyph glyph-name="uni04F1" unicode="&#x4f1;" 
d="M48 0v700h500v-700h-500zM72 24h452v652h-452v-652z" />
    <glyph glyph-name="uni04F2" unicode="&#x4f2;" 
d="M48 0v700h500v-700h-500zM72 24h452v652h-452v-652z" />
    <glyph glyph-name="uni04F3" unicode="&#x4f3;" 
d="M48 0v700h500v-700h-500zM72 24h452v652h-452v-652z" />
    <glyph glyph-name="uni04F4" unicode="&#x4f4;" 
d="M48 0v700h500v-700h-500zM72 24h452v652h-452v-652z" />
    <glyph glyph-name="uni04F5" unicode="&#x4f5;" 
d="M48 0v700h500v-700h-500zM72 24h452v652h-452v-652z" />
    <glyph glyph-name="uni04F8" unicode="&#x4f8;" 
d="M48 0v700h500v-700h-500zM72 24h452v652h-452v-652z" />
    <glyph glyph-name="uni04F9" unicode="&#x4f9;" 
d="M48 0v700h500v-700h-500zM72 24h452v652h-452v-652z" />
    <glyph glyph-name="uni0A00" unicode="&#xa00;" horiz-adv-x="236" 
 />
    <glyph glyph-name="uni1E00" unicode="&#x1e00;" 
d="M48 0v700h500v-700h-500zM72 24h452v652h-452v-652z" />
    <glyph glyph-name="uni1E01" unicode="&#x1e01;" 
d="M48 0v700h500v-700h-500zM72 24h452v652h-452v-652z" />
    <glyph glyph-name="uni1E02" unicode="&#x1e02;" 
d="M48 0v700h500v-700h-500zM72 24h452v652h-452v-652z" />
    <glyph glyph-name="uni1E03" unicode="&#x1e03;" 
d="M48 0v700h500v-700h-500zM72 24h452v652h-452v-652z" />
    <glyph glyph-name="uni1E04" unicode="&#x1e04;" 
d="M48 0v700h500v-700h-500zM72 24h452v652h-452v-652z" />
    <glyph glyph-name="uni1E05" unicode="&#x1e05;" 
d="M48 0v700h500v-700h-500zM72 24h452v652h-452v-652z" />
    <glyph glyph-name="uni1E06" unicode="&#x1e06;" 
d="M48 0v700h500v-700h-500zM72 24h452v652h-452v-652z" />
    <glyph glyph-name="uni1E07" unicode="&#x1e07;" 
d="M48 0v700h500v-700h-500zM72 24h452v652h-452v-652z" />
    <glyph glyph-name="uni1E08" unicode="&#x1e08;" 
d="M48 0v700h500v-700h-500zM72 24h452v652h-452v-652z" />
    <glyph glyph-name="uni1E09" unicode="&#x1e09;" 
d="M48 0v700h500v-700h-500zM72 24h452v652h-452v-652z" />
    <glyph glyph-name="uni1E0A" unicode="&#x1e0a;" 
d="M48 0v700h500v-700h-500zM72 24h452v652h-452v-652z" />
    <glyph glyph-name="uni1E0B" unicode="&#x1e0b;" 
d="M48 0v700h500v-700h-500zM72 24h452v652h-452v-652z" />
    <glyph glyph-name="uni1E0C" unicode="&#x1e0c;" 
d="M48 0v700h500v-700h-500zM72 24h452v652h-452v-652z" />
    <glyph glyph-name="uni1E0D" unicode="&#x1e0d;" 
d="M48 0v700h500v-700h-500zM72 24h452v652h-452v-652z" />
    <glyph glyph-name="uni1E0E" unicode="&#x1e0e;" 
d="M48 0v700h500v-700h-500zM72 24h452v652h-452v-652z" />
    <glyph glyph-name="uni1E0F" unicode="&#x1e0f;" 
d="M48 0v700h500v-700h-500zM72 24h452v652h-452v-652z" />
    <glyph glyph-name="uni1E10" unicode="&#x1e10;" 
d="M48 0v700h500v-700h-500zM72 24h452v652h-452v-652z" />
    <glyph glyph-name="uni1E11" unicode="&#x1e11;" 
d="M48 0v700h500v-700h-500zM72 24h452v652h-452v-652z" />
    <glyph glyph-name="uni1E12" unicode="&#x1e12;" 
d="M48 0v700h500v-700h-500zM72 24h452v652h-452v-652z" />
    <glyph glyph-name="uni1E13" unicode="&#x1e13;" 
d="M48 0v700h500v-700h-500zM72 24h452v652h-452v-652z" />
    <glyph glyph-name="uni1E14" unicode="&#x1e14;" 
d="M48 0v700h500v-700h-500zM72 24h452v652h-452v-652z" />
    <glyph glyph-name="uni1E15" unicode="&#x1e15;" 
d="M48 0v700h500v-700h-500zM72 24h452v652h-452v-652z" />
    <glyph glyph-name="uni1E16" unicode="&#x1e16;" 
d="M48 0v700h500v-700h-500zM72 24h452v652h-452v-652z" />
    <glyph glyph-name="uni1E17" unicode="&#x1e17;" 
d="M48 0v700h500v-700h-500zM72 24h452v652h-452v-652z" />
    <glyph glyph-name="uni1E18" unicode="&#x1e18;" 
d="M48 0v700h500v-700h-500zM72 24h452v652h-452v-652z" />
    <glyph glyph-name="uni1E19" unicode="&#x1e19;" 
d="M48 0v700h500v-700h-500zM72 24h452v652h-452v-652z" />
    <glyph glyph-name="uni1E1A" unicode="&#x1e1a;" 
d="M48 0v700h500v-700h-500zM72 24h452v652h-452v-652z" />
    <glyph glyph-name="uni1E1B" unicode="&#x1e1b;" 
d="M48 0v700h500v-700h-500zM72 24h452v652h-452v-652z" />
    <glyph glyph-name="uni1E1C" unicode="&#x1e1c;" 
d="M48 0v700h500v-700h-500zM72 24h452v652h-452v-652z" />
    <glyph glyph-name="uni1E1D" unicode="&#x1e1d;" 
d="M48 0v700h500v-700h-500zM72 24h452v652h-452v-652z" />
    <glyph glyph-name="uni1E1E" unicode="&#x1e1e;" 
d="M48 0v700h500v-700h-500zM72 24h452v652h-452v-652z" />
    <glyph glyph-name="uni1E1F" unicode="&#x1e1f;" 
d="M48 0v700h500v-700h-500zM72 24h452v652h-452v-652z" />
    <glyph glyph-name="uni1E20" unicode="&#x1e20;" 
d="M48 0v700h500v-700h-500zM72 24h452v652h-452v-652z" />
    <glyph glyph-name="uni1E21" unicode="&#x1e21;" 
d="M48 0v700h500v-700h-500zM72 24h452v652h-452v-652z" />
    <glyph glyph-name="uni1E22" unicode="&#x1e22;" 
d="M48 0v700h500v-700h-500zM72 24h452v652h-452v-652z" />
    <glyph glyph-name="uni1E23" unicode="&#x1e23;" 
d="M48 0v700h500v-700h-500zM72 24h452v652h-452v-652z" />
    <glyph glyph-name="uni1E24" unicode="&#x1e24;" 
d="M48 0v700h500v-700h-500zM72 24h452v652h-452v-652z" />
    <glyph glyph-name="uni1E25" unicode="&#x1e25;" 
d="M48 0v700h500v-700h-500zM72 24h452v652h-452v-652z" />
    <glyph glyph-name="uni1E26" unicode="&#x1e26;" 
d="M48 0v700h500v-700h-500zM72 24h452v652h-452v-652z" />
    <glyph glyph-name="uni1E27" unicode="&#x1e27;" 
d="M48 0v700h500v-700h-500zM72 24h452v652h-452v-652z" />
    <glyph glyph-name="uni1E28" unicode="&#x1e28;" 
d="M48 0v700h500v-700h-500zM72 24h452v652h-452v-652z" />
    <glyph glyph-name="uni1E29" unicode="&#x1e29;" 
d="M48 0v700h500v-700h-500zM72 24h452v652h-452v-652z" />
    <glyph glyph-name="uni1E2A" unicode="&#x1e2a;" 
d="M48 0v700h500v-700h-500zM72 24h452v652h-452v-652z" />
    <glyph glyph-name="uni1E2B" unicode="&#x1e2b;" 
d="M48 0v700h500v-700h-500zM72 24h452v652h-452v-652z" />
    <glyph glyph-name="uni1E2C" unicode="&#x1e2c;" 
d="M48 0v700h500v-700h-500zM72 24h452v652h-452v-652z" />
    <glyph glyph-name="uni1E2D" unicode="&#x1e2d;" 
d="M48 0v700h500v-700h-500zM72 24h452v652h-452v-652z" />
    <glyph glyph-name="uni1E2E" unicode="&#x1e2e;" 
d="M48 0v700h500v-700h-500zM72 24h452v652h-452v-652z" />
    <glyph glyph-name="uni1E2F" unicode="&#x1e2f;" 
d="M48 0v700h500v-700h-500zM72 24h452v652h-452v-652z" />
    <glyph glyph-name="uni1E30" unicode="&#x1e30;" 
d="M48 0v700h500v-700h-500zM72 24h452v652h-452v-652z" />
    <glyph glyph-name="uni1E31" unicode="&#x1e31;" 
d="M48 0v700h500v-700h-500zM72 24h452v652h-452v-652z" />
    <glyph glyph-name="uni1E32" unicode="&#x1e32;" 
d="M48 0v700h500v-700h-500zM72 24h452v652h-452v-652z" />
    <glyph glyph-name="uni1E33" unicode="&#x1e33;" 
d="M48 0v700h500v-700h-500zM72 24h452v652h-452v-652z" />
    <glyph glyph-name="uni1E34" unicode="&#x1e34;" 
d="M48 0v700h500v-700h-500zM72 24h452v652h-452v-652z" />
    <glyph glyph-name="uni1E35" unicode="&#x1e35;" 
d="M48 0v700h500v-700h-500zM72 24h452v652h-452v-652z" />
    <glyph glyph-name="uni1E36" unicode="&#x1e36;" 
d="M48 0v700h500v-700h-500zM72 24h452v652h-452v-652z" />
    <glyph glyph-name="uni1E37" unicode="&#x1e37;" 
d="M48 0v700h500v-700h-500zM72 24h452v652h-452v-652z" />
    <glyph glyph-name="uni1E38" unicode="&#x1e38;" 
d="M48 0v700h500v-700h-500zM72 24h452v652h-452v-652z" />
    <glyph glyph-name="uni1E39" unicode="&#x1e39;" 
d="M48 0v700h500v-700h-500zM72 24h452v652h-452v-652z" />
    <glyph glyph-name="uni1E3A" unicode="&#x1e3a;" 
d="M48 0v700h500v-700h-500zM72 24h452v652h-452v-652z" />
    <glyph glyph-name="uni1E3B" unicode="&#x1e3b;" 
d="M48 0v700h500v-700h-500zM72 24h452v652h-452v-652z" />
    <glyph glyph-name="uni1E3C" unicode="&#x1e3c;" 
d="M48 0v700h500v-700h-500zM72 24h452v652h-452v-652z" />
    <glyph glyph-name="uni1E3D" unicode="&#x1e3d;" 
d="M48 0v700h500v-700h-500zM72 24h452v652h-452v-652z" />
    <glyph glyph-name="uni1E3E" unicode="&#x1e3e;" 
d="M48 0v700h500v-700h-500zM72 24h452v652h-452v-652z" />
    <glyph glyph-name="uni1E3F" unicode="&#x1e3f;" 
d="M48 0v700h500v-700h-500zM72 24h452v652h-452v-652z" />
    <glyph glyph-name="uni1E40" unicode="&#x1e40;" 
d="M48 0v700h500v-700h-500zM72 24h452v652h-452v-652z" />
    <glyph glyph-name="uni1E41" unicode="&#x1e41;" 
d="M48 0v700h500v-700h-500zM72 24h452v652h-452v-652z" />
    <glyph glyph-name="uni1E42" unicode="&#x1e42;" 
d="M48 0v700h500v-700h-500zM72 24h452v652h-452v-652z" />
    <glyph glyph-name="uni1E43" unicode="&#x1e43;" 
d="M48 0v700h500v-700h-500zM72 24h452v652h-452v-652z" />
    <glyph glyph-name="uni1E44" unicode="&#x1e44;" 
d="M48 0v700h500v-700h-500zM72 24h452v652h-452v-652z" />
    <glyph glyph-name="uni1E45" unicode="&#x1e45;" 
d="M48 0v700h500v-700h-500zM72 24h452v652h-452v-652z" />
    <glyph glyph-name="uni1E46" unicode="&#x1e46;" 
d="M48 0v700h500v-700h-500zM72 24h452v652h-452v-652z" />
    <glyph glyph-name="uni1E47" unicode="&#x1e47;" 
d="M48 0v700h500v-700h-500zM72 24h452v652h-452v-652z" />
    <glyph glyph-name="uni1E48" unicode="&#x1e48;" 
d="M48 0v700h500v-700h-500zM72 24h452v652h-452v-652z" />
    <glyph glyph-name="uni1E49" unicode="&#x1e49;" 
d="M48 0v700h500v-700h-500zM72 24h452v652h-452v-652z" />
    <glyph glyph-name="uni1E4A" unicode="&#x1e4a;" 
d="M48 0v700h500v-700h-500zM72 24h452v652h-452v-652z" />
    <glyph glyph-name="uni1E4B" unicode="&#x1e4b;" 
d="M48 0v700h500v-700h-500zM72 24h452v652h-452v-652z" />
    <glyph glyph-name="uni1E4C" unicode="&#x1e4c;" 
d="M48 0v700h500v-700h-500zM72 24h452v652h-452v-652z" />
    <glyph glyph-name="uni1E4D" unicode="&#x1e4d;" 
d="M48 0v700h500v-700h-500zM72 24h452v652h-452v-652z" />
    <glyph glyph-name="uni1E4E" unicode="&#x1e4e;" 
d="M48 0v700h500v-700h-500zM72 24h452v652h-452v-652z" />
    <glyph glyph-name="uni1E4F" unicode="&#x1e4f;" 
d="M48 0v700h500v-700h-500zM72 24h452v652h-452v-652z" />
    <glyph glyph-name="uni1E50" unicode="&#x1e50;" 
d="M48 0v700h500v-700h-500zM72 24h452v652h-452v-652z" />
    <glyph glyph-name="uni1E51" unicode="&#x1e51;" 
d="M48 0v700h500v-700h-500zM72 24h452v652h-452v-652z" />
    <glyph glyph-name="uni1E52" unicode="&#x1e52;" 
d="M48 0v700h500v-700h-500zM72 24h452v652h-452v-652z" />
    <glyph glyph-name="uni1E53" unicode="&#x1e53;" 
d="M48 0v700h500v-700h-500zM72 24h452v652h-452v-652z" />
    <glyph glyph-name="uni1E54" unicode="&#x1e54;" 
d="M48 0v700h500v-700h-500zM72 24h452v652h-452v-652z" />
    <glyph glyph-name="uni1E55" unicode="&#x1e55;" 
d="M48 0v700h500v-700h-500zM72 24h452v652h-452v-652z" />
    <glyph glyph-name="uni1E56" unicode="&#x1e56;" 
d="M48 0v700h500v-700h-500zM72 24h452v652h-452v-652z" />
    <glyph glyph-name="uni1E57" unicode="&#x1e57;" 
d="M48 0v700h500v-700h-500zM72 24h452v652h-452v-652z" />
    <glyph glyph-name="uni1E58" unicode="&#x1e58;" 
d="M48 0v700h500v-700h-500zM72 24h452v652h-452v-652z" />
    <glyph glyph-name="uni1E59" unicode="&#x1e59;" 
d="M48 0v700h500v-700h-500zM72 24h452v652h-452v-652z" />
    <glyph glyph-name="uni1E5A" unicode="&#x1e5a;" 
d="M48 0v700h500v-700h-500zM72 24h452v652h-452v-652z" />
    <glyph glyph-name="uni1E5B" unicode="&#x1e5b;" 
d="M48 0v700h500v-700h-500zM72 24h452v652h-452v-652z" />
    <glyph glyph-name="uni1E5C" unicode="&#x1e5c;" 
d="M48 0v700h500v-700h-500zM72 24h452v652h-452v-652z" />
    <glyph glyph-name="uni1E5D" unicode="&#x1e5d;" 
d="M48 0v700h500v-700h-500zM72 24h452v652h-452v-652z" />
    <glyph glyph-name="uni1E5E" unicode="&#x1e5e;" 
d="M48 0v700h500v-700h-500zM72 24h452v652h-452v-652z" />
    <glyph glyph-name="uni1E5F" unicode="&#x1e5f;" 
d="M48 0v700h500v-700h-500zM72 24h452v652h-452v-652z" />
    <glyph glyph-name="uni1E60" unicode="&#x1e60;" 
d="M48 0v700h500v-700h-500zM72 24h452v652h-452v-652z" />
    <glyph glyph-name="uni1E61" unicode="&#x1e61;" 
d="M48 0v700h500v-700h-500zM72 24h452v652h-452v-652z" />
    <glyph glyph-name="uni1E62" unicode="&#x1e62;" 
d="M48 0v700h500v-700h-500zM72 24h452v652h-452v-652z" />
    <glyph glyph-name="uni1E63" unicode="&#x1e63;" 
d="M48 0v700h500v-700h-500zM72 24h452v652h-452v-652z" />
    <glyph glyph-name="uni1E64" unicode="&#x1e64;" 
d="M48 0v700h500v-700h-500zM72 24h452v652h-452v-652z" />
    <glyph glyph-name="uni1E65" unicode="&#x1e65;" 
d="M48 0v700h500v-700h-500zM72 24h452v652h-452v-652z" />
    <glyph glyph-name="uni1E66" unicode="&#x1e66;" 
d="M48 0v700h500v-700h-500zM72 24h452v652h-452v-652z" />
    <glyph glyph-name="uni1E67" unicode="&#x1e67;" 
d="M48 0v700h500v-700h-500zM72 24h452v652h-452v-652z" />
    <glyph glyph-name="uni1E68" unicode="&#x1e68;" 
d="M48 0v700h500v-700h-500zM72 24h452v652h-452v-652z" />
    <glyph glyph-name="uni1E69" unicode="&#x1e69;" 
d="M48 0v700h500v-700h-500zM72 24h452v652h-452v-652z" />
    <glyph glyph-name="uni1E6A" unicode="&#x1e6a;" 
d="M48 0v700h500v-700h-500zM72 24h452v652h-452v-652z" />
    <glyph glyph-name="uni1E6B" unicode="&#x1e6b;" 
d="M48 0v700h500v-700h-500zM72 24h452v652h-452v-652z" />
    <glyph glyph-name="uni1E6C" unicode="&#x1e6c;" 
d="M48 0v700h500v-700h-500zM72 24h452v652h-452v-652z" />
    <glyph glyph-name="uni1E6D" unicode="&#x1e6d;" 
d="M48 0v700h500v-700h-500zM72 24h452v652h-452v-652z" />
    <glyph glyph-name="uni1E6E" unicode="&#x1e6e;" 
d="M48 0v700h500v-700h-500zM72 24h452v652h-452v-652z" />
    <glyph glyph-name="uni1E6F" unicode="&#x1e6f;" 
d="M48 0v700h500v-700h-500zM72 24h452v652h-452v-652z" />
    <glyph glyph-name="uni1E70" unicode="&#x1e70;" 
d="M48 0v700h500v-700h-500zM72 24h452v652h-452v-652z" />
    <glyph glyph-name="uni1E71" unicode="&#x1e71;" 
d="M48 0v700h500v-700h-500zM72 24h452v652h-452v-652z" />
    <glyph glyph-name="uni1E72" unicode="&#x1e72;" 
d="M48 0v700h500v-700h-500zM72 24h452v652h-452v-652z" />
    <glyph glyph-name="uni1E73" unicode="&#x1e73;" 
d="M48 0v700h500v-700h-500zM72 24h452v652h-452v-652z" />
    <glyph glyph-name="uni1E74" unicode="&#x1e74;" 
d="M48 0v700h500v-700h-500zM72 24h452v652h-452v-652z" />
    <glyph glyph-name="uni1E75" unicode="&#x1e75;" 
d="M48 0v700h500v-700h-500zM72 24h452v652h-452v-652z" />
    <glyph glyph-name="uni1E76" unicode="&#x1e76;" 
d="M48 0v700h500v-700h-500zM72 24h452v652h-452v-652z" />
    <glyph glyph-name="uni1E77" unicode="&#x1e77;" 
d="M48 0v700h500v-700h-500zM72 24h452v652h-452v-652z" />
    <glyph glyph-name="uni1E78" unicode="&#x1e78;" 
d="M48 0v700h500v-700h-500zM72 24h452v652h-452v-652z" />
    <glyph glyph-name="uni1E79" unicode="&#x1e79;" 
d="M48 0v700h500v-700h-500zM72 24h452v652h-452v-652z" />
    <glyph glyph-name="uni1E7A" unicode="&#x1e7a;" 
d="M48 0v700h500v-700h-500zM72 24h452v652h-452v-652z" />
    <glyph glyph-name="uni1E7B" unicode="&#x1e7b;" 
d="M48 0v700h500v-700h-500zM72 24h452v652h-452v-652z" />
    <glyph glyph-name="uni1E7C" unicode="&#x1e7c;" 
d="M48 0v700h500v-700h-500zM72 24h452v652h-452v-652z" />
    <glyph glyph-name="uni1E7D" unicode="&#x1e7d;" 
d="M48 0v700h500v-700h-500zM72 24h452v652h-452v-652z" />
    <glyph glyph-name="uni1E7E" unicode="&#x1e7e;" 
d="M48 0v700h500v-700h-500zM72 24h452v652h-452v-652z" />
    <glyph glyph-name="uni1E7F" unicode="&#x1e7f;" 
d="M48 0v700h500v-700h-500zM72 24h452v652h-452v-652z" />
    <glyph glyph-name="Wgrave" unicode="&#x1e80;" 
d="M48 0v700h500v-700h-500zM72 24h452v652h-452v-652z" />
    <glyph glyph-name="wgrave" unicode="&#x1e81;" 
d="M48 0v700h500v-700h-500zM72 24h452v652h-452v-652z" />
    <glyph glyph-name="Wacute" unicode="&#x1e82;" 
d="M48 0v700h500v-700h-500zM72 24h452v652h-452v-652z" />
    <glyph glyph-name="wacute" unicode="&#x1e83;" 
d="M48 0v700h500v-700h-500zM72 24h452v652h-452v-652z" />
    <glyph glyph-name="Wdieresis" unicode="&#x1e84;" 
d="M48 0v700h500v-700h-500zM72 24h452v652h-452v-652z" />
    <glyph glyph-name="wdieresis" unicode="&#x1e85;" 
d="M48 0v700h500v-700h-500zM72 24h452v652h-452v-652z" />
    <glyph glyph-name="uni1E86" unicode="&#x1e86;" 
d="M48 0v700h500v-700h-500zM72 24h452v652h-452v-652z" />
    <glyph glyph-name="uni1E87" unicode="&#x1e87;" 
d="M48 0v700h500v-700h-500zM72 24h452v652h-452v-652z" />
    <glyph glyph-name="uni1E88" unicode="&#x1e88;" 
d="M48 0v700h500v-700h-500zM72 24h452v652h-452v-652z" />
    <glyph glyph-name="uni1E89" unicode="&#x1e89;" 
d="M48 0v700h500v-700h-500zM72 24h452v652h-452v-652z" />
    <glyph glyph-name="uni1E8A" unicode="&#x1e8a;" 
d="M48 0v700h500v-700h-500zM72 24h452v652h-452v-652z" />
    <glyph glyph-name="uni1E8B" unicode="&#x1e8b;" 
d="M48 0v700h500v-700h-500zM72 24h452v652h-452v-652z" />
    <glyph glyph-name="uni1E8C" unicode="&#x1e8c;" 
d="M48 0v700h500v-700h-500zM72 24h452v652h-452v-652z" />
    <glyph glyph-name="uni1E8D" unicode="&#x1e8d;" 
d="M48 0v700h500v-700h-500zM72 24h452v652h-452v-652z" />
    <glyph glyph-name="uni1E8E" unicode="&#x1e8e;" 
d="M48 0v700h500v-700h-500zM72 24h452v652h-452v-652z" />
    <glyph glyph-name="uni1E8F" unicode="&#x1e8f;" 
d="M48 0v700h500v-700h-500zM72 24h452v652h-452v-652z" />
    <glyph glyph-name="uni1E90" unicode="&#x1e90;" 
d="M48 0v700h500v-700h-500zM72 24h452v652h-452v-652z" />
    <glyph glyph-name="uni1E91" unicode="&#x1e91;" 
d="M48 0v700h500v-700h-500zM72 24h452v652h-452v-652z" />
    <glyph glyph-name="uni1E92" unicode="&#x1e92;" 
d="M48 0v700h500v-700h-500zM72 24h452v652h-452v-652z" />
    <glyph glyph-name="uni1E93" unicode="&#x1e93;" 
d="M48 0v700h500v-700h-500zM72 24h452v652h-452v-652z" />
    <glyph glyph-name="uni1E94" unicode="&#x1e94;" 
d="M48 0v700h500v-700h-500zM72 24h452v652h-452v-652z" />
    <glyph glyph-name="uni1E95" unicode="&#x1e95;" 
d="M48 0v700h500v-700h-500zM72 24h452v652h-452v-652z" />
    <glyph glyph-name="uni1E96" unicode="&#x1e96;" 
d="M48 0v700h500v-700h-500zM72 24h452v652h-452v-652z" />
    <glyph glyph-name="uni1E97" unicode="&#x1e97;" 
d="M48 0v700h500v-700h-500zM72 24h452v652h-452v-652z" />
    <glyph glyph-name="uni1E98" unicode="&#x1e98;" 
d="M48 0v700h500v-700h-500zM72 24h452v652h-452v-652z" />
    <glyph glyph-name="uni1E99" unicode="&#x1e99;" 
d="M48 0v700h500v-700h-500zM72 24h452v652h-452v-652z" />
    <glyph glyph-name="uni1E9B" unicode="&#x1e9b;" 
d="M48 0v700h500v-700h-500zM72 24h452v652h-452v-652z" />
    <glyph glyph-name="uni1EA0" unicode="&#x1ea0;" 
d="M48 0v700h500v-700h-500zM72 24h452v652h-452v-652z" />
    <glyph glyph-name="uni1EA1" unicode="&#x1ea1;" 
d="M48 0v700h500v-700h-500zM72 24h452v652h-452v-652z" />
    <glyph glyph-name="uni1EA2" unicode="&#x1ea2;" 
d="M48 0v700h500v-700h-500zM72 24h452v652h-452v-652z" />
    <glyph glyph-name="uni1EA3" unicode="&#x1ea3;" 
d="M48 0v700h500v-700h-500zM72 24h452v652h-452v-652z" />
    <glyph glyph-name="uni1EA4" unicode="&#x1ea4;" 
d="M48 0v700h500v-700h-500zM72 24h452v652h-452v-652z" />
    <glyph glyph-name="uni1EA5" unicode="&#x1ea5;" 
d="M48 0v700h500v-700h-500zM72 24h452v652h-452v-652z" />
    <glyph glyph-name="uni1EA6" unicode="&#x1ea6;" 
d="M48 0v700h500v-700h-500zM72 24h452v652h-452v-652z" />
    <glyph glyph-name="uni1EA7" unicode="&#x1ea7;" 
d="M48 0v700h500v-700h-500zM72 24h452v652h-452v-652z" />
    <glyph glyph-name="uni1EA8" unicode="&#x1ea8;" 
d="M48 0v700h500v-700h-500zM72 24h452v652h-452v-652z" />
    <glyph glyph-name="uni1EA9" unicode="&#x1ea9;" 
d="M48 0v700h500v-700h-500zM72 24h452v652h-452v-652z" />
    <glyph glyph-name="uni1EAA" unicode="&#x1eaa;" 
d="M48 0v700h500v-700h-500zM72 24h452v652h-452v-652z" />
    <glyph glyph-name="uni1EAB" unicode="&#x1eab;" 
d="M48 0v700h500v-700h-500zM72 24h452v652h-452v-652z" />
    <glyph glyph-name="uni1EAC" unicode="&#x1eac;" 
d="M48 0v700h500v-700h-500zM72 24h452v652h-452v-652z" />
    <glyph glyph-name="uni1EAD" unicode="&#x1ead;" 
d="M48 0v700h500v-700h-500zM72 24h452v652h-452v-652z" />
    <glyph glyph-name="uni1EAE" unicode="&#x1eae;" 
d="M48 0v700h500v-700h-500zM72 24h452v652h-452v-652z" />
    <glyph glyph-name="uni1EAF" unicode="&#x1eaf;" 
d="M48 0v700h500v-700h-500zM72 24h452v652h-452v-652z" />
    <glyph glyph-name="uni1EB0" unicode="&#x1eb0;" 
d="M48 0v700h500v-700h-500zM72 24h452v652h-452v-652z" />
    <glyph glyph-name="uni1EB1" unicode="&#x1eb1;" 
d="M48 0v700h500v-700h-500zM72 24h452v652h-452v-652z" />
    <glyph glyph-name="uni1EB2" unicode="&#x1eb2;" 
d="M48 0v700h500v-700h-500zM72 24h452v652h-452v-652z" />
    <glyph glyph-name="uni1EB3" unicode="&#x1eb3;" 
d="M48 0v700h500v-700h-500zM72 24h452v652h-452v-652z" />
    <glyph glyph-name="uni1EB4" unicode="&#x1eb4;" 
d="M48 0v700h500v-700h-500zM72 24h452v652h-452v-652z" />
    <glyph glyph-name="uni1EB5" unicode="&#x1eb5;" 
d="M48 0v700h500v-700h-500zM72 24h452v652h-452v-652z" />
    <glyph glyph-name="uni1EB6" unicode="&#x1eb6;" 
d="M48 0v700h500v-700h-500zM72 24h452v652h-452v-652z" />
    <glyph glyph-name="uni1EB7" unicode="&#x1eb7;" 
d="M48 0v700h500v-700h-500zM72 24h452v652h-452v-652z" />
    <glyph glyph-name="uni1EB8" unicode="&#x1eb8;" 
d="M48 0v700h500v-700h-500zM72 24h452v652h-452v-652z" />
    <glyph glyph-name="uni1EB9" unicode="&#x1eb9;" 
d="M48 0v700h500v-700h-500zM72 24h452v652h-452v-652z" />
    <glyph glyph-name="uni1EBA" unicode="&#x1eba;" 
d="M48 0v700h500v-700h-500zM72 24h452v652h-452v-652z" />
    <glyph glyph-name="uni1EBB" unicode="&#x1ebb;" 
d="M48 0v700h500v-700h-500zM72 24h452v652h-452v-652z" />
    <glyph glyph-name="uni1EBC" unicode="&#x1ebc;" 
d="M48 0v700h500v-700h-500zM72 24h452v652h-452v-652z" />
    <glyph glyph-name="uni1EBD" unicode="&#x1ebd;" 
d="M48 0v700h500v-700h-500zM72 24h452v652h-452v-652z" />
    <glyph glyph-name="uni1EBE" unicode="&#x1ebe;" 
d="M48 0v700h500v-700h-500zM72 24h452v652h-452v-652z" />
    <glyph glyph-name="uni1EBF" unicode="&#x1ebf;" 
d="M48 0v700h500v-700h-500zM72 24h452v652h-452v-652z" />
    <glyph glyph-name="uni1EC0" unicode="&#x1ec0;" 
d="M48 0v700h500v-700h-500zM72 24h452v652h-452v-652z" />
    <glyph glyph-name="uni1EC1" unicode="&#x1ec1;" 
d="M48 0v700h500v-700h-500zM72 24h452v652h-452v-652z" />
    <glyph glyph-name="uni1EC2" unicode="&#x1ec2;" 
d="M48 0v700h500v-700h-500zM72 24h452v652h-452v-652z" />
    <glyph glyph-name="uni1EC3" unicode="&#x1ec3;" 
d="M48 0v700h500v-700h-500zM72 24h452v652h-452v-652z" />
    <glyph glyph-name="uni1EC4" unicode="&#x1ec4;" 
d="M48 0v700h500v-700h-500zM72 24h452v652h-452v-652z" />
    <glyph glyph-name="uni1EC5" unicode="&#x1ec5;" 
d="M48 0v700h500v-700h-500zM72 24h452v652h-452v-652z" />
    <glyph glyph-name="uni1EC6" unicode="&#x1ec6;" 
d="M48 0v700h500v-700h-500zM72 24h452v652h-452v-652z" />
    <glyph glyph-name="uni1EC7" unicode="&#x1ec7;" 
d="M48 0v700h500v-700h-500zM72 24h452v652h-452v-652z" />
    <glyph glyph-name="uni1EC8" unicode="&#x1ec8;" 
d="M48 0v700h500v-700h-500zM72 24h452v652h-452v-652z" />
    <glyph glyph-name="uni1EC9" unicode="&#x1ec9;" 
d="M48 0v700h500v-700h-500zM72 24h452v652h-452v-652z" />
    <glyph glyph-name="uni1ECA" unicode="&#x1eca;" 
d="M48 0v700h500v-700h-500zM72 24h452v652h-452v-652z" />
    <glyph glyph-name="uni1ECB" unicode="&#x1ecb;" 
d="M48 0v700h500v-700h-500zM72 24h452v652h-452v-652z" />
    <glyph glyph-name="uni1ECC" unicode="&#x1ecc;" 
d="M48 0v700h500v-700h-500zM72 24h452v652h-452v-652z" />
    <glyph glyph-name="uni1ECD" unicode="&#x1ecd;" 
d="M48 0v700h500v-700h-500zM72 24h452v652h-452v-652z" />
    <glyph glyph-name="uni1ECE" unicode="&#x1ece;" 
d="M48 0v700h500v-700h-500zM72 24h452v652h-452v-652z" />
    <glyph glyph-name="uni1ECF" unicode="&#x1ecf;" 
d="M48 0v700h500v-700h-500zM72 24h452v652h-452v-652z" />
    <glyph glyph-name="uni1ED0" unicode="&#x1ed0;" 
d="M48 0v700h500v-700h-500zM72 24h452v652h-452v-652z" />
    <glyph glyph-name="uni1ED1" unicode="&#x1ed1;" 
d="M48 0v700h500v-700h-500zM72 24h452v652h-452v-652z" />
    <glyph glyph-name="uni1ED2" unicode="&#x1ed2;" 
d="M48 0v700h500v-700h-500zM72 24h452v652h-452v-652z" />
    <glyph glyph-name="uni1ED3" unicode="&#x1ed3;" 
d="M48 0v700h500v-700h-500zM72 24h452v652h-452v-652z" />
    <glyph glyph-name="uni1ED4" unicode="&#x1ed4;" 
d="M48 0v700h500v-700h-500zM72 24h452v652h-452v-652z" />
    <glyph glyph-name="uni1ED5" unicode="&#x1ed5;" 
d="M48 0v700h500v-700h-500zM72 24h452v652h-452v-652z" />
    <glyph glyph-name="uni1ED6" unicode="&#x1ed6;" 
d="M48 0v700h500v-700h-500zM72 24h452v652h-452v-652z" />
    <glyph glyph-name="uni1ED7" unicode="&#x1ed7;" 
d="M48 0v700h500v-700h-500zM72 24h452v652h-452v-652z" />
    <glyph glyph-name="uni1ED8" unicode="&#x1ed8;" 
d="M48 0v700h500v-700h-500zM72 24h452v652h-452v-652z" />
    <glyph glyph-name="uni1ED9" unicode="&#x1ed9;" 
d="M48 0v700h500v-700h-500zM72 24h452v652h-452v-652z" />
    <glyph glyph-name="uni1EDA" unicode="&#x1eda;" 
d="M48 0v700h500v-700h-500zM72 24h452v652h-452v-652z" />
    <glyph glyph-name="uni1EDB" unicode="&#x1edb;" 
d="M48 0v700h500v-700h-500zM72 24h452v652h-452v-652z" />
    <glyph glyph-name="uni1EDC" unicode="&#x1edc;" 
d="M48 0v700h500v-700h-500zM72 24h452v652h-452v-652z" />
    <glyph glyph-name="uni1EDD" unicode="&#x1edd;" 
d="M48 0v700h500v-700h-500zM72 24h452v652h-452v-652z" />
    <glyph glyph-name="uni1EDE" unicode="&#x1ede;" 
d="M48 0v700h500v-700h-500zM72 24h452v652h-452v-652z" />
    <glyph glyph-name="uni1EDF" unicode="&#x1edf;" 
d="M48 0v700h500v-700h-500zM72 24h452v652h-452v-652z" />
    <glyph glyph-name="uni1EE0" unicode="&#x1ee0;" 
d="M48 0v700h500v-700h-500zM72 24h452v652h-452v-652z" />
    <glyph glyph-name="uni1EE1" unicode="&#x1ee1;" 
d="M48 0v700h500v-700h-500zM72 24h452v652h-452v-652z" />
    <glyph glyph-name="uni1EE2" unicode="&#x1ee2;" 
d="M48 0v700h500v-700h-500zM72 24h452v652h-452v-652z" />
    <glyph glyph-name="uni1EE3" unicode="&#x1ee3;" 
d="M48 0v700h500v-700h-500zM72 24h452v652h-452v-652z" />
    <glyph glyph-name="uni1EE4" unicode="&#x1ee4;" 
d="M48 0v700h500v-700h-500zM72 24h452v652h-452v-652z" />
    <glyph glyph-name="uni1EE5" unicode="&#x1ee5;" 
d="M48 0v700h500v-700h-500zM72 24h452v652h-452v-652z" />
    <glyph glyph-name="uni1EE6" unicode="&#x1ee6;" 
d="M48 0v700h500v-700h-500zM72 24h452v652h-452v-652z" />
    <glyph glyph-name="uni1EE7" unicode="&#x1ee7;" 
d="M48 0v700h500v-700h-500zM72 24h452v652h-452v-652z" />
    <glyph glyph-name="uni1EE8" unicode="&#x1ee8;" 
d="M48 0v700h500v-700h-500zM72 24h452v652h-452v-652z" />
    <glyph glyph-name="uni1EE9" unicode="&#x1ee9;" 
d="M48 0v700h500v-700h-500zM72 24h452v652h-452v-652z" />
    <glyph glyph-name="uni1EEA" unicode="&#x1eea;" 
d="M48 0v700h500v-700h-500zM72 24h452v652h-452v-652z" />
    <glyph glyph-name="uni1EEB" unicode="&#x1eeb;" 
d="M48 0v700h500v-700h-500zM72 24h452v652h-452v-652z" />
    <glyph glyph-name="uni1EEC" unicode="&#x1eec;" 
d="M48 0v700h500v-700h-500zM72 24h452v652h-452v-652z" />
    <glyph glyph-name="uni1EED" unicode="&#x1eed;" 
d="M48 0v700h500v-700h-500zM72 24h452v652h-452v-652z" />
    <glyph glyph-name="uni1EEE" unicode="&#x1eee;" 
d="M48 0v700h500v-700h-500zM72 24h452v652h-452v-652z" />
    <glyph glyph-name="uni1EEF" unicode="&#x1eef;" 
d="M48 0v700h500v-700h-500zM72 24h452v652h-452v-652z" />
    <glyph glyph-name="uni1EF0" unicode="&#x1ef0;" 
d="M48 0v700h500v-700h-500zM72 24h452v652h-452v-652z" />
    <glyph glyph-name="uni1EF1" unicode="&#x1ef1;" 
d="M48 0v700h500v-700h-500zM72 24h452v652h-452v-652z" />
    <glyph glyph-name="Ygrave" unicode="&#x1ef2;" 
d="M48 0v700h500v-700h-500zM72 24h452v652h-452v-652z" />
    <glyph glyph-name="ygrave" unicode="&#x1ef3;" 
d="M48 0v700h500v-700h-500zM72 24h452v652h-452v-652z" />
    <glyph glyph-name="uni1EF4" unicode="&#x1ef4;" 
d="M48 0v700h500v-700h-500zM72 24h452v652h-452v-652z" />
    <glyph glyph-name="uni1EF5" unicode="&#x1ef5;" 
d="M48 0v700h500v-700h-500zM72 24h452v652h-452v-652z" />
    <glyph glyph-name="uni1EF6" unicode="&#x1ef6;" 
d="M48 0v700h500v-700h-500zM72 24h452v652h-452v-652z" />
    <glyph glyph-name="uni1EF7" unicode="&#x1ef7;" 
d="M48 0v700h500v-700h-500zM72 24h452v652h-452v-652z" />
    <glyph glyph-name="uni1EF8" unicode="&#x1ef8;" 
d="M48 0v700h500v-700h-500zM72 24h452v652h-452v-652z" />
    <glyph glyph-name="uni1EF9" unicode="&#x1ef9;" 
d="M48 0v700h500v-700h-500zM72 24h452v652h-452v-652z" />
    <glyph glyph-name="uni1F78" unicode="&#x1f78;" 
d="M48 0v700h500v-700h-500zM72 24h452v652h-452v-652z" />
    <glyph glyph-name="uni1FB0" unicode="&#x1fb0;" 
d="M48 0v700h500v-700h-500zM72 24h452v652h-452v-652z" />
    <glyph glyph-name="uni1FB1" unicode="&#x1fb1;" 
d="M48 0v700h500v-700h-500zM72 24h452v652h-452v-652z" />
    <glyph glyph-name="uni1FB8" unicode="&#x1fb8;" 
d="M48 0v700h500v-700h-500zM72 24h452v652h-452v-652z" />
    <glyph glyph-name="uni1FB9" unicode="&#x1fb9;" 
d="M48 0v700h500v-700h-500zM72 24h452v652h-452v-652z" />
    <glyph glyph-name="uni1FBC" unicode="&#x1fbc;" 
d="M48 0v700h500v-700h-500zM72 24h452v652h-452v-652z" />
    <glyph glyph-name="uni1FCC" unicode="&#x1fcc;" 
d="M48 0v700h500v-700h-500zM72 24h452v652h-452v-652z" />
    <glyph glyph-name="uni1FD0" unicode="&#x1fd0;" 
d="M48 0v700h500v-700h-500zM72 24h452v652h-452v-652z" />
    <glyph glyph-name="uni1FD1" unicode="&#x1fd1;" 
d="M48 0v700h500v-700h-500zM72 24h452v652h-452v-652z" />
    <glyph glyph-name="uni1FD8" unicode="&#x1fd8;" 
d="M48 0v700h500v-700h-500zM72 24h452v652h-452v-652z" />
    <glyph glyph-name="uni1FD9" unicode="&#x1fd9;" 
d="M48 0v700h500v-700h-500zM72 24h452v652h-452v-652z" />
    <glyph glyph-name="uni1FE0" unicode="&#x1fe0;" 
d="M48 0v700h500v-700h-500zM72 24h452v652h-452v-652z" />
    <glyph glyph-name="uni1FE1" unicode="&#x1fe1;" 
d="M48 0v700h500v-700h-500zM72 24h452v652h-452v-652z" />
    <glyph glyph-name="uni1FE8" unicode="&#x1fe8;" 
d="M48 0v700h500v-700h-500zM72 24h452v652h-452v-652z" />
    <glyph glyph-name="uni1FE9" unicode="&#x1fe9;" 
d="M48 0v700h500v-700h-500zM72 24h452v652h-452v-652z" />
    <glyph glyph-name="uni1FFC" unicode="&#x1ffc;" 
d="M48 0v700h500v-700h-500zM72 24h452v652h-452v-652z" />
    <glyph glyph-name="uni200B" unicode="&#x200b;" 
d="M48 0v700h500v-700h-500zM72 24h452v652h-452v-652z" />
    <glyph glyph-name="uni200C" unicode="&#x200c;" 
d="M48 0v700h500v-700h-500zM72 24h452v652h-452v-652z" />
    <glyph glyph-name="uni200D" unicode="&#x200d;" 
d="M48 0v700h500v-700h-500zM72 24h452v652h-452v-652z" />
    <glyph glyph-name="endash" unicode="&#x2013;" 
d="M48 0v700h500v-700h-500zM72 24h452v652h-452v-652z" />
    <glyph glyph-name="emdash" unicode="&#x2014;" 
d="M48 0v700h500v-700h-500zM72 24h452v652h-452v-652z" />
    <glyph glyph-name="uni2015" unicode="&#x2015;" 
d="M48 0v700h500v-700h-500zM72 24h452v652h-452v-652z" />
    <glyph glyph-name="quoteleft" unicode="&#x2018;" 
d="M48 0v700h500v-700h-500zM72 24h452v652h-452v-652z" />
    <glyph glyph-name="quoteright" unicode="&#x2019;" 
d="M48 0v700h500v-700h-500zM72 24h452v652h-452v-652z" />
    <glyph glyph-name="quotesinglbase" unicode="&#x201a;" 
d="M48 0v700h500v-700h-500zM72 24h452v652h-452v-652z" />
    <glyph glyph-name="quotedblleft" unicode="&#x201c;" 
d="M48 0v700h500v-700h-500zM72 24h452v652h-452v-652z" />
    <glyph glyph-name="quotedblright" unicode="&#x201d;" 
d="M48 0v700h500v-700h-500zM72 24h452v652h-452v-652z" />
    <glyph glyph-name="quotedblbase" unicode="&#x201e;" 
d="M48 0v700h500v-700h-500zM72 24h452v652h-452v-652z" />
    <glyph glyph-name="dagger" unicode="&#x2020;" 
d="M48 0v700h500v-700h-500zM72 24h452v652h-452v-652z" />
    <glyph glyph-name="daggerdbl" unicode="&#x2021;" 
d="M48 0v700h500v-700h-500zM72 24h452v652h-452v-652z" />
    <glyph glyph-name="bullet" unicode="&#x2022;" 
d="M48 0v700h500v-700h-500zM72 24h452v652h-452v-652z" />
    <glyph glyph-name="ellipsis" unicode="&#x2026;" 
d="M48 0v700h500v-700h-500zM72 24h452v652h-452v-652z" />
    <glyph glyph-name="perthousand" unicode="&#x2030;" 
d="M48 0v700h500v-700h-500zM72 24h452v652h-452v-652z" />
    <glyph glyph-name="guilsinglleft" unicode="&#x2039;" 
d="M48 0v700h500v-700h-500zM72 24h452v652h-452v-652z" />
    <glyph glyph-name="guilsinglright" unicode="&#x203a;" 
d="M48 0v700h500v-700h-500zM72 24h452v652h-452v-652z" />
    <glyph glyph-name="fraction" unicode="&#x2044;" 
d="M48 0v700h500v-700h-500zM72 24h452v652h-452v-652z" />
    <glyph glyph-name="dong" unicode="&#x20ab;" 
d="M48 0v700h500v-700h-500zM72 24h452v652h-452v-652z" />
    <glyph glyph-name="Euro" unicode="&#x20ac;" 
d="M48 0v700h500v-700h-500zM72 24h452v652h-452v-652z" />
    <glyph glyph-name="uni20BA" unicode="&#x20ba;" 
d="M48 0v700h500v-700h-500zM72 24h452v652h-452v-652z" />
    <glyph glyph-name="uni2103" unicode="&#x2103;" 
d="M48 0v700h500v-700h-500zM72 24h452v652h-452v-652z" />
    <glyph glyph-name="uni2109" unicode="&#x2109;" 
d="M48 0v700h500v-700h-500zM72 24h452v652h-452v-652z" />
    <glyph glyph-name="uni2116" unicode="&#x2116;" 
d="M48 0v700h500v-700h-500zM72 24h452v652h-452v-652z" />
    <glyph glyph-name="trademark" unicode="&#x2122;" 
d="M48 0v700h500v-700h-500zM72 24h452v652h-452v-652z" />
    <glyph glyph-name="Omega" unicode="&#x2126;" 
d="M48 0v700h500v-700h-500zM72 24h452v652h-452v-652z" />
    <glyph glyph-name="uni212A" unicode="&#x212a;" 
d="M48 0v700h500v-700h-500zM72 24h452v652h-452v-652z" />
    <glyph glyph-name="uni212B" unicode="&#x212b;" 
d="M48 0v700h500v-700h-500zM72 24h452v652h-452v-652z" />
    <glyph glyph-name="estimated" unicode="&#x212e;" 
d="M48 0v700h500v-700h-500zM72 24h452v652h-452v-652z" />
    <glyph glyph-name="uni2160" unicode="&#x2160;" 
d="M48 0v700h500v-700h-500zM72 24h452v652h-452v-652z" />
    <glyph glyph-name="uni2161" unicode="&#x2161;" 
d="M48 0v700h500v-700h-500zM72 24h452v652h-452v-652z" />
    <glyph glyph-name="uni2162" unicode="&#x2162;" 
d="M48 0v700h500v-700h-500zM72 24h452v652h-452v-652z" />
    <glyph glyph-name="uni2163" unicode="&#x2163;" 
d="M48 0v700h500v-700h-500zM72 24h452v652h-452v-652z" />
    <glyph glyph-name="uni2164" unicode="&#x2164;" 
d="M48 0v700h500v-700h-500zM72 24h452v652h-452v-652z" />
    <glyph glyph-name="uni2165" unicode="&#x2165;" 
d="M48 0v700h500v-700h-500zM72 24h452v652h-452v-652z" />
    <glyph glyph-name="uni2166" unicode="&#x2166;" 
d="M48 0v700h500v-700h-500zM72 24h452v652h-452v-652z" />
    <glyph glyph-name="uni2167" unicode="&#x2167;" 
d="M48 0v700h500v-700h-500zM72 24h452v652h-452v-652z" />
    <glyph glyph-name="uni2168" unicode="&#x2168;" 
d="M48 0v700h500v-700h-500zM72 24h452v652h-452v-652z" />
    <glyph glyph-name="uni2169" unicode="&#x2169;" 
d="M48 0v700h500v-700h-500zM72 24h452v652h-452v-652z" />
    <glyph glyph-name="uni216A" unicode="&#x216a;" 
d="M48 0v700h500v-700h-500zM72 24h452v652h-452v-652z" />
    <glyph glyph-name="uni216B" unicode="&#x216b;" 
d="M48 0v700h500v-700h-500zM72 24h452v652h-452v-652z" />
    <glyph glyph-name="uni216C" unicode="&#x216c;" 
d="M48 0v700h500v-700h-500zM72 24h452v652h-452v-652z" />
    <glyph glyph-name="uni216D" unicode="&#x216d;" 
d="M48 0v700h500v-700h-500zM72 24h452v652h-452v-652z" />
    <glyph glyph-name="uni216E" unicode="&#x216e;" 
d="M48 0v700h500v-700h-500zM72 24h452v652h-452v-652z" />
    <glyph glyph-name="uni216F" unicode="&#x216f;" 
d="M48 0v700h500v-700h-500zM72 24h452v652h-452v-652z" />
    <glyph glyph-name="uni2170" unicode="&#x2170;" 
d="M48 0v700h500v-700h-500zM72 24h452v652h-452v-652z" />
    <glyph glyph-name="uni2171" unicode="&#x2171;" 
d="M48 0v700h500v-700h-500zM72 24h452v652h-452v-652z" />
    <glyph glyph-name="uni2172" unicode="&#x2172;" 
d="M48 0v700h500v-700h-500zM72 24h452v652h-452v-652z" />
    <glyph glyph-name="uni2173" unicode="&#x2173;" 
d="M48 0v700h500v-700h-500zM72 24h452v652h-452v-652z" />
    <glyph glyph-name="uni2174" unicode="&#x2174;" 
d="M48 0v700h500v-700h-500zM72 24h452v652h-452v-652z" />
    <glyph glyph-name="uni2175" unicode="&#x2175;" 
d="M48 0v700h500v-700h-500zM72 24h452v652h-452v-652z" />
    <glyph glyph-name="uni2176" unicode="&#x2176;" 
d="M48 0v700h500v-700h-500zM72 24h452v652h-452v-652z" />
    <glyph glyph-name="uni2177" unicode="&#x2177;" 
d="M48 0v700h500v-700h-500zM72 24h452v652h-452v-652z" />
    <glyph glyph-name="uni2178" unicode="&#x2178;" 
d="M48 0v700h500v-700h-500zM72 24h452v652h-452v-652z" />
    <glyph glyph-name="uni2179" unicode="&#x2179;" 
d="M48 0v700h500v-700h-500zM72 24h452v652h-452v-652z" />
    <glyph glyph-name="uni217A" unicode="&#x217a;" 
d="M48 0v700h500v-700h-500zM72 24h452v652h-452v-652z" />
    <glyph glyph-name="uni217B" unicode="&#x217b;" 
d="M48 0v700h500v-700h-500zM72 24h452v652h-452v-652z" />
    <glyph glyph-name="uni217C" unicode="&#x217c;" 
d="M48 0v700h500v-700h-500zM72 24h452v652h-452v-652z" />
    <glyph glyph-name="uni217D" unicode="&#x217d;" 
d="M48 0v700h500v-700h-500zM72 24h452v652h-452v-652z" />
    <glyph glyph-name="uni217E" unicode="&#x217e;" 
d="M48 0v700h500v-700h-500zM72 24h452v652h-452v-652z" />
    <glyph glyph-name="uni217F" unicode="&#x217f;" 
d="M48 0v700h500v-700h-500zM72 24h452v652h-452v-652z" />
    <glyph glyph-name="Delta" unicode="&#x2206;" 
d="M48 0v700h500v-700h-500zM72 24h452v652h-452v-652z" />
    <glyph glyph-name="minus" unicode="&#x2212;" 
d="M48 0v700h500v-700h-500zM72 24h452v652h-452v-652z" />
    <glyph glyph-name="uni2215" unicode="&#x2215;" 
d="M48 0v700h500v-700h-500zM72 24h452v652h-452v-652z" />
    <glyph glyph-name="uni2219" unicode="&#x2219;" 
d="M48 0v700h500v-700h-500zM72 24h452v652h-452v-652z" />
    <glyph glyph-name="apple" unicode="&#xf8ff;" 
d="M48 0v700h500v-700h-500zM72 24h452v652h-452v-652z" />
    <glyph glyph-name="uniFE10" unicode="&#xfe10;" 
d="M48 0v700h500v-700h-500zM72 24h452v652h-452v-652z" />
    <glyph glyph-name="uniFE13" unicode="&#xfe13;" 
d="M48 0v700h500v-700h-500zM72 24h452v652h-452v-652z" />
    <glyph glyph-name="uniFE14" unicode="&#xfe14;" 
d="M48 0v700h500v-700h-500zM72 24h452v652h-452v-652z" />
    <glyph glyph-name="uniFE15" unicode="&#xfe15;" 
d="M48 0v700h500v-700h-500zM72 24h452v652h-452v-652z" />
    <glyph glyph-name="uniFE16" unicode="&#xfe16;" 
d="M48 0v700h500v-700h-500zM72 24h452v652h-452v-652z" />
    <glyph glyph-name="uniFE19" unicode="&#xfe19;" 
d="M48 0v700h500v-700h-500zM72 24h452v652h-452v-652z" />
    <glyph glyph-name="uniFE31" unicode="&#xfe31;" 
d="M48 0v700h500v-700h-500zM72 24h452v652h-452v-652z" />
    <glyph glyph-name="uniFE32" unicode="&#xfe32;" 
d="M48 0v700h500v-700h-500zM72 24h452v652h-452v-652z" />
    <glyph glyph-name="uniFE33" unicode="&#xfe33;" 
d="M48 0v700h500v-700h-500zM72 24h452v652h-452v-652z" />
    <glyph glyph-name="uniFE34" unicode="&#xfe34;" 
d="M48 0v700h500v-700h-500zM72 24h452v652h-452v-652z" />
    <glyph glyph-name="uniFE35" unicode="&#xfe35;" 
d="M48 0v700h500v-700h-500zM72 24h452v652h-452v-652z" />
    <glyph glyph-name="uniFE36" unicode="&#xfe36;" 
d="M48 0v700h500v-700h-500zM72 24h452v652h-452v-652z" />
    <glyph glyph-name="uniFE37" unicode="&#xfe37;" 
d="M48 0v700h500v-700h-500zM72 24h452v652h-452v-652z" />
    <glyph glyph-name="uniFE38" unicode="&#xfe38;" 
d="M48 0v700h500v-700h-500zM72 24h452v652h-452v-652z" />
    <glyph glyph-name="uniFE47" unicode="&#xfe47;" 
d="M48 0v700h500v-700h-500zM72 24h452v652h-452v-652z" />
    <glyph glyph-name="uniFE48" unicode="&#xfe48;" 
d="M48 0v700h500v-700h-500zM72 24h452v652h-452v-652z" />
    <glyph glyph-name="middot.001" 
d="M48 0v700h500v-700h-500zM72 24h452v652h-452v-652z" />
    <glyph glyph-name="dong.alt" 
d="M48 0v700h500v-700h-500zM72 24h452v652h-452v-652z" />
    <glyph glyph-name="breve_acutecmb" 
d="M48 0v700h500v-700h-500zM72 24h452v652h-452v-652z" />
    <glyph glyph-name="breve_gravecmb" 
d="M48 0v700h500v-700h-500zM72 24h452v652h-452v-652z" />
    <glyph glyph-name="breve_hookabovecmb" 
d="M48 0v700h500v-700h-500zM72 24h452v652h-452v-652z" />
    <glyph glyph-name="breve_tildecmb" 
d="M48 0v700h500v-700h-500zM72 24h452v652h-452v-652z" />
    <glyph glyph-name="circumflex_acutecmb" 
d="M48 0v700h500v-700h-500zM72 24h452v652h-452v-652z" />
    <glyph glyph-name="circumflex_gravecmb" 
d="M48 0v700h500v-700h-500zM72 24h452v652h-452v-652z" />
    <glyph glyph-name="circumflex_hookabovecmb" 
d="M48 0v700h500v-700h-500zM72 24h452v652h-452v-652z" />
    <glyph glyph-name="circumflex_tildecmb" 
d="M48 0v700h500v-700h-500zM72 24h452v652h-452v-652z" />
    <glyph glyph-name="space_dotbelowcmb" 
d="M48 0v700h500v-700h-500zM72 24h452v652h-452v-652z" />
    <glyph glyph-name="space_hookabovecmb" 
d="M48 0v700h500v-700h-500zM72 24h452v652h-452v-652z" />
    <glyph glyph-name="space_horncmb" 
d="M48 0v700h500v-700h-500zM72 24h452v652h-452v-652z" />
    <glyph glyph-name="breve_acutecmb.cap" 
d="M48 0v700h500v-700h-500zM72 24h452v652h-452v-652z" />
    <glyph glyph-name="breve_gravecmb.cap" 
d="M48 0v700h500v-700h-500zM72 24h452v652h-452v-652z" />
    <glyph glyph-name="breve_hookabovecmb.cap" 
d="M48 0v700h500v-700h-500zM72 24h452v652h-452v-652z" />
    <glyph glyph-name="breve_tildecmb.cap" 
d="M48 0v700h500v-700h-500zM72 24h452v652h-452v-652z" />
    <glyph glyph-name="circumflex_acutecmb.cap" 
d="M48 0v700h500v-700h-500zM72 24h452v652h-452v-652z" />
    <glyph glyph-name="circumflex_gravecmb.cap" 
d="M48 0v700h500v-700h-500zM72 24h452v652h-452v-652z" />
    <glyph glyph-name="circumflex_hookabovecmb.cap" 
d="M48 0v700h500v-700h-500zM72 24h452v652h-452v-652z" />
    <glyph glyph-name="circumflex_tildecmb.cap" 
d="M48 0v700h500v-700h-500zM72 24h452v652h-452v-652z" />
    <glyph glyph-name="space_dotbelowcmb.cap" 
d="M48 0v700h500v-700h-500zM72 24h452v652h-452v-652z" />
    <glyph glyph-name="space_hookabovecmb.cap" 
d="M48 0v700h500v-700h-500zM72 24h452v652h-452v-652z" />
    <glyph glyph-name="space_horncmb.cap" 
d="M48 0v700h500v-700h-500zM72 24h452v652h-452v-652z" />
    <glyph glyph-name="Scommabelow" 
d="M48 0v700h500v-700h-500zM72 24h452v652h-452v-652z" />
    <glyph glyph-name="commabelow.001" 
d="M48 0v700h500v-700h-500zM72 24h452v652h-452v-652z" />
    <glyph glyph-name="commabelow.002" 
d="M48 0v700h500v-700h-500zM72 24h452v652h-452v-652z" />
    <glyph glyph-name="commabelow" 
d="M48 0v700h500v-700h-500zM72 24h452v652h-452v-652z" />
    <glyph glyph-name="macroncmb" 
d="M48 0v700h500v-700h-500zM72 24h452v652h-452v-652z" />
    <glyph glyph-name="Ecircumflexmacron" 
d="M48 0v700h500v-700h-500zM72 24h452v652h-452v-652z" />
    <glyph glyph-name="ecircumflexmacron" 
d="M48 0v700h500v-700h-500zM72 24h452v652h-452v-652z" />
    <glyph glyph-name="Ecircumflexcaron" 
d="M48 0v700h500v-700h-500zM72 24h452v652h-452v-652z" />
    <glyph glyph-name="ecircumflexcaron" 
d="M48 0v700h500v-700h-500zM72 24h452v652h-452v-652z" />
    <glyph glyph-name="idotaboveacute" 
d="M48 0v700h500v-700h-500zM72 24h452v652h-452v-652z" />
    <glyph glyph-name="xdotbelow" 
d="M48 0v700h500v-700h-500zM72 24h452v652h-452v-652z" />
    <glyph glyph-name="Mgrave" 
d="M48 0v700h500v-700h-500zM72 24h452v652h-452v-652z" />
    <glyph glyph-name="mgrave" 
d="M48 0v700h500v-700h-500zM72 24h452v652h-452v-652z" />
    <glyph glyph-name="Rbreve" 
d="M48 0v700h500v-700h-500zM72 24h452v652h-452v-652z" />
    <glyph glyph-name="rbreve" 
d="M48 0v700h500v-700h-500zM72 24h452v652h-452v-652z" />
    <glyph glyph-name="Uhornbreve" 
d="M48 0v700h500v-700h-500zM72 24h452v652h-452v-652z" />
    <glyph glyph-name="uhornbreve" 
d="M48 0v700h500v-700h-500zM72 24h452v652h-452v-652z" />
    <glyph glyph-name="alphabreveoxia" 
d="M48 0v700h500v-700h-500zM72 24h452v652h-452v-652z" />
    <glyph glyph-name="iotabreveoxia" 
d="M48 0v700h500v-700h-500zM72 24h452v652h-452v-652z" />
    <glyph glyph-name="upsilonbreveoxia" 
d="M48 0v700h500v-700h-500zM72 24h452v652h-452v-652z" />
    <glyph glyph-name="Alphabreveoxia" 
d="M48 0v700h500v-700h-500zM72 24h452v652h-452v-652z" />
    <glyph glyph-name="Iotabreveoxia" 
d="M48 0v700h500v-700h-500zM72 24h452v652h-452v-652z" />
    <glyph glyph-name="Upsilonbreveoxia" 
d="M48 0v700h500v-700h-500zM72 24h452v652h-452v-652z" />
    </font>
</defs>
</svg>
