<?xml version="1.0" encoding="utf-8"?>
<!-- Generator: Adobe Illustrator 18.1.0, SVG Export Plug-In . SVG Version: 6.00 Build 0)  -->
<svg version="1.1" id="Layer_1" xmlns="http://www.w3.org/2000/svg" xmlns:xlink="http://www.w3.org/1999/xlink" x="0px" y="0px"
	 viewBox="4.7 421.1 500 76.2" enable-background="new 4.7 421.1 500 76.2" xml:space="preserve">
<g>
	<path fill="#A34435" d="M67.7,466.3l2.7,1.8l-2.7-5.3l-2.7,5.3L67.7,466.3z M68.5,484.1v-18h-1.6v18H68.5z"/>
	<path d="M418.6,435.3l2.7,1.8l-2.7-5.3l-2.7,5.3L418.6,435.3z M418.7,485.3l0.2-49.9H418l-0.2,49.8L418.7,485.3z"/>
	<path d="M499.1,484.9l-1.8-2.7l5.3,2.7l-5.3,2.7L499.1,484.9z M417.9,484.5H499v0.9h-81.1V484.5L417.9,484.5z"/>
	<path fill="#A34435" d="M434.1,447.3l-2.7,1.8l2.7-5.3l2.7,5.3L434.1,447.3z M433.5,484.3l-0.2-37h1.6l0.1,36.9L433.5,484.3z"/>
	<path d="M311.8,484.5l-1.8-2.7l5.3,2.7l-5.3,2.7L311.8,484.5z M229.3,484h82.5v0.9h-82.5L229.3,484L229.3,484z"/>
	<path d="M229.3,436.3l2.7,1.8l-2.7-5.3l-2.7,5.3L229.3,436.3z M229.8,484.5v-48.2h-0.9v48.2H229.8z"/>
	<path fill="none" stroke="#A34435" stroke-width="1.8" stroke-linejoin="round" stroke-miterlimit="8" d="M240.6,480.7
		c8.5,0.2,17,0.4,25.7-8.3c8.7-8.6,21.3-34.9,26.1-43.3c4.8-8.4,3.8-7.5,2.8-6.6"/>
	
		<line fill="none" stroke="#000000" stroke-width="0.48" stroke-linejoin="round" stroke-miterlimit="8" stroke-dasharray="1.92,1.44" x1="68.8" y1="463.1" x2="272.2" y2="462.2"/>
	
		<line fill="none" stroke="#000000" stroke-width="0.48" stroke-linejoin="round" stroke-miterlimit="8" stroke-dasharray="1.92,1.44" x1="434" y1="444.5" x2="285.2" y2="444.5"/>
	
		<line fill="none" stroke="#000000" stroke-width="0.48" stroke-linejoin="round" stroke-miterlimit="8" stroke-dasharray="1.92,1.44" x1="272.9" y1="461.9" x2="273.1" y2="484.3"/>
	
		<line fill="none" stroke="#000000" stroke-width="0.48" stroke-linejoin="round" stroke-miterlimit="8" stroke-dasharray="1.92,1.44" x1="283.9" y1="445.2" x2="284.7" y2="484.4"/>
	<path d="M50.6,435.7l2.7,1.8l-2.7-5.3l-2.7,5.3L50.6,435.7z M51,484.1l0.1-48.4h-0.9l-0.1,48.4H51z"/>
	<path d="M132.6,484.1l-1.8,2.7l5.3-2.7l-5.3-2.7L132.6,484.1z M50.2,484.7l82.5-0.2v-0.9l-82.5,0.2
		C50.2,483.8,50.2,484.7,50.2,484.7z"/>
</g>
<text transform="matrix(1 0 0 1 4.7197 439.4844)" font-family="'SourceSansPro-Regular'" font-size="8.9533">Amplitude</text>
<text transform="matrix(1 0 0 1 184.1895 439.4844)" font-family="'SourceSansPro-Regular'" font-size="8.9533">Amplitude</text>
<text transform="matrix(1 0 0 1 370.9804 439.4844)" font-family="'SourceSansPro-Regular'" font-size="8.9533">Amplitude</text>
<text transform="matrix(1 0 0 1 97.9243 494.418)" font-family="'SourceSansPro-Regular'" font-size="8.9533">Frequency</text>
<text transform="matrix(1 0 0 1 465.6377 494.418)" font-family="'SourceSansPro-Regular'" font-size="8.9533">Frequency</text>
<text transform="matrix(1 0 0 1 299.8086 494.4189)" font-family="'SourceSansPro-Regular'" font-size="8.9533">Stages</text>
<text transform="matrix(1 0 0 1 269.582 494.418)" font-family="'SourceSansPro-It'" font-size="8.9533">n</text>
<text transform="matrix(1 0 0 1 282.3047 494.418)" font-family="'SourceSansPro-It'" font-size="8.9533">n</text>
<text transform="matrix(1 0 0 1 286.9609 494.418)" font-family="'SourceSansPro-Regular'" font-size="8.9533">+1</text>
</svg>
