<?xml version="1.0" encoding="utf-8"?>
<!-- Generator: Adobe Illustrator 18.1.0, SVG Export Plug-In . SVG Version: 6.00 Build 0)  -->
<svg version="1.1" id="Layer_1" xmlns="http://www.w3.org/2000/svg" xmlns:xlink="http://www.w3.org/1999/xlink" x="0px" y="0px"
	 viewBox="0 0 563.3 80.9" enable-background="new 0 0 563.3 80.9" xml:space="preserve">
<g>
	<path fill="#A34435" d="M75.7,39.6l3,2l-3-6l-3,6L75.7,39.6z M76.6,59.6v-20h-1.8v20H76.6z"/>
	<path d="M467.5,5.1l3,2l-3-6l-3,6L467.5,5.1z M467.7,60.9L468,5.1h-1l-0.2,55.7L467.7,60.9z"/>
	<path d="M557.4,60.5l-2-3l6,3l-6,3L557.4,60.5z M466.8,60h90.6v1h-90.6V60z"/>
	<path fill="#A34435" d="M484.9,18.5l-3,2l3-6l3,6L484.9,18.5z M484.2,59.7L484,18.5h1.8l0.1,41.2L484.2,59.7z"/>
	<g>
		<g>
			<defs>
				<line id="SVGID_1_" x1="563.3" y1="65.9" x2="514.6" y2="65.9"/>
			</defs>
			<clipPath id="SVGID_2_">
				<use xlink:href="#SVGID_1_"  overflow="visible"/>
			</clipPath>
		</g>
	</g>
	<path d="M348.4,60l-2-3l6,3l-6,3L348.4,60z M256.2,59.5h92.2v1h-92.2V59.5z"/>
	<path d="M256.2,6.2l3,2l-3-6l-3,6L256.2,6.2z M256.7,59.9V6.2h-1v53.8H256.7z"/>
	
		<line fill="none" stroke="#000000" stroke-width="0.48" stroke-linejoin="round" stroke-miterlimit="8" stroke-dasharray="1.92,1.44" x1="76.8" y1="36.3" x2="298.4" y2="35.7"/>
	
		<line fill="none" stroke="#000000" stroke-width="0.48" stroke-linejoin="round" stroke-miterlimit="8" stroke-dasharray="1.92,1.44" x1="484.7" y1="15.3" x2="311.1" y2="15.4"/>
	
		<line fill="none" stroke="#000000" stroke-width="0.48" stroke-linejoin="round" stroke-miterlimit="8" stroke-dasharray="1.92,1.44" x1="298.2" y1="35.4" x2="298.4" y2="60.4"/>
	
		<line fill="none" stroke="#000000" stroke-width="0.48" stroke-linejoin="round" stroke-miterlimit="8" stroke-dasharray="1.92,1.44" x1="310.4" y1="15.6" x2="311.3" y2="59.4"/>
	<path d="M56.6,5.5l3,2l-3-6l-3,6L56.6,5.5z M57,59.6l0.1-54.1h-1L56,59.6L57,59.6z"/>
	<path d="M148.2,59.6l-2,3l6-3l-6-3L148.2,59.6z M56.1,60.3l92.1-0.2l0-1l-92.1,0.2V60.3z"/>
	<g>
		<g>
			<defs>
				<line id="SVGID_3_" x1="152.3" y1="66.3" x2="103.7" y2="66.3"/>
			</defs>
			<clipPath id="SVGID_4_">
				<use xlink:href="#SVGID_3_"  overflow="visible"/>
			</clipPath>
		</g>
	</g>
	<path fill="#A34435" d="M505.5,38.5l-3,2l3-6l3,6L505.5,38.5z M504.6,60.1V38.5h1.8v21.6H504.6z"/>
	<path fill="#A34435" d="M524.1,49.3l-3,2l3-6l3,6L524.1,49.3z M523.2,60.2V49.3h1.8v10.9H523.2z"/>
	<path fill="#A34435" d="M544,52.9l-3,2l3-6l3,6L544,52.9z M543.1,60.2v-7.2h1.8v7.2H543.1z"/>
	<path fill="none" stroke="#A34435" stroke-width="1.8" stroke-linejoin="round" stroke-miterlimit="8" d="M254.4,58.7
		c10.8,0.2,23.1-3,32.4-10.1c9.3-7.2,17.4-22.6,23.6-32.8c6.1-10.2,38.8-8.5,37.6-7.4"/>
	
		<line fill="none" stroke="#000000" stroke-width="0.48" stroke-linejoin="round" stroke-miterlimit="8" stroke-dasharray="1.92,1.44" x1="344.4" y1="6.8" x2="256.8" y2="6.4"/>
</g>
<text transform="matrix(1 0 0 1 6.1467 11.2275)" font-family="'SourceSansPro-Regular'" font-size="10">Amplitude</text>
<text transform="matrix(1 0 0 1 203.1088 11.2277)" font-family="'SourceSansPro-Regular'" font-size="10">Amplitude</text>
<text transform="matrix(1 0 0 1 415.517 11.227)" font-family="'SourceSansPro-Regular'" font-size="10">Amplitude</text>
<text transform="matrix(1 0 0 1 108.3693 72.4621)" font-family="'SourceSansPro-Regular'" font-size="10">Frequency</text>
<text transform="matrix(1 0 0 1 516.0562 72.4625)" font-family="'SourceSansPro-Regular'" font-size="10">Frequency</text>
<text transform="matrix(1 0 0 1 335.8617 72.4625)" font-family="'SourceSansPro-Regular'" font-size="10">Stages</text>
<text transform="matrix(1 0 0 1 294.0447 69.113)" font-family="'SourceSansPro-It'" font-size="10">n</text>
<text transform="matrix(1 0 0 1 307.8123 69.1132)"><tspan x="0" y="0" font-family="'SourceSansPro-It'" font-size="10">n</tspan><tspan x="5.2" y="0" font-family="'SourceSansPro-Regular'" font-size="10">+1</tspan></text>
</svg>
