<?xml version="1.0" encoding="utf-8"?>
<!-- Generator: Adobe Illustrator 18.1.0, SVG Export Plug-In . SVG Version: 6.00 Build 0)  -->
<svg version="1.1" id="Layer_1" xmlns="http://www.w3.org/2000/svg" xmlns:xlink="http://www.w3.org/1999/xlink" x="0px" y="0px"
	 viewBox="0 0 55.4 45.5" enable-background="new 0 0 55.4 45.5" xml:space="preserve">
<g>
	<path d="M3,4l3,2L3,0L0,6L3,4z M3.5,44.3V4h-1v40.3H3.5z"/>
	<path d="M51.4,42.5l-2-3l6,3l-6,3L51.4,42.5z M3,42h48.4v1H3V42z"/>
	<path fill="none" stroke="#A34435" stroke-width="1.8" stroke-linejoin="round" stroke-miterlimit="10" d="M3.9,30.5
		c1.7-2,4.4-4.8,7-4.1c2.6,0.7,5.2,4.5,7,5.7c1.8,1.2,2.6,1.6,3.9,1.7c1.2,0.1,2.4-0.5,3.6-1.2c1.2-0.7,2.9-2.5,3.5-3"/>
	<path fill="none" stroke="#A34435" stroke-width="1.8" stroke-linejoin="round" stroke-miterlimit="10" d="M28.5,30.1
		c1.7-2.1,4.4-4.8,7-4.1c2.6,0.7,5.2,4.5,7,5.7c1.8,1.2,2.6,1.6,3.9,1.7c1.2,0.1,2.4-0.5,3.6-1.2c1.2-0.7,2.9-2.5,3.5-3"/>
</g>
</svg>
