<?xml version="1.0" encoding="utf-8"?>
<!-- Generator: Adobe Illustrator 18.1.0, SVG Export Plug-In . SVG Version: 6.00 Build 0)  -->
<svg version="1.1" id="Layer_1" xmlns="http://www.w3.org/2000/svg" xmlns:xlink="http://www.w3.org/1999/xlink" x="0px" y="0px"
	 viewBox="12.5 -1.5 103.1 107.1" enable-background="new 12.5 -1.5 103.1 107.1" xml:space="preserve">
<g>
	<path id="c" fill="#BC8420" stroke="#BC8420" stroke-width="3" stroke-miterlimit="10" d="M17.5,40.7L64,4.6l46.5,36.1
		c1,0.7,2.2,0.6,3.1-0.3c0.7-0.8,0.6-2.1-0.3-2.8L65.4,0.4c-0.8-0.6-1.9-0.6-2.8,0L14.8,37.6c-1,0.7-1,1.9-0.3,2.8
		C15.2,41.2,16.6,41.4,17.5,40.7"/>
</g>
<g>
	<path id="b" fill="#BC8420" stroke="#BC8420" stroke-width="3" stroke-miterlimit="10" d="M55.5,91V65.3h17.2V91
		c0,1.2,1,2.1,2.1,2.1c1.2,0,2.1-1,2.1-2.1V63.2c0-0.6-0.3-1.1-0.7-1.5c-0.4-0.4-1-0.7-1.5-0.7H53.4c-0.6,0-1.1,0.3-1.5,0.7
		s-0.6,1-0.6,1.5v27.9c0,1.2,1,2.1,2.1,2.1S55.5,92.3,55.5,91"/>
</g>
<g>
	<path id="a" fill="#BC8420" stroke="#BC8420" stroke-width="3" stroke-miterlimit="10" d="M25.5,47.3V102c0,0.6,0.3,1.1,0.7,1.4
		c0.4,0.4,1,0.6,1.5,0.6h73.1c0.6,0,1.1-0.3,1.5-0.6c0.4-0.4,0.7-0.8,0.7-1.4V47.3c0-1.1-1-2.1-2.1-2.1c-1.3,0-2.1,0.8-2.1,2.1v52.6
		h-69V47.3c0-1.1-1-2.1-2.1-2.1C26.5,45.2,25.5,46.2,25.5,47.3"/>
</g>
</svg>
