<?xml version="1.0" encoding="utf-8"?>
<!-- Generator: Adobe Illustrator 18.1.0, SVG Export Plug-In . SVG Version: 6.00 Build 0)  -->
<svg version="1.1" id="Layer_1" xmlns="http://www.w3.org/2000/svg" xmlns:xlink="http://www.w3.org/1999/xlink" x="0px" y="0px"
	 viewBox="0 0 500 500" enable-background="new 0 0 500 500" xml:space="preserve">
<path fill="#FFFFFF" d="M412,138.9v170.8c0,14.4-11.7,26.1-26.1,26.1h-70.5l13.2,34.9c1.5,4-0.5,8.4-4.5,9.9
	c-0.9,0.3-1.8,0.5-2.7,0.5c-3.1,0-6-1.9-7.2-5l-15.2-40.3h-51.1l-15.2,40.3c-1.2,3.1-4.1,5-7.2,5c-0.9,0-1.8-0.2-2.7-0.5
	c-4-1.5-6-5.9-4.5-9.9l13.2-34.9h-23c-0.9-5.3-2.4-10.5-4.5-15.4h182c5.9,0,10.8-4.8,10.8-10.8V138.9c0-5.9-4.8-10.8-10.8-10.8h-225
	c-5.9,0-10.8,4.8-10.8,10.8v73.8c-2.5-0.4-5.1-0.6-7.7-0.6c-2.6,0-5.2,0.3-7.7,0.6v-73.8c0-14.4,11.7-26.1,26.1-26.1h104.8V97.9
	c0-4.2,3.4-7.7,7.7-7.7s7.7,3.4,7.7,7.7v14.9h104.8C400.3,112.7,412,124.5,412,138.9z M174.2,303.1c-8.7,6.9-19.7,11.1-31.7,11.1
	c-12,0-23-4.2-31.7-11.1C97,312.5,88,328.2,88,346v28c0,14.3,27.2,21.5,54.5,21.5s54.5-7.1,54.5-21.5v-28
	C197,328.2,187.9,312.5,174.2,303.1z M142.5,301.9c21.5,0,38.9-17.4,38.9-38.8c0-21.5-17.4-38.8-38.9-38.8
	c-21.4,0-38.8,17.4-38.8,38.8C103.6,284.6,121,301.9,142.5,301.9z M272.6,174.4V225h50.7v6.1c0,31.3-25.5,56.8-56.8,56.8
	s-56.8-25.5-56.8-56.8c0-31.3,25.5-56.8,56.8-56.8H272.6z M260.4,237.3v-50.2c-21.7,3-38.4,21.6-38.4,44.1c0,24.5,20,44.5,44.5,44.5
	c22.5,0,41.1-16.7,44.1-38.4L260.4,237.3L260.4,237.3z M283.4,163.6v50.7h50.7C334.1,186.3,311.4,163.6,283.4,163.6z"/>
</svg>
